<mxfile host="app.diagrams.net" modified="2023-11-10T00:00:16.604Z" agent="Mozilla/5.0 (Windows NT 10.0; Win64; x64) AppleWebKit/537.36 (KHTML, like Gecko) Chrome/119.0.0.0 Safari/537.36" etag="i6rESYJUaOLmn7IxYjYh" version="22.1.0" type="device">
  <diagram name="Сторінка-1" id="yh2iZvKlDw5B70ogpb3o">
    <mxGraphModel dx="1728" dy="2094" grid="1" gridSize="10" guides="1" tooltips="1" connect="1" arrows="1" fold="1" page="1" pageScale="1" pageWidth="827" pageHeight="1169" math="0" shadow="0">
      <root>
        <mxCell id="0" />
        <mxCell id="1" parent="0" />
        <mxCell id="hV2kDuYqjvU9eCz-QwMJ-9" style="edgeStyle=orthogonalEdgeStyle;rounded=0;orthogonalLoop=1;jettySize=auto;html=1;entryX=0.5;entryY=0;entryDx=0;entryDy=0;" parent="1" source="hV2kDuYqjvU9eCz-QwMJ-1" target="hV2kDuYqjvU9eCz-QwMJ-7" edge="1">
          <mxGeometry relative="1" as="geometry" />
        </mxCell>
        <mxCell id="hV2kDuYqjvU9eCz-QwMJ-1" value="1" style="ellipse;whiteSpace=wrap;html=1;aspect=fixed;" parent="1" vertex="1">
          <mxGeometry x="125" y="180" width="30" height="30" as="geometry" />
        </mxCell>
        <mxCell id="hV2kDuYqjvU9eCz-QwMJ-2" value="1" style="ellipse;whiteSpace=wrap;html=1;aspect=fixed;" parent="1" vertex="1">
          <mxGeometry x="2333.75" y="-152.5" width="30" height="30" as="geometry" />
        </mxCell>
        <mxCell id="hV2kDuYqjvU9eCz-QwMJ-183" style="edgeStyle=orthogonalEdgeStyle;rounded=0;orthogonalLoop=1;jettySize=auto;html=1;entryX=0.5;entryY=1;entryDx=0;entryDy=0;elbow=vertical;" parent="1" edge="1">
          <mxGeometry relative="1" as="geometry">
            <mxPoint x="1035" y="179.53" as="sourcePoint" />
            <mxPoint x="1105" y="179.53" as="targetPoint" />
          </mxGeometry>
        </mxCell>
        <mxCell id="hV2kDuYqjvU9eCz-QwMJ-3" value="1" style="ellipse;whiteSpace=wrap;html=1;aspect=fixed;" parent="1" vertex="1">
          <mxGeometry x="1005" y="170" width="30" height="30" as="geometry" />
        </mxCell>
        <mxCell id="hV2kDuYqjvU9eCz-QwMJ-4" value="1" style="ellipse;whiteSpace=wrap;html=1;aspect=fixed;strokeColor=#000000;" parent="1" vertex="1">
          <mxGeometry x="410" y="80" width="30" height="30" as="geometry" />
        </mxCell>
        <mxCell id="hV2kDuYqjvU9eCz-QwMJ-5" value="" style="rounded=0;whiteSpace=wrap;html=1;gradientColor=none;fillStyle=solid;fillColor=#000000;" parent="1" vertex="1">
          <mxGeometry x="2303.75" y="-32.5" width="80" height="20" as="geometry" />
        </mxCell>
        <mxCell id="hV2kDuYqjvU9eCz-QwMJ-6" value="" style="rounded=0;whiteSpace=wrap;html=1;gradientColor=none;fillStyle=solid;fillColor=#000000;" parent="1" vertex="1">
          <mxGeometry x="2303.75" y="-2.5" width="80" height="10" as="geometry" />
        </mxCell>
        <mxCell id="hV2kDuYqjvU9eCz-QwMJ-10" style="edgeStyle=orthogonalEdgeStyle;rounded=0;orthogonalLoop=1;jettySize=auto;html=1;entryX=1;entryY=0.5;entryDx=0;entryDy=0;" parent="1" edge="1">
          <mxGeometry relative="1" as="geometry">
            <mxPoint x="230" y="190" as="sourcePoint" />
            <mxPoint x="155" y="190" as="targetPoint" />
          </mxGeometry>
        </mxCell>
        <mxCell id="hV2kDuYqjvU9eCz-QwMJ-13" style="edgeStyle=orthogonalEdgeStyle;rounded=0;orthogonalLoop=1;jettySize=auto;html=1;" parent="1" source="hV2kDuYqjvU9eCz-QwMJ-7" target="hV2kDuYqjvU9eCz-QwMJ-12" edge="1">
          <mxGeometry relative="1" as="geometry" />
        </mxCell>
        <mxCell id="hV2kDuYqjvU9eCz-QwMJ-15" value="/" style="edgeLabel;html=1;align=center;verticalAlign=middle;resizable=0;points=[];" parent="hV2kDuYqjvU9eCz-QwMJ-13" vertex="1" connectable="0">
          <mxGeometry x="0.0523" y="1" relative="1" as="geometry">
            <mxPoint x="-4" y="1" as="offset" />
          </mxGeometry>
        </mxCell>
        <mxCell id="hV2kDuYqjvU9eCz-QwMJ-16" value="4" style="edgeLabel;html=1;align=center;verticalAlign=middle;resizable=0;points=[];" parent="hV2kDuYqjvU9eCz-QwMJ-13" vertex="1" connectable="0">
          <mxGeometry x="0.0523" y="1" relative="1" as="geometry">
            <mxPoint x="-3" y="-12" as="offset" />
          </mxGeometry>
        </mxCell>
        <mxCell id="hV2kDuYqjvU9eCz-QwMJ-7" value="" style="rounded=0;whiteSpace=wrap;html=1;gradientColor=none;fillStyle=solid;fillColor=#000000;rotation=-90;" parent="1" vertex="1">
          <mxGeometry x="195" y="190" width="80" height="10" as="geometry" />
        </mxCell>
        <mxCell id="hV2kDuYqjvU9eCz-QwMJ-11" value="t=1" style="text;html=1;strokeColor=none;fillColor=none;align=center;verticalAlign=middle;whiteSpace=wrap;rounded=0;" parent="1" vertex="1">
          <mxGeometry x="215" y="240" width="40" height="20" as="geometry" />
        </mxCell>
        <mxCell id="hV2kDuYqjvU9eCz-QwMJ-18" style="edgeStyle=orthogonalEdgeStyle;rounded=0;orthogonalLoop=1;jettySize=auto;html=1;entryX=0.5;entryY=0;entryDx=0;entryDy=0;" parent="1" source="hV2kDuYqjvU9eCz-QwMJ-12" target="hV2kDuYqjvU9eCz-QwMJ-19" edge="1">
          <mxGeometry relative="1" as="geometry">
            <mxPoint x="385" y="195" as="targetPoint" />
          </mxGeometry>
        </mxCell>
        <mxCell id="hV2kDuYqjvU9eCz-QwMJ-58" style="edgeStyle=orthogonalEdgeStyle;rounded=0;orthogonalLoop=1;jettySize=auto;html=1;entryX=0.5;entryY=0;entryDx=0;entryDy=0;" parent="1" source="hV2kDuYqjvU9eCz-QwMJ-12" target="hV2kDuYqjvU9eCz-QwMJ-57" edge="1">
          <mxGeometry relative="1" as="geometry" />
        </mxCell>
        <mxCell id="hV2kDuYqjvU9eCz-QwMJ-12" value="" style="ellipse;whiteSpace=wrap;html=1;aspect=fixed;" parent="1" vertex="1">
          <mxGeometry x="305" y="180" width="30" height="30" as="geometry" />
        </mxCell>
        <mxCell id="hV2kDuYqjvU9eCz-QwMJ-81" style="edgeStyle=orthogonalEdgeStyle;rounded=0;orthogonalLoop=1;jettySize=auto;html=1;entryX=0;entryY=0.5;entryDx=0;entryDy=0;" parent="1" source="hV2kDuYqjvU9eCz-QwMJ-19" target="hV2kDuYqjvU9eCz-QwMJ-79" edge="1">
          <mxGeometry relative="1" as="geometry" />
        </mxCell>
        <mxCell id="hV2kDuYqjvU9eCz-QwMJ-19" value="" style="rounded=0;whiteSpace=wrap;html=1;gradientColor=none;fillStyle=solid;fillColor=#000000;rotation=-90;" parent="1" vertex="1">
          <mxGeometry x="385" y="185" width="80" height="20" as="geometry" />
        </mxCell>
        <mxCell id="hV2kDuYqjvU9eCz-QwMJ-21" value="" style="curved=1;endArrow=classic;html=1;rounded=0;exitX=0.878;exitY=-0.102;exitDx=0;exitDy=0;exitPerimeter=0;entryX=0;entryY=0.5;entryDx=0;entryDy=0;" parent="1" source="hV2kDuYqjvU9eCz-QwMJ-19" target="hV2kDuYqjvU9eCz-QwMJ-4" edge="1">
          <mxGeometry width="50" height="50" relative="1" as="geometry">
            <mxPoint x="330" y="140" as="sourcePoint" />
            <mxPoint x="380" y="90" as="targetPoint" />
            <Array as="points">
              <mxPoint x="365" y="165" />
              <mxPoint x="365" y="95" />
            </Array>
          </mxGeometry>
        </mxCell>
        <mxCell id="hV2kDuYqjvU9eCz-QwMJ-22" value="Text" style="text;html=1;strokeColor=none;fillColor=none;align=center;verticalAlign=middle;whiteSpace=wrap;rounded=0;" parent="1" vertex="1">
          <mxGeometry x="2313.75" y="17.5" width="60" height="30" as="geometry" />
        </mxCell>
        <mxCell id="hV2kDuYqjvU9eCz-QwMJ-23" value="" style="curved=1;endArrow=classic;html=1;rounded=0;" parent="1" edge="1">
          <mxGeometry width="50" height="50" relative="1" as="geometry">
            <mxPoint x="2318.75" y="107.5" as="sourcePoint" />
            <mxPoint x="2368.75" y="57.5" as="targetPoint" />
            <Array as="points">
              <mxPoint x="2368.75" y="107.5" />
              <mxPoint x="2318.75" y="57.5" />
            </Array>
          </mxGeometry>
        </mxCell>
        <mxCell id="hV2kDuYqjvU9eCz-QwMJ-24" value="" style="curved=1;endArrow=classic;html=1;rounded=0;exitX=0.877;exitY=0.921;exitDx=0;exitDy=0;exitPerimeter=0;entryX=1.067;entryY=0.398;entryDx=0;entryDy=0;entryPerimeter=0;shadow=0;" parent="1" source="hV2kDuYqjvU9eCz-QwMJ-19" target="hV2kDuYqjvU9eCz-QwMJ-4" edge="1">
          <mxGeometry width="50" height="50" relative="1" as="geometry">
            <mxPoint x="487" y="165" as="sourcePoint" />
            <mxPoint x="484" y="90" as="targetPoint" />
            <Array as="points">
              <mxPoint x="455" y="165" />
              <mxPoint x="475" y="160" />
              <mxPoint x="485" y="130" />
              <mxPoint x="475" y="90" />
            </Array>
          </mxGeometry>
        </mxCell>
        <mxCell id="hV2kDuYqjvU9eCz-QwMJ-27" value="Вільний 1" style="text;html=1;strokeColor=none;fillColor=none;align=center;verticalAlign=middle;whiteSpace=wrap;rounded=0;" parent="1" vertex="1">
          <mxGeometry x="440" y="60" width="60" height="30" as="geometry" />
        </mxCell>
        <mxCell id="hV2kDuYqjvU9eCz-QwMJ-28" value="Опрацювання 1" style="text;html=1;strokeColor=none;fillColor=none;align=center;verticalAlign=middle;whiteSpace=wrap;rounded=0;" parent="1" vertex="1">
          <mxGeometry x="395" y="120" width="60" height="30" as="geometry" />
        </mxCell>
        <mxCell id="hV2kDuYqjvU9eCz-QwMJ-29" value="1" style="ellipse;whiteSpace=wrap;html=1;aspect=fixed;strokeColor=#000000;" parent="1" vertex="1">
          <mxGeometry x="410" y="250" width="30" height="30" as="geometry" />
        </mxCell>
        <mxCell id="hV2kDuYqjvU9eCz-QwMJ-30" style="edgeStyle=orthogonalEdgeStyle;rounded=0;orthogonalLoop=1;jettySize=auto;html=1;entryX=0.5;entryY=0;entryDx=0;entryDy=0;" parent="1" source="hV2kDuYqjvU9eCz-QwMJ-35" target="hV2kDuYqjvU9eCz-QwMJ-31" edge="1">
          <mxGeometry relative="1" as="geometry">
            <mxPoint x="385" y="365" as="targetPoint" />
          </mxGeometry>
        </mxCell>
        <mxCell id="hV2kDuYqjvU9eCz-QwMJ-80" style="edgeStyle=orthogonalEdgeStyle;rounded=0;orthogonalLoop=1;jettySize=auto;html=1;entryX=0;entryY=0.5;entryDx=0;entryDy=0;" parent="1" source="hV2kDuYqjvU9eCz-QwMJ-31" target="hV2kDuYqjvU9eCz-QwMJ-79" edge="1">
          <mxGeometry relative="1" as="geometry" />
        </mxCell>
        <mxCell id="hV2kDuYqjvU9eCz-QwMJ-31" value="" style="rounded=0;whiteSpace=wrap;html=1;gradientColor=none;fillStyle=solid;fillColor=#000000;rotation=-90;" parent="1" vertex="1">
          <mxGeometry x="385" y="355" width="80" height="20" as="geometry" />
        </mxCell>
        <mxCell id="hV2kDuYqjvU9eCz-QwMJ-32" value="" style="curved=1;endArrow=classic;html=1;rounded=0;exitX=0.878;exitY=-0.102;exitDx=0;exitDy=0;exitPerimeter=0;entryX=0;entryY=0.5;entryDx=0;entryDy=0;" parent="1" source="hV2kDuYqjvU9eCz-QwMJ-31" target="hV2kDuYqjvU9eCz-QwMJ-29" edge="1">
          <mxGeometry width="50" height="50" relative="1" as="geometry">
            <mxPoint x="330" y="310" as="sourcePoint" />
            <mxPoint x="380" y="260" as="targetPoint" />
            <Array as="points">
              <mxPoint x="365" y="330" />
              <mxPoint x="365" y="270" />
            </Array>
          </mxGeometry>
        </mxCell>
        <mxCell id="hV2kDuYqjvU9eCz-QwMJ-33" value="" style="curved=1;endArrow=classic;html=1;rounded=0;exitX=0.877;exitY=0.921;exitDx=0;exitDy=0;exitPerimeter=0;shadow=0;" parent="1" source="hV2kDuYqjvU9eCz-QwMJ-31" edge="1">
          <mxGeometry width="50" height="50" relative="1" as="geometry">
            <mxPoint x="487" y="335" as="sourcePoint" />
            <mxPoint x="445" y="260" as="targetPoint" />
            <Array as="points">
              <mxPoint x="455" y="335" />
              <mxPoint x="475" y="330" />
              <mxPoint x="485" y="300" />
              <mxPoint x="475" y="260" />
            </Array>
          </mxGeometry>
        </mxCell>
        <mxCell id="hV2kDuYqjvU9eCz-QwMJ-34" value="Опрацювання 2" style="text;html=1;strokeColor=none;fillColor=none;align=center;verticalAlign=middle;whiteSpace=wrap;rounded=0;" parent="1" vertex="1">
          <mxGeometry x="395" y="290" width="60" height="30" as="geometry" />
        </mxCell>
        <mxCell id="hV2kDuYqjvU9eCz-QwMJ-61" style="edgeStyle=orthogonalEdgeStyle;rounded=0;orthogonalLoop=1;jettySize=auto;html=1;entryX=0.5;entryY=0;entryDx=0;entryDy=0;" parent="1" source="hV2kDuYqjvU9eCz-QwMJ-35" target="hV2kDuYqjvU9eCz-QwMJ-60" edge="1">
          <mxGeometry relative="1" as="geometry" />
        </mxCell>
        <mxCell id="hV2kDuYqjvU9eCz-QwMJ-35" value="" style="ellipse;whiteSpace=wrap;html=1;aspect=fixed;" parent="1" vertex="1">
          <mxGeometry x="305" y="350" width="30" height="30" as="geometry" />
        </mxCell>
        <mxCell id="hV2kDuYqjvU9eCz-QwMJ-36" value="1" style="ellipse;whiteSpace=wrap;html=1;aspect=fixed;strokeColor=#000000;" parent="1" vertex="1">
          <mxGeometry x="410" y="435" width="30" height="30" as="geometry" />
        </mxCell>
        <mxCell id="hV2kDuYqjvU9eCz-QwMJ-37" style="edgeStyle=orthogonalEdgeStyle;rounded=0;orthogonalLoop=1;jettySize=auto;html=1;entryX=0.5;entryY=0;entryDx=0;entryDy=0;" parent="1" source="hV2kDuYqjvU9eCz-QwMJ-42" target="hV2kDuYqjvU9eCz-QwMJ-38" edge="1">
          <mxGeometry relative="1" as="geometry">
            <mxPoint x="385" y="550" as="targetPoint" />
          </mxGeometry>
        </mxCell>
        <mxCell id="hV2kDuYqjvU9eCz-QwMJ-91" style="edgeStyle=orthogonalEdgeStyle;rounded=0;orthogonalLoop=1;jettySize=auto;html=1;entryX=0.5;entryY=1;entryDx=0;entryDy=0;" parent="1" source="hV2kDuYqjvU9eCz-QwMJ-38" target="hV2kDuYqjvU9eCz-QwMJ-79" edge="1">
          <mxGeometry relative="1" as="geometry" />
        </mxCell>
        <mxCell id="hV2kDuYqjvU9eCz-QwMJ-38" value="" style="rounded=0;whiteSpace=wrap;html=1;gradientColor=none;fillStyle=solid;fillColor=#000000;rotation=-90;" parent="1" vertex="1">
          <mxGeometry x="385" y="540" width="80" height="20" as="geometry" />
        </mxCell>
        <mxCell id="hV2kDuYqjvU9eCz-QwMJ-39" value="" style="curved=1;endArrow=classic;html=1;rounded=0;exitX=0.878;exitY=-0.102;exitDx=0;exitDy=0;exitPerimeter=0;entryX=0;entryY=0.5;entryDx=0;entryDy=0;" parent="1" source="hV2kDuYqjvU9eCz-QwMJ-38" target="hV2kDuYqjvU9eCz-QwMJ-36" edge="1">
          <mxGeometry width="50" height="50" relative="1" as="geometry">
            <mxPoint x="330" y="495" as="sourcePoint" />
            <mxPoint x="380" y="445" as="targetPoint" />
            <Array as="points">
              <mxPoint x="365" y="520" />
              <mxPoint x="365" y="450" />
            </Array>
          </mxGeometry>
        </mxCell>
        <mxCell id="hV2kDuYqjvU9eCz-QwMJ-40" value="" style="curved=1;endArrow=classic;html=1;rounded=0;exitX=0.877;exitY=0.921;exitDx=0;exitDy=0;exitPerimeter=0;entryX=1.067;entryY=0.398;entryDx=0;entryDy=0;entryPerimeter=0;shadow=0;" parent="1" source="hV2kDuYqjvU9eCz-QwMJ-38" target="hV2kDuYqjvU9eCz-QwMJ-36" edge="1">
          <mxGeometry width="50" height="50" relative="1" as="geometry">
            <mxPoint x="487" y="520" as="sourcePoint" />
            <mxPoint x="484" y="445" as="targetPoint" />
            <Array as="points">
              <mxPoint x="455" y="520" />
              <mxPoint x="475" y="515" />
              <mxPoint x="485" y="485" />
              <mxPoint x="475" y="445" />
            </Array>
          </mxGeometry>
        </mxCell>
        <mxCell id="hV2kDuYqjvU9eCz-QwMJ-41" value="Опрацювання 3" style="text;html=1;strokeColor=none;fillColor=none;align=center;verticalAlign=middle;whiteSpace=wrap;rounded=0;" parent="1" vertex="1">
          <mxGeometry x="395" y="475" width="60" height="30" as="geometry" />
        </mxCell>
        <mxCell id="hV2kDuYqjvU9eCz-QwMJ-64" style="edgeStyle=orthogonalEdgeStyle;rounded=0;orthogonalLoop=1;jettySize=auto;html=1;entryX=0.5;entryY=0;entryDx=0;entryDy=0;" parent="1" source="hV2kDuYqjvU9eCz-QwMJ-42" target="hV2kDuYqjvU9eCz-QwMJ-63" edge="1">
          <mxGeometry relative="1" as="geometry" />
        </mxCell>
        <mxCell id="hV2kDuYqjvU9eCz-QwMJ-42" value="" style="ellipse;whiteSpace=wrap;html=1;aspect=fixed;" parent="1" vertex="1">
          <mxGeometry x="305" y="535" width="30" height="30" as="geometry" />
        </mxCell>
        <mxCell id="hV2kDuYqjvU9eCz-QwMJ-43" value="1" style="ellipse;whiteSpace=wrap;html=1;aspect=fixed;strokeColor=#000000;" parent="1" vertex="1">
          <mxGeometry x="410" y="630" width="30" height="30" as="geometry" />
        </mxCell>
        <mxCell id="hV2kDuYqjvU9eCz-QwMJ-44" style="edgeStyle=orthogonalEdgeStyle;rounded=0;orthogonalLoop=1;jettySize=auto;html=1;entryX=0.5;entryY=0;entryDx=0;entryDy=0;" parent="1" source="hV2kDuYqjvU9eCz-QwMJ-49" target="hV2kDuYqjvU9eCz-QwMJ-45" edge="1">
          <mxGeometry relative="1" as="geometry">
            <mxPoint x="385" y="745" as="targetPoint" />
          </mxGeometry>
        </mxCell>
        <mxCell id="hV2kDuYqjvU9eCz-QwMJ-90" style="edgeStyle=orthogonalEdgeStyle;rounded=0;orthogonalLoop=1;jettySize=auto;html=1;entryX=0.5;entryY=1;entryDx=0;entryDy=0;" parent="1" source="hV2kDuYqjvU9eCz-QwMJ-45" target="hV2kDuYqjvU9eCz-QwMJ-79" edge="1">
          <mxGeometry relative="1" as="geometry" />
        </mxCell>
        <mxCell id="hV2kDuYqjvU9eCz-QwMJ-45" value="" style="rounded=0;whiteSpace=wrap;html=1;gradientColor=none;fillStyle=solid;fillColor=#000000;rotation=-90;" parent="1" vertex="1">
          <mxGeometry x="385" y="735" width="80" height="20" as="geometry" />
        </mxCell>
        <mxCell id="hV2kDuYqjvU9eCz-QwMJ-46" value="" style="curved=1;endArrow=classic;html=1;rounded=0;exitX=0.878;exitY=-0.102;exitDx=0;exitDy=0;exitPerimeter=0;entryX=0;entryY=0.5;entryDx=0;entryDy=0;" parent="1" source="hV2kDuYqjvU9eCz-QwMJ-45" target="hV2kDuYqjvU9eCz-QwMJ-43" edge="1">
          <mxGeometry width="50" height="50" relative="1" as="geometry">
            <mxPoint x="330" y="690" as="sourcePoint" />
            <mxPoint x="380" y="640" as="targetPoint" />
            <Array as="points">
              <mxPoint x="365" y="715" />
              <mxPoint x="365" y="650" />
            </Array>
          </mxGeometry>
        </mxCell>
        <mxCell id="hV2kDuYqjvU9eCz-QwMJ-47" value="" style="curved=1;endArrow=classic;html=1;rounded=0;exitX=0.877;exitY=0.921;exitDx=0;exitDy=0;exitPerimeter=0;entryX=1.067;entryY=0.398;entryDx=0;entryDy=0;entryPerimeter=0;shadow=0;" parent="1" source="hV2kDuYqjvU9eCz-QwMJ-45" target="hV2kDuYqjvU9eCz-QwMJ-43" edge="1">
          <mxGeometry width="50" height="50" relative="1" as="geometry">
            <mxPoint x="487" y="715" as="sourcePoint" />
            <mxPoint x="484" y="640" as="targetPoint" />
            <Array as="points">
              <mxPoint x="455" y="715" />
              <mxPoint x="475" y="710" />
              <mxPoint x="485" y="680" />
              <mxPoint x="475" y="640" />
            </Array>
          </mxGeometry>
        </mxCell>
        <mxCell id="hV2kDuYqjvU9eCz-QwMJ-48" value="Опрацювання 4" style="text;html=1;strokeColor=none;fillColor=none;align=center;verticalAlign=middle;whiteSpace=wrap;rounded=0;" parent="1" vertex="1">
          <mxGeometry x="395" y="670" width="60" height="30" as="geometry" />
        </mxCell>
        <mxCell id="hV2kDuYqjvU9eCz-QwMJ-69" style="edgeStyle=orthogonalEdgeStyle;rounded=0;orthogonalLoop=1;jettySize=auto;html=1;entryX=0.5;entryY=0;entryDx=0;entryDy=0;" parent="1" source="hV2kDuYqjvU9eCz-QwMJ-49" target="hV2kDuYqjvU9eCz-QwMJ-67" edge="1">
          <mxGeometry relative="1" as="geometry" />
        </mxCell>
        <mxCell id="hV2kDuYqjvU9eCz-QwMJ-49" value="" style="ellipse;whiteSpace=wrap;html=1;aspect=fixed;" parent="1" vertex="1">
          <mxGeometry x="305" y="730" width="30" height="30" as="geometry" />
        </mxCell>
        <mxCell id="hV2kDuYqjvU9eCz-QwMJ-50" value="1" style="ellipse;whiteSpace=wrap;html=1;aspect=fixed;strokeColor=#000000;" parent="1" vertex="1">
          <mxGeometry x="410" y="820" width="30" height="30" as="geometry" />
        </mxCell>
        <mxCell id="hV2kDuYqjvU9eCz-QwMJ-51" style="edgeStyle=orthogonalEdgeStyle;rounded=0;orthogonalLoop=1;jettySize=auto;html=1;entryX=0.5;entryY=0;entryDx=0;entryDy=0;" parent="1" source="hV2kDuYqjvU9eCz-QwMJ-56" target="hV2kDuYqjvU9eCz-QwMJ-52" edge="1">
          <mxGeometry relative="1" as="geometry">
            <mxPoint x="385" y="935" as="targetPoint" />
          </mxGeometry>
        </mxCell>
        <mxCell id="hV2kDuYqjvU9eCz-QwMJ-89" style="edgeStyle=orthogonalEdgeStyle;rounded=0;orthogonalLoop=1;jettySize=auto;html=1;entryX=0.5;entryY=1;entryDx=0;entryDy=0;" parent="1" source="hV2kDuYqjvU9eCz-QwMJ-52" target="hV2kDuYqjvU9eCz-QwMJ-79" edge="1">
          <mxGeometry relative="1" as="geometry" />
        </mxCell>
        <mxCell id="hV2kDuYqjvU9eCz-QwMJ-52" value="" style="rounded=0;whiteSpace=wrap;html=1;gradientColor=none;fillStyle=solid;fillColor=#000000;rotation=-90;" parent="1" vertex="1">
          <mxGeometry x="385" y="925" width="80" height="20" as="geometry" />
        </mxCell>
        <mxCell id="hV2kDuYqjvU9eCz-QwMJ-53" value="" style="curved=1;endArrow=classic;html=1;rounded=0;exitX=0.878;exitY=-0.102;exitDx=0;exitDy=0;exitPerimeter=0;entryX=0;entryY=0.5;entryDx=0;entryDy=0;" parent="1" source="hV2kDuYqjvU9eCz-QwMJ-52" target="hV2kDuYqjvU9eCz-QwMJ-50" edge="1">
          <mxGeometry width="50" height="50" relative="1" as="geometry">
            <mxPoint x="330" y="880" as="sourcePoint" />
            <mxPoint x="380" y="830" as="targetPoint" />
            <Array as="points">
              <mxPoint x="365" y="900" />
              <mxPoint x="365" y="840" />
            </Array>
          </mxGeometry>
        </mxCell>
        <mxCell id="hV2kDuYqjvU9eCz-QwMJ-54" value="" style="curved=1;endArrow=classic;html=1;rounded=0;exitX=0.877;exitY=0.921;exitDx=0;exitDy=0;exitPerimeter=0;entryX=1.067;entryY=0.398;entryDx=0;entryDy=0;entryPerimeter=0;shadow=0;" parent="1" source="hV2kDuYqjvU9eCz-QwMJ-52" target="hV2kDuYqjvU9eCz-QwMJ-50" edge="1">
          <mxGeometry width="50" height="50" relative="1" as="geometry">
            <mxPoint x="487" y="905" as="sourcePoint" />
            <mxPoint x="484" y="830" as="targetPoint" />
            <Array as="points">
              <mxPoint x="455" y="905" />
              <mxPoint x="475" y="900" />
              <mxPoint x="485" y="870" />
              <mxPoint x="475" y="830" />
            </Array>
          </mxGeometry>
        </mxCell>
        <mxCell id="hV2kDuYqjvU9eCz-QwMJ-55" value="Опрацювання 5" style="text;html=1;strokeColor=none;fillColor=none;align=center;verticalAlign=middle;whiteSpace=wrap;rounded=0;" parent="1" vertex="1">
          <mxGeometry x="395" y="860" width="60" height="30" as="geometry" />
        </mxCell>
        <mxCell id="hV2kDuYqjvU9eCz-QwMJ-95" style="edgeStyle=orthogonalEdgeStyle;rounded=0;orthogonalLoop=1;jettySize=auto;html=1;entryX=0.5;entryY=0;entryDx=0;entryDy=0;" parent="1" source="hV2kDuYqjvU9eCz-QwMJ-56" target="hV2kDuYqjvU9eCz-QwMJ-92" edge="1">
          <mxGeometry relative="1" as="geometry" />
        </mxCell>
        <mxCell id="hV2kDuYqjvU9eCz-QwMJ-56" value="" style="ellipse;whiteSpace=wrap;html=1;aspect=fixed;" parent="1" vertex="1">
          <mxGeometry x="305" y="920" width="30" height="30" as="geometry" />
        </mxCell>
        <mxCell id="hV2kDuYqjvU9eCz-QwMJ-57" value="" style="rounded=0;whiteSpace=wrap;html=1;gradientColor=none;fillStyle=solid;fillColor=#000000;rotation=0;" parent="1" vertex="1">
          <mxGeometry x="280" y="270" width="80" height="10" as="geometry" />
        </mxCell>
        <mxCell id="hV2kDuYqjvU9eCz-QwMJ-59" style="edgeStyle=orthogonalEdgeStyle;rounded=0;orthogonalLoop=1;jettySize=auto;html=1;entryX=0.511;entryY=-0.126;entryDx=0;entryDy=0;entryPerimeter=0;" parent="1" source="hV2kDuYqjvU9eCz-QwMJ-57" target="hV2kDuYqjvU9eCz-QwMJ-35" edge="1">
          <mxGeometry relative="1" as="geometry" />
        </mxCell>
        <mxCell id="hV2kDuYqjvU9eCz-QwMJ-62" style="edgeStyle=orthogonalEdgeStyle;rounded=0;orthogonalLoop=1;jettySize=auto;html=1;entryX=0.5;entryY=0;entryDx=0;entryDy=0;" parent="1" source="hV2kDuYqjvU9eCz-QwMJ-60" target="hV2kDuYqjvU9eCz-QwMJ-42" edge="1">
          <mxGeometry relative="1" as="geometry" />
        </mxCell>
        <mxCell id="hV2kDuYqjvU9eCz-QwMJ-60" value="" style="rounded=0;whiteSpace=wrap;html=1;gradientColor=none;fillStyle=solid;fillColor=#000000;rotation=0;" parent="1" vertex="1">
          <mxGeometry x="280" y="445" width="80" height="10" as="geometry" />
        </mxCell>
        <mxCell id="hV2kDuYqjvU9eCz-QwMJ-66" style="edgeStyle=orthogonalEdgeStyle;rounded=0;orthogonalLoop=1;jettySize=auto;html=1;entryX=0.5;entryY=0;entryDx=0;entryDy=0;" parent="1" source="hV2kDuYqjvU9eCz-QwMJ-63" target="hV2kDuYqjvU9eCz-QwMJ-49" edge="1">
          <mxGeometry relative="1" as="geometry" />
        </mxCell>
        <mxCell id="hV2kDuYqjvU9eCz-QwMJ-63" value="" style="rounded=0;whiteSpace=wrap;html=1;gradientColor=none;fillStyle=solid;fillColor=#000000;rotation=0;" parent="1" vertex="1">
          <mxGeometry x="280" y="640" width="80" height="10" as="geometry" />
        </mxCell>
        <mxCell id="hV2kDuYqjvU9eCz-QwMJ-70" style="edgeStyle=orthogonalEdgeStyle;rounded=0;orthogonalLoop=1;jettySize=auto;html=1;entryX=0.5;entryY=0;entryDx=0;entryDy=0;" parent="1" source="hV2kDuYqjvU9eCz-QwMJ-67" target="hV2kDuYqjvU9eCz-QwMJ-56" edge="1">
          <mxGeometry relative="1" as="geometry" />
        </mxCell>
        <mxCell id="hV2kDuYqjvU9eCz-QwMJ-67" value="" style="rounded=0;whiteSpace=wrap;html=1;gradientColor=none;fillStyle=solid;fillColor=#000000;rotation=0;" parent="1" vertex="1">
          <mxGeometry x="280" y="830" width="80" height="10" as="geometry" />
        </mxCell>
        <mxCell id="hV2kDuYqjvU9eCz-QwMJ-71" value="Вільний 2" style="text;html=1;strokeColor=none;fillColor=none;align=center;verticalAlign=middle;whiteSpace=wrap;rounded=0;" parent="1" vertex="1">
          <mxGeometry x="440" y="230" width="60" height="30" as="geometry" />
        </mxCell>
        <mxCell id="hV2kDuYqjvU9eCz-QwMJ-72" value="Вільний 3" style="text;html=1;strokeColor=none;fillColor=none;align=center;verticalAlign=middle;whiteSpace=wrap;rounded=0;" parent="1" vertex="1">
          <mxGeometry x="430" y="585" width="60" height="30" as="geometry" />
        </mxCell>
        <mxCell id="hV2kDuYqjvU9eCz-QwMJ-74" value="Вільний 5" style="text;html=1;strokeColor=none;fillColor=none;align=center;verticalAlign=middle;whiteSpace=wrap;rounded=0;" parent="1" vertex="1">
          <mxGeometry x="440" y="800" width="60" height="30" as="geometry" />
        </mxCell>
        <mxCell id="hV2kDuYqjvU9eCz-QwMJ-75" value="t=1" style="text;html=1;strokeColor=none;fillColor=none;align=center;verticalAlign=middle;whiteSpace=wrap;rounded=0;" parent="1" vertex="1">
          <mxGeometry x="245" y="280" width="40" height="20" as="geometry" />
        </mxCell>
        <mxCell id="hV2kDuYqjvU9eCz-QwMJ-76" value="t=1" style="text;html=1;strokeColor=none;fillColor=none;align=center;verticalAlign=middle;whiteSpace=wrap;rounded=0;" parent="1" vertex="1">
          <mxGeometry x="245" y="455" width="40" height="20" as="geometry" />
        </mxCell>
        <mxCell id="hV2kDuYqjvU9eCz-QwMJ-77" value="t=1" style="text;html=1;strokeColor=none;fillColor=none;align=center;verticalAlign=middle;whiteSpace=wrap;rounded=0;" parent="1" vertex="1">
          <mxGeometry x="245" y="650" width="40" height="20" as="geometry" />
        </mxCell>
        <mxCell id="hV2kDuYqjvU9eCz-QwMJ-78" value="t=1" style="text;html=1;strokeColor=none;fillColor=none;align=center;verticalAlign=middle;whiteSpace=wrap;rounded=0;" parent="1" vertex="1">
          <mxGeometry x="245" y="840" width="40" height="20" as="geometry" />
        </mxCell>
        <mxCell id="hV2kDuYqjvU9eCz-QwMJ-79" value="" style="ellipse;whiteSpace=wrap;html=1;aspect=fixed;" parent="1" vertex="1">
          <mxGeometry x="665" y="320" width="30" height="30" as="geometry" />
        </mxCell>
        <mxCell id="hV2kDuYqjvU9eCz-QwMJ-82" value="t=-lnε&amp;nbsp;" style="text;html=1;strokeColor=none;fillColor=none;align=center;verticalAlign=middle;whiteSpace=wrap;rounded=0;" parent="1" vertex="1">
          <mxGeometry x="370" y="220" width="40" height="20" as="geometry" />
        </mxCell>
        <mxCell id="hV2kDuYqjvU9eCz-QwMJ-84" value="ε&amp;nbsp;" style="text;html=1;strokeColor=none;fillColor=none;align=center;verticalAlign=middle;whiteSpace=wrap;rounded=0;shadow=0;" parent="1" vertex="1">
          <mxGeometry x="2363.75" y="22.5" width="20" height="20" as="geometry" />
        </mxCell>
        <mxCell id="hV2kDuYqjvU9eCz-QwMJ-85" value="t=-lnε&amp;nbsp;" style="text;html=1;strokeColor=none;fillColor=none;align=center;verticalAlign=middle;whiteSpace=wrap;rounded=0;" parent="1" vertex="1">
          <mxGeometry x="440" y="390" width="40" height="20" as="geometry" />
        </mxCell>
        <mxCell id="hV2kDuYqjvU9eCz-QwMJ-86" value="t=-lnε&amp;nbsp;" style="text;html=1;strokeColor=none;fillColor=none;align=center;verticalAlign=middle;whiteSpace=wrap;rounded=0;" parent="1" vertex="1">
          <mxGeometry x="440" y="570" width="40" height="20" as="geometry" />
        </mxCell>
        <mxCell id="hV2kDuYqjvU9eCz-QwMJ-87" value="t=-lnε&amp;nbsp;" style="text;html=1;strokeColor=none;fillColor=none;align=center;verticalAlign=middle;whiteSpace=wrap;rounded=0;" parent="1" vertex="1">
          <mxGeometry x="440" y="770" width="40" height="20" as="geometry" />
        </mxCell>
        <mxCell id="hV2kDuYqjvU9eCz-QwMJ-88" value="t=-lnε&amp;nbsp;" style="text;html=1;strokeColor=none;fillColor=none;align=center;verticalAlign=middle;whiteSpace=wrap;rounded=0;" parent="1" vertex="1">
          <mxGeometry x="440" y="960" width="40" height="20" as="geometry" />
        </mxCell>
        <mxCell id="hV2kDuYqjvU9eCz-QwMJ-99" style="edgeStyle=orthogonalEdgeStyle;rounded=0;orthogonalLoop=1;jettySize=auto;html=1;entryX=0;entryY=1;entryDx=0;entryDy=0;elbow=vertical;" parent="1" source="hV2kDuYqjvU9eCz-QwMJ-92" target="hV2kDuYqjvU9eCz-QwMJ-12" edge="1">
          <mxGeometry relative="1" as="geometry">
            <Array as="points">
              <mxPoint x="85" y="935" />
              <mxPoint x="85" y="260" />
              <mxPoint x="309" y="260" />
            </Array>
          </mxGeometry>
        </mxCell>
        <mxCell id="hV2kDuYqjvU9eCz-QwMJ-92" value="" style="rounded=0;whiteSpace=wrap;html=1;gradientColor=none;fillStyle=solid;fillColor=#000000;rotation=90;" parent="1" vertex="1">
          <mxGeometry x="135" y="930" width="80" height="10" as="geometry" />
        </mxCell>
        <mxCell id="hV2kDuYqjvU9eCz-QwMJ-93" value="t = 5" style="text;html=1;strokeColor=none;fillColor=none;align=center;verticalAlign=middle;whiteSpace=wrap;rounded=0;" parent="1" vertex="1">
          <mxGeometry x="155" y="980" width="40" height="20" as="geometry" />
        </mxCell>
        <mxCell id="hV2kDuYqjvU9eCz-QwMJ-100" value="Фінальний підрахунок" style="text;html=1;strokeColor=none;fillColor=none;align=center;verticalAlign=middle;whiteSpace=wrap;rounded=0;" parent="1" vertex="1">
          <mxGeometry x="650" y="275" width="60" height="30" as="geometry" />
        </mxCell>
        <mxCell id="hV2kDuYqjvU9eCz-QwMJ-101" value="&lt;font size=&quot;1&quot; style=&quot;&quot;&gt;&lt;b style=&quot;font-size: 48px;&quot;&gt;Task1&lt;/b&gt;&lt;/font&gt;" style="text;html=1;strokeColor=none;fillColor=none;align=center;verticalAlign=middle;whiteSpace=wrap;rounded=0;" parent="1" vertex="1">
          <mxGeometry x="75" width="165" height="150" as="geometry" />
        </mxCell>
        <mxCell id="hV2kDuYqjvU9eCz-QwMJ-102" value="&lt;font size=&quot;1&quot; style=&quot;&quot;&gt;&lt;b style=&quot;font-size: 48px;&quot;&gt;Task4&lt;br&gt;&lt;/b&gt;&lt;/font&gt;" style="text;html=1;strokeColor=none;fillColor=none;align=center;verticalAlign=middle;whiteSpace=wrap;rounded=0;" parent="1" vertex="1">
          <mxGeometry x="70" y="1265" width="160" height="60" as="geometry" />
        </mxCell>
        <mxCell id="hV2kDuYqjvU9eCz-QwMJ-103" value="" style="ellipse;whiteSpace=wrap;html=1;aspect=fixed;" parent="1" vertex="1">
          <mxGeometry x="90" y="1650" width="30" height="30" as="geometry" />
        </mxCell>
        <mxCell id="hV2kDuYqjvU9eCz-QwMJ-106" style="edgeStyle=orthogonalEdgeStyle;rounded=0;orthogonalLoop=1;jettySize=auto;html=1;entryX=0.5;entryY=0;entryDx=0;entryDy=0;elbow=vertical;" parent="1" source="hV2kDuYqjvU9eCz-QwMJ-104" target="hV2kDuYqjvU9eCz-QwMJ-105" edge="1">
          <mxGeometry relative="1" as="geometry" />
        </mxCell>
        <mxCell id="hV2kDuYqjvU9eCz-QwMJ-104" value="" style="rounded=0;whiteSpace=wrap;html=1;gradientColor=none;fillStyle=solid;fillColor=#000000;rotation=-90;" parent="1" vertex="1">
          <mxGeometry x="265" y="1385" width="80" height="30" as="geometry" />
        </mxCell>
        <mxCell id="hV2kDuYqjvU9eCz-QwMJ-118" style="edgeStyle=orthogonalEdgeStyle;rounded=0;orthogonalLoop=1;jettySize=auto;html=1;entryX=0.5;entryY=0;entryDx=0;entryDy=0;elbow=vertical;" parent="1" source="hV2kDuYqjvU9eCz-QwMJ-105" target="hV2kDuYqjvU9eCz-QwMJ-115" edge="1">
          <mxGeometry relative="1" as="geometry">
            <Array as="points">
              <mxPoint x="350" y="1665" />
            </Array>
          </mxGeometry>
        </mxCell>
        <mxCell id="hV2kDuYqjvU9eCz-QwMJ-122" style="edgeStyle=orthogonalEdgeStyle;rounded=0;orthogonalLoop=1;jettySize=auto;html=1;entryX=0.5;entryY=1;entryDx=0;entryDy=0;elbow=vertical;" parent="1" source="hV2kDuYqjvU9eCz-QwMJ-105" target="hV2kDuYqjvU9eCz-QwMJ-121" edge="1">
          <mxGeometry relative="1" as="geometry">
            <Array as="points">
              <mxPoint x="350" y="1665" />
            </Array>
          </mxGeometry>
        </mxCell>
        <mxCell id="hV2kDuYqjvU9eCz-QwMJ-126" style="edgeStyle=orthogonalEdgeStyle;rounded=0;orthogonalLoop=1;jettySize=auto;html=1;entryX=0.5;entryY=0;entryDx=0;entryDy=0;elbow=vertical;" parent="1" source="hV2kDuYqjvU9eCz-QwMJ-105" target="hV2kDuYqjvU9eCz-QwMJ-125" edge="1">
          <mxGeometry relative="1" as="geometry" />
        </mxCell>
        <mxCell id="hV2kDuYqjvU9eCz-QwMJ-105" value="" style="ellipse;whiteSpace=wrap;html=1;aspect=fixed;" parent="1" vertex="1">
          <mxGeometry x="335" y="1520" width="30" height="30" as="geometry" />
        </mxCell>
        <mxCell id="hV2kDuYqjvU9eCz-QwMJ-108" style="edgeStyle=orthogonalEdgeStyle;rounded=0;orthogonalLoop=1;jettySize=auto;html=1;entryX=0;entryY=0.5;entryDx=0;entryDy=0;elbow=vertical;" parent="1" source="hV2kDuYqjvU9eCz-QwMJ-107" target="hV2kDuYqjvU9eCz-QwMJ-105" edge="1">
          <mxGeometry relative="1" as="geometry" />
        </mxCell>
        <mxCell id="hV2kDuYqjvU9eCz-QwMJ-111" style="edgeStyle=orthogonalEdgeStyle;rounded=0;orthogonalLoop=1;jettySize=auto;html=1;entryX=1;entryY=0.5;entryDx=0;entryDy=0;elbow=vertical;" parent="1" edge="1">
          <mxGeometry relative="1" as="geometry">
            <mxPoint x="245" y="1540" as="sourcePoint" />
            <mxPoint x="189.99999999999864" y="1540" as="targetPoint" />
          </mxGeometry>
        </mxCell>
        <mxCell id="hV2kDuYqjvU9eCz-QwMJ-107" value="" style="rounded=0;whiteSpace=wrap;html=1;gradientColor=none;fillStyle=solid;fillColor=#000000;rotation=90;" parent="1" vertex="1">
          <mxGeometry x="210" y="1530" width="80" height="10" as="geometry" />
        </mxCell>
        <mxCell id="hV2kDuYqjvU9eCz-QwMJ-110" style="edgeStyle=orthogonalEdgeStyle;rounded=0;orthogonalLoop=1;jettySize=auto;html=1;entryX=0.5;entryY=1;entryDx=0;entryDy=0;elbow=vertical;" parent="1" edge="1">
          <mxGeometry relative="1" as="geometry">
            <mxPoint x="190" y="1530" as="sourcePoint" />
            <mxPoint x="245" y="1530" as="targetPoint" />
          </mxGeometry>
        </mxCell>
        <mxCell id="hV2kDuYqjvU9eCz-QwMJ-109" value="1" style="ellipse;whiteSpace=wrap;html=1;aspect=fixed;" parent="1" vertex="1">
          <mxGeometry x="160" y="1520" width="30" height="30" as="geometry" />
        </mxCell>
        <mxCell id="hV2kDuYqjvU9eCz-QwMJ-112" value="t = -0.2lnε&amp;nbsp;" style="text;html=1;strokeColor=none;fillColor=none;align=center;verticalAlign=middle;whiteSpace=wrap;rounded=0;" parent="1" vertex="1">
          <mxGeometry x="220" y="1580" width="60" height="20" as="geometry" />
        </mxCell>
        <mxCell id="hV2kDuYqjvU9eCz-QwMJ-113" value="Надходження в магазин" style="text;html=1;strokeColor=none;fillColor=none;align=center;verticalAlign=middle;whiteSpace=wrap;rounded=0;" parent="1" vertex="1">
          <mxGeometry x="220" y="1460" width="60" height="30" as="geometry" />
        </mxCell>
        <mxCell id="hV2kDuYqjvU9eCz-QwMJ-114" value="Повторна спроба купити" style="text;html=1;strokeColor=none;fillColor=none;align=center;verticalAlign=middle;whiteSpace=wrap;rounded=0;" parent="1" vertex="1">
          <mxGeometry x="325" y="1360" width="100" height="30" as="geometry" />
        </mxCell>
        <mxCell id="hV2kDuYqjvU9eCz-QwMJ-116" style="edgeStyle=orthogonalEdgeStyle;rounded=0;orthogonalLoop=1;jettySize=auto;html=1;entryX=1;entryY=0.5;entryDx=0;entryDy=0;elbow=vertical;" parent="1" source="hV2kDuYqjvU9eCz-QwMJ-115" target="hV2kDuYqjvU9eCz-QwMJ-103" edge="1">
          <mxGeometry relative="1" as="geometry" />
        </mxCell>
        <mxCell id="hV2kDuYqjvU9eCz-QwMJ-115" value="" style="rounded=0;whiteSpace=wrap;html=1;gradientColor=none;fillStyle=solid;fillColor=#000000;rotation=90;" parent="1" vertex="1">
          <mxGeometry x="205" y="1655" width="80" height="20" as="geometry" />
        </mxCell>
        <mxCell id="hV2kDuYqjvU9eCz-QwMJ-117" value="Кількість втрачених покупців" style="text;html=1;strokeColor=none;fillColor=none;align=center;verticalAlign=middle;whiteSpace=wrap;rounded=0;" parent="1" vertex="1">
          <mxGeometry x="47.5" y="1610" width="115" height="30" as="geometry" />
        </mxCell>
        <mxCell id="hV2kDuYqjvU9eCz-QwMJ-119" value="Перехід в інший магазин" style="text;html=1;strokeColor=none;fillColor=none;align=center;verticalAlign=middle;whiteSpace=wrap;rounded=0;" parent="1" vertex="1">
          <mxGeometry x="200" y="1710" width="100" height="30" as="geometry" />
        </mxCell>
        <mxCell id="hV2kDuYqjvU9eCz-QwMJ-120" value="0.8" style="text;html=1;strokeColor=none;fillColor=none;align=center;verticalAlign=middle;whiteSpace=wrap;rounded=0;" parent="1" vertex="1">
          <mxGeometry x="285" y="1640" width="60" height="20" as="geometry" />
        </mxCell>
        <mxCell id="hV2kDuYqjvU9eCz-QwMJ-128" style="edgeStyle=orthogonalEdgeStyle;rounded=0;orthogonalLoop=1;jettySize=auto;html=1;entryX=0;entryY=0.5;entryDx=0;entryDy=0;elbow=vertical;" parent="1" source="hV2kDuYqjvU9eCz-QwMJ-121" target="hV2kDuYqjvU9eCz-QwMJ-127" edge="1">
          <mxGeometry relative="1" as="geometry" />
        </mxCell>
        <mxCell id="hV2kDuYqjvU9eCz-QwMJ-137" style="edgeStyle=orthogonalEdgeStyle;rounded=0;orthogonalLoop=1;jettySize=auto;html=1;entryX=0;entryY=0.5;entryDx=0;entryDy=0;elbow=vertical;" parent="1" source="hV2kDuYqjvU9eCz-QwMJ-121" target="hV2kDuYqjvU9eCz-QwMJ-131" edge="1">
          <mxGeometry relative="1" as="geometry">
            <Array as="points">
              <mxPoint x="560" y="1665" />
              <mxPoint x="560" y="1600" />
            </Array>
          </mxGeometry>
        </mxCell>
        <mxCell id="hV2kDuYqjvU9eCz-QwMJ-121" value="" style="rounded=0;whiteSpace=wrap;html=1;gradientColor=none;fillStyle=solid;fillColor=#000000;rotation=90;" parent="1" vertex="1">
          <mxGeometry x="450" y="1660" width="80" height="10" as="geometry" />
        </mxCell>
        <mxCell id="hV2kDuYqjvU9eCz-QwMJ-123" value="0.2" style="text;html=1;strokeColor=none;fillColor=none;align=center;verticalAlign=middle;whiteSpace=wrap;rounded=0;" parent="1" vertex="1">
          <mxGeometry x="360" y="1640" width="60" height="20" as="geometry" />
        </mxCell>
        <mxCell id="hV2kDuYqjvU9eCz-QwMJ-124" value="Покупець в магазині" style="text;html=1;strokeColor=none;fillColor=none;align=center;verticalAlign=middle;whiteSpace=wrap;rounded=0;" parent="1" vertex="1">
          <mxGeometry x="360" y="1560" width="60" height="30" as="geometry" />
        </mxCell>
        <mxCell id="hV2kDuYqjvU9eCz-QwMJ-130" style="edgeStyle=orthogonalEdgeStyle;rounded=0;orthogonalLoop=1;jettySize=auto;html=1;entryX=0;entryY=0.5;entryDx=0;entryDy=0;elbow=vertical;" parent="1" source="hV2kDuYqjvU9eCz-QwMJ-125" target="hV2kDuYqjvU9eCz-QwMJ-129" edge="1">
          <mxGeometry relative="1" as="geometry" />
        </mxCell>
        <mxCell id="hV2kDuYqjvU9eCz-QwMJ-136" style="edgeStyle=orthogonalEdgeStyle;rounded=0;orthogonalLoop=1;jettySize=auto;html=1;entryX=0;entryY=0.5;entryDx=0;entryDy=0;elbow=vertical;" parent="1" source="hV2kDuYqjvU9eCz-QwMJ-125" target="hV2kDuYqjvU9eCz-QwMJ-131" edge="1">
          <mxGeometry relative="1" as="geometry">
            <Array as="points">
              <mxPoint x="560" y="1535" />
              <mxPoint x="560" y="1600" />
            </Array>
          </mxGeometry>
        </mxCell>
        <mxCell id="hV2kDuYqjvU9eCz-QwMJ-125" value="" style="rounded=0;whiteSpace=wrap;html=1;gradientColor=none;fillStyle=solid;fillColor=#000000;rotation=-90;" parent="1" vertex="1">
          <mxGeometry x="440" y="1525" width="80" height="20" as="geometry" />
        </mxCell>
        <mxCell id="hV2kDuYqjvU9eCz-QwMJ-132" style="edgeStyle=orthogonalEdgeStyle;rounded=0;orthogonalLoop=1;jettySize=auto;html=1;entryX=0.5;entryY=0;entryDx=0;entryDy=0;elbow=vertical;" parent="1" source="hV2kDuYqjvU9eCz-QwMJ-127" target="hV2kDuYqjvU9eCz-QwMJ-104" edge="1">
          <mxGeometry relative="1" as="geometry">
            <Array as="points">
              <mxPoint x="710" y="1665" />
              <mxPoint x="710" y="1780" />
              <mxPoint x="30" y="1780" />
              <mxPoint x="30" y="1400" />
            </Array>
          </mxGeometry>
        </mxCell>
        <mxCell id="hV2kDuYqjvU9eCz-QwMJ-127" value="" style="ellipse;whiteSpace=wrap;html=1;aspect=fixed;" parent="1" vertex="1">
          <mxGeometry x="645" y="1650" width="30" height="30" as="geometry" />
        </mxCell>
        <mxCell id="hV2kDuYqjvU9eCz-QwMJ-129" value="" style="ellipse;whiteSpace=wrap;html=1;aspect=fixed;" parent="1" vertex="1">
          <mxGeometry x="645" y="1520" width="30" height="30" as="geometry" />
        </mxCell>
        <mxCell id="hV2kDuYqjvU9eCz-QwMJ-140" style="edgeStyle=orthogonalEdgeStyle;rounded=0;orthogonalLoop=1;jettySize=auto;html=1;entryX=0.25;entryY=1;entryDx=0;entryDy=0;elbow=vertical;" parent="1" edge="1">
          <mxGeometry relative="1" as="geometry">
            <mxPoint x="815" y="1600" as="sourcePoint" />
            <mxPoint x="815" y="1375" as="targetPoint" />
            <Array as="points">
              <mxPoint x="835" y="1600" />
              <mxPoint x="835" y="1375" />
            </Array>
          </mxGeometry>
        </mxCell>
        <mxCell id="hV2kDuYqjvU9eCz-QwMJ-131" value="" style="ellipse;whiteSpace=wrap;html=1;aspect=fixed;" parent="1" vertex="1">
          <mxGeometry x="785" y="1585" width="30" height="30" as="geometry" />
        </mxCell>
        <mxCell id="hV2kDuYqjvU9eCz-QwMJ-133" value="Йде в чергу на отримання" style="text;html=1;strokeColor=none;fillColor=none;align=center;verticalAlign=middle;whiteSpace=wrap;rounded=0;" parent="1" vertex="1">
          <mxGeometry x="440" y="1710" width="100" height="30" as="geometry" />
        </mxCell>
        <mxCell id="hV2kDuYqjvU9eCz-QwMJ-134" value="Черга на майбутнє&lt;br&gt;" style="text;html=1;strokeColor=none;fillColor=none;align=center;verticalAlign=middle;whiteSpace=wrap;rounded=0;" parent="1" vertex="1">
          <mxGeometry x="610" y="1690" width="100" height="30" as="geometry" />
        </mxCell>
        <mxCell id="hV2kDuYqjvU9eCz-QwMJ-135" value="Куплені&lt;br&gt;холодильники" style="text;html=1;strokeColor=none;fillColor=none;align=center;verticalAlign=middle;whiteSpace=wrap;rounded=0;" parent="1" vertex="1">
          <mxGeometry x="610" y="1480" width="100" height="30" as="geometry" />
        </mxCell>
        <mxCell id="hV2kDuYqjvU9eCz-QwMJ-138" value="Кількість, що треба замовить" style="text;html=1;strokeColor=none;fillColor=none;align=center;verticalAlign=middle;whiteSpace=wrap;rounded=0;" parent="1" vertex="1">
          <mxGeometry x="750" y="1620" width="100" height="30" as="geometry" />
        </mxCell>
        <mxCell id="hV2kDuYqjvU9eCz-QwMJ-145" style="edgeStyle=orthogonalEdgeStyle;rounded=0;orthogonalLoop=1;jettySize=auto;html=1;entryX=1;entryY=1;entryDx=0;entryDy=0;elbow=vertical;" parent="1" source="hV2kDuYqjvU9eCz-QwMJ-139" target="hV2kDuYqjvU9eCz-QwMJ-144" edge="1">
          <mxGeometry relative="1" as="geometry">
            <Array as="points">
              <mxPoint x="683" y="1355" />
              <mxPoint x="683" y="1400" />
            </Array>
          </mxGeometry>
        </mxCell>
        <mxCell id="hV2kDuYqjvU9eCz-QwMJ-139" value="" style="rounded=0;whiteSpace=wrap;html=1;gradientColor=none;fillStyle=solid;fillColor=#000000;rotation=-90;" parent="1" vertex="1">
          <mxGeometry x="760" y="1340" width="80" height="30" as="geometry" />
        </mxCell>
        <mxCell id="hV2kDuYqjvU9eCz-QwMJ-141" value="Погрузка товарів" style="text;html=1;strokeColor=none;fillColor=none;align=center;verticalAlign=middle;whiteSpace=wrap;rounded=0;" parent="1" vertex="1">
          <mxGeometry x="750" y="1280" width="100" height="30" as="geometry" />
        </mxCell>
        <mxCell id="hV2kDuYqjvU9eCz-QwMJ-142" value="Продаж холодильника" style="text;html=1;strokeColor=none;fillColor=none;align=center;verticalAlign=middle;whiteSpace=wrap;rounded=0;" parent="1" vertex="1">
          <mxGeometry x="460" y="1460" width="100" height="30" as="geometry" />
        </mxCell>
        <mxCell id="hV2kDuYqjvU9eCz-QwMJ-146" style="edgeStyle=orthogonalEdgeStyle;rounded=0;orthogonalLoop=1;jettySize=auto;html=1;entryX=0.75;entryY=0;entryDx=0;entryDy=0;elbow=vertical;" parent="1" source="hV2kDuYqjvU9eCz-QwMJ-143" target="hV2kDuYqjvU9eCz-QwMJ-125" edge="1">
          <mxGeometry relative="1" as="geometry" />
        </mxCell>
        <mxCell id="hV2kDuYqjvU9eCz-QwMJ-147" style="edgeStyle=orthogonalEdgeStyle;rounded=0;orthogonalLoop=1;jettySize=auto;html=1;entryX=0.75;entryY=0;entryDx=0;entryDy=0;elbow=vertical;dashed=1;" parent="1" source="hV2kDuYqjvU9eCz-QwMJ-143" target="hV2kDuYqjvU9eCz-QwMJ-104" edge="1">
          <mxGeometry relative="1" as="geometry">
            <Array as="points">
              <mxPoint x="558" y="1340" />
              <mxPoint x="270" y="1340" />
              <mxPoint x="270" y="1380" />
            </Array>
          </mxGeometry>
        </mxCell>
        <mxCell id="hV2kDuYqjvU9eCz-QwMJ-176" style="edgeStyle=orthogonalEdgeStyle;rounded=0;orthogonalLoop=1;jettySize=auto;html=1;entryX=0.5;entryY=0;entryDx=0;entryDy=0;elbow=vertical;dashed=1;" parent="1" source="hV2kDuYqjvU9eCz-QwMJ-143" target="hV2kDuYqjvU9eCz-QwMJ-171" edge="1">
          <mxGeometry relative="1" as="geometry">
            <Array as="points">
              <mxPoint x="558" y="1150" />
            </Array>
          </mxGeometry>
        </mxCell>
        <mxCell id="hV2kDuYqjvU9eCz-QwMJ-177" value="&lt;font style=&quot;font-size: 24px;&quot;&gt;/&lt;/font&gt;" style="edgeLabel;html=1;align=center;verticalAlign=middle;resizable=0;points=[];" parent="hV2kDuYqjvU9eCz-QwMJ-176" vertex="1" connectable="0">
          <mxGeometry x="0.2661" y="1" relative="1" as="geometry">
            <mxPoint as="offset" />
          </mxGeometry>
        </mxCell>
        <mxCell id="hV2kDuYqjvU9eCz-QwMJ-143" value="72" style="ellipse;whiteSpace=wrap;html=1;aspect=fixed;" parent="1" vertex="1">
          <mxGeometry x="535" y="1377.5" width="45" height="45" as="geometry" />
        </mxCell>
        <mxCell id="hV2kDuYqjvU9eCz-QwMJ-144" value="Запас" style="text;html=1;strokeColor=none;fillColor=none;align=center;verticalAlign=middle;whiteSpace=wrap;rounded=0;" parent="1" vertex="1">
          <mxGeometry x="460" y="1370" width="100" height="30" as="geometry" />
        </mxCell>
        <mxCell id="hV2kDuYqjvU9eCz-QwMJ-150" style="edgeStyle=orthogonalEdgeStyle;rounded=0;orthogonalLoop=1;jettySize=auto;html=1;entryX=0.5;entryY=1;entryDx=0;entryDy=0;elbow=vertical;dashed=1;" parent="1" source="hV2kDuYqjvU9eCz-QwMJ-148" target="hV2kDuYqjvU9eCz-QwMJ-139" edge="1">
          <mxGeometry relative="1" as="geometry" />
        </mxCell>
        <mxCell id="hV2kDuYqjvU9eCz-QwMJ-154" style="edgeStyle=orthogonalEdgeStyle;rounded=0;orthogonalLoop=1;jettySize=auto;html=1;entryX=0.5;entryY=0;entryDx=0;entryDy=0;elbow=vertical;" parent="1" source="hV2kDuYqjvU9eCz-QwMJ-148" target="hV2kDuYqjvU9eCz-QwMJ-151" edge="1">
          <mxGeometry relative="1" as="geometry">
            <Array as="points">
              <mxPoint x="985" y="1505" />
            </Array>
          </mxGeometry>
        </mxCell>
        <mxCell id="hV2kDuYqjvU9eCz-QwMJ-148" value="" style="ellipse;whiteSpace=wrap;html=1;aspect=fixed;" parent="1" vertex="1">
          <mxGeometry x="970" y="1340" width="30" height="30" as="geometry" />
        </mxCell>
        <mxCell id="hV2kDuYqjvU9eCz-QwMJ-149" value="Товари доставлено" style="text;html=1;strokeColor=none;fillColor=none;align=center;verticalAlign=middle;whiteSpace=wrap;rounded=0;" parent="1" vertex="1">
          <mxGeometry x="935" y="1300" width="100" height="30" as="geometry" />
        </mxCell>
        <mxCell id="hV2kDuYqjvU9eCz-QwMJ-158" style="edgeStyle=orthogonalEdgeStyle;rounded=0;orthogonalLoop=1;jettySize=auto;html=1;entryX=0;entryY=0.5;entryDx=0;entryDy=0;elbow=vertical;" parent="1" source="hV2kDuYqjvU9eCz-QwMJ-151" target="hV2kDuYqjvU9eCz-QwMJ-157" edge="1">
          <mxGeometry relative="1" as="geometry" />
        </mxCell>
        <mxCell id="hV2kDuYqjvU9eCz-QwMJ-151" value="" style="rounded=0;whiteSpace=wrap;html=1;gradientColor=none;fillStyle=solid;fillColor=#000000;rotation=-90;" parent="1" vertex="1">
          <mxGeometry x="1035" y="1490" width="80" height="30" as="geometry" />
        </mxCell>
        <mxCell id="hV2kDuYqjvU9eCz-QwMJ-153" style="edgeStyle=orthogonalEdgeStyle;rounded=0;orthogonalLoop=1;jettySize=auto;html=1;entryX=1;entryY=0.5;entryDx=0;entryDy=0;elbow=vertical;" parent="1" source="hV2kDuYqjvU9eCz-QwMJ-152" target="hV2kDuYqjvU9eCz-QwMJ-148" edge="1">
          <mxGeometry relative="1" as="geometry" />
        </mxCell>
        <mxCell id="hV2kDuYqjvU9eCz-QwMJ-152" value="" style="rounded=0;whiteSpace=wrap;html=1;gradientColor=none;fillStyle=solid;fillColor=#000000;rotation=90;" parent="1" vertex="1">
          <mxGeometry x="1035" y="1350" width="80" height="10" as="geometry" />
        </mxCell>
        <mxCell id="hV2kDuYqjvU9eCz-QwMJ-155" value="Доставка товарів" style="text;html=1;strokeColor=none;fillColor=none;align=center;verticalAlign=middle;whiteSpace=wrap;rounded=0;" parent="1" vertex="1">
          <mxGeometry x="1025" y="1280" width="100" height="30" as="geometry" />
        </mxCell>
        <mxCell id="hV2kDuYqjvU9eCz-QwMJ-156" value="t = 3" style="text;html=1;strokeColor=none;fillColor=none;align=center;verticalAlign=middle;whiteSpace=wrap;rounded=0;" parent="1" vertex="1">
          <mxGeometry x="1045" y="1400" width="60" height="20" as="geometry" />
        </mxCell>
        <mxCell id="hV2kDuYqjvU9eCz-QwMJ-157" value="" style="ellipse;whiteSpace=wrap;html=1;aspect=fixed;" parent="1" vertex="1">
          <mxGeometry x="1150" y="1490" width="30" height="30" as="geometry" />
        </mxCell>
        <mxCell id="hV2kDuYqjvU9eCz-QwMJ-160" style="edgeStyle=orthogonalEdgeStyle;rounded=0;orthogonalLoop=1;jettySize=auto;html=1;entryX=0.5;entryY=0;entryDx=0;entryDy=0;elbow=vertical;" parent="1" source="hV2kDuYqjvU9eCz-QwMJ-159" target="hV2kDuYqjvU9eCz-QwMJ-152" edge="1">
          <mxGeometry relative="1" as="geometry" />
        </mxCell>
        <mxCell id="hV2kDuYqjvU9eCz-QwMJ-172" style="edgeStyle=orthogonalEdgeStyle;rounded=0;orthogonalLoop=1;jettySize=auto;html=1;entryX=0.25;entryY=0;entryDx=0;entryDy=0;elbow=vertical;" parent="1" source="hV2kDuYqjvU9eCz-QwMJ-159" target="hV2kDuYqjvU9eCz-QwMJ-171" edge="1">
          <mxGeometry relative="1" as="geometry">
            <Array as="points">
              <mxPoint x="1165" y="1170" />
            </Array>
          </mxGeometry>
        </mxCell>
        <mxCell id="hV2kDuYqjvU9eCz-QwMJ-159" value="" style="ellipse;whiteSpace=wrap;html=1;aspect=fixed;" parent="1" vertex="1">
          <mxGeometry x="1150" y="1340" width="30" height="30" as="geometry" />
        </mxCell>
        <mxCell id="hV2kDuYqjvU9eCz-QwMJ-162" style="edgeStyle=orthogonalEdgeStyle;rounded=0;orthogonalLoop=1;jettySize=auto;html=1;entryX=1;entryY=0.5;entryDx=0;entryDy=0;elbow=vertical;" parent="1" source="hV2kDuYqjvU9eCz-QwMJ-161" target="hV2kDuYqjvU9eCz-QwMJ-159" edge="1">
          <mxGeometry relative="1" as="geometry" />
        </mxCell>
        <mxCell id="hV2kDuYqjvU9eCz-QwMJ-170" style="edgeStyle=orthogonalEdgeStyle;rounded=0;orthogonalLoop=1;jettySize=auto;html=1;entryX=0;entryY=0.5;entryDx=0;entryDy=0;elbow=vertical;" parent="1" edge="1">
          <mxGeometry relative="1" as="geometry">
            <mxPoint x="1264.9999999999995" y="1359.46" as="sourcePoint" />
            <mxPoint x="1310.0000000000355" y="1359.46" as="targetPoint" />
          </mxGeometry>
        </mxCell>
        <mxCell id="hV2kDuYqjvU9eCz-QwMJ-161" value="" style="rounded=0;whiteSpace=wrap;html=1;gradientColor=none;fillStyle=solid;fillColor=#000000;rotation=90;" parent="1" vertex="1">
          <mxGeometry x="1220" y="1350" width="80" height="10" as="geometry" />
        </mxCell>
        <mxCell id="hV2kDuYqjvU9eCz-QwMJ-163" value="t = 4" style="text;html=1;strokeColor=none;fillColor=none;align=center;verticalAlign=middle;whiteSpace=wrap;rounded=0;" parent="1" vertex="1">
          <mxGeometry x="1230" y="1400" width="60" height="20" as="geometry" />
        </mxCell>
        <mxCell id="hV2kDuYqjvU9eCz-QwMJ-164" value="Перевірка запасів" style="text;html=1;strokeColor=none;fillColor=none;align=center;verticalAlign=middle;whiteSpace=wrap;rounded=0;" parent="1" vertex="1">
          <mxGeometry x="1210" y="1280" width="100" height="30" as="geometry" />
        </mxCell>
        <mxCell id="hV2kDuYqjvU9eCz-QwMJ-169" style="edgeStyle=orthogonalEdgeStyle;rounded=0;orthogonalLoop=1;jettySize=auto;html=1;entryX=0.5;entryY=0;entryDx=0;entryDy=0;elbow=vertical;" parent="1" edge="1">
          <mxGeometry relative="1" as="geometry">
            <mxPoint x="1309.9999999999995" y="1350" as="sourcePoint" />
            <mxPoint x="1264.9999999999995" y="1350" as="targetPoint" />
          </mxGeometry>
        </mxCell>
        <mxCell id="hV2kDuYqjvU9eCz-QwMJ-168" value="1" style="ellipse;whiteSpace=wrap;html=1;aspect=fixed;" parent="1" vertex="1">
          <mxGeometry x="1310" y="1340" width="30" height="30" as="geometry" />
        </mxCell>
        <mxCell id="hV2kDuYqjvU9eCz-QwMJ-174" style="edgeStyle=orthogonalEdgeStyle;rounded=0;orthogonalLoop=1;jettySize=auto;html=1;entryX=0;entryY=0.5;entryDx=0;entryDy=0;elbow=vertical;" parent="1" source="hV2kDuYqjvU9eCz-QwMJ-171" target="hV2kDuYqjvU9eCz-QwMJ-173" edge="1">
          <mxGeometry relative="1" as="geometry" />
        </mxCell>
        <mxCell id="hV2kDuYqjvU9eCz-QwMJ-171" value="" style="rounded=0;whiteSpace=wrap;html=1;gradientColor=none;fillStyle=solid;fillColor=#000000;rotation=-90;" parent="1" vertex="1">
          <mxGeometry x="1160" y="1140" width="80" height="20" as="geometry" />
        </mxCell>
        <mxCell id="hV2kDuYqjvU9eCz-QwMJ-173" value="" style="ellipse;whiteSpace=wrap;html=1;aspect=fixed;" parent="1" vertex="1">
          <mxGeometry x="1310" y="1135" width="30" height="30" as="geometry" />
        </mxCell>
        <mxCell id="hV2kDuYqjvU9eCz-QwMJ-175" value="Переглядання запасів не треба" style="text;html=1;strokeColor=none;fillColor=none;align=center;verticalAlign=middle;whiteSpace=wrap;rounded=0;" parent="1" vertex="1">
          <mxGeometry x="1150" y="1075" width="100" height="30" as="geometry" />
        </mxCell>
        <mxCell id="hV2kDuYqjvU9eCz-QwMJ-178" value="19" style="text;html=1;strokeColor=none;fillColor=none;align=center;verticalAlign=middle;whiteSpace=wrap;rounded=0;" parent="1" vertex="1">
          <mxGeometry x="827" y="1105" width="100" height="30" as="geometry" />
        </mxCell>
        <mxCell id="hV2kDuYqjvU9eCz-QwMJ-180" value="&lt;font size=&quot;1&quot; style=&quot;&quot;&gt;&lt;b style=&quot;font-size: 48px;&quot;&gt;Task2-1&lt;br&gt;&lt;/b&gt;&lt;/font&gt;" style="text;html=1;strokeColor=none;fillColor=none;align=center;verticalAlign=middle;whiteSpace=wrap;rounded=0;" parent="1" vertex="1">
          <mxGeometry x="960" y="10" width="210" height="70" as="geometry" />
        </mxCell>
        <mxCell id="hV2kDuYqjvU9eCz-QwMJ-181" value="" style="rounded=0;whiteSpace=wrap;html=1;gradientColor=none;fillStyle=solid;fillColor=#000000;rotation=0;" parent="1" vertex="1">
          <mxGeometry x="2303.75" y="-72.5" width="80" height="30" as="geometry" />
        </mxCell>
        <mxCell id="hV2kDuYqjvU9eCz-QwMJ-185" style="edgeStyle=orthogonalEdgeStyle;rounded=0;orthogonalLoop=1;jettySize=auto;html=1;entryX=1;entryY=0.5;entryDx=0;entryDy=0;elbow=vertical;" parent="1" edge="1">
          <mxGeometry relative="1" as="geometry">
            <mxPoint x="1105" y="189.53" as="sourcePoint" />
            <mxPoint x="1035.0000000000114" y="189.53" as="targetPoint" />
          </mxGeometry>
        </mxCell>
        <mxCell id="hV2kDuYqjvU9eCz-QwMJ-190" style="edgeStyle=orthogonalEdgeStyle;rounded=0;orthogonalLoop=1;jettySize=auto;html=1;entryX=0;entryY=0.5;entryDx=0;entryDy=0;elbow=vertical;" parent="1" source="hV2kDuYqjvU9eCz-QwMJ-182" target="hV2kDuYqjvU9eCz-QwMJ-189" edge="1">
          <mxGeometry relative="1" as="geometry" />
        </mxCell>
        <mxCell id="hV2kDuYqjvU9eCz-QwMJ-182" value="" style="rounded=0;whiteSpace=wrap;html=1;gradientColor=none;fillStyle=solid;fillColor=#000000;rotation=90;" parent="1" vertex="1">
          <mxGeometry x="1070" y="180" width="80" height="10" as="geometry" />
        </mxCell>
        <mxCell id="hV2kDuYqjvU9eCz-QwMJ-186" value="" style="ellipse;whiteSpace=wrap;html=1;aspect=fixed;" parent="1" vertex="1">
          <mxGeometry x="2333.75" y="-117.5" width="30" height="30" as="geometry" />
        </mxCell>
        <mxCell id="hV2kDuYqjvU9eCz-QwMJ-187" value="t=-40lnε&amp;nbsp;" style="text;html=1;strokeColor=none;fillColor=none;align=center;verticalAlign=middle;whiteSpace=wrap;rounded=0;" parent="1" vertex="1">
          <mxGeometry x="1080" y="230" width="60" height="30" as="geometry" />
        </mxCell>
        <mxCell id="hV2kDuYqjvU9eCz-QwMJ-194" style="edgeStyle=orthogonalEdgeStyle;rounded=0;orthogonalLoop=1;jettySize=auto;html=1;entryX=0.5;entryY=1;entryDx=0;entryDy=0;elbow=vertical;" parent="1" source="hV2kDuYqjvU9eCz-QwMJ-189" target="hV2kDuYqjvU9eCz-QwMJ-192" edge="1">
          <mxGeometry relative="1" as="geometry" />
        </mxCell>
        <mxCell id="hV2kDuYqjvU9eCz-QwMJ-189" value="" style="ellipse;whiteSpace=wrap;html=1;aspect=fixed;" parent="1" vertex="1">
          <mxGeometry x="1200" y="170" width="30" height="30" as="geometry" />
        </mxCell>
        <mxCell id="hV2kDuYqjvU9eCz-QwMJ-191" value="Пункт прибуття" style="text;html=1;strokeColor=none;fillColor=none;align=center;verticalAlign=middle;whiteSpace=wrap;rounded=0;" parent="1" vertex="1">
          <mxGeometry x="1185" y="130" width="60" height="30" as="geometry" />
        </mxCell>
        <mxCell id="hV2kDuYqjvU9eCz-QwMJ-205" style="edgeStyle=orthogonalEdgeStyle;rounded=0;orthogonalLoop=1;jettySize=auto;html=1;entryX=0;entryY=0.5;entryDx=0;entryDy=0;elbow=vertical;" parent="1" source="hV2kDuYqjvU9eCz-QwMJ-192" target="hV2kDuYqjvU9eCz-QwMJ-199" edge="1">
          <mxGeometry relative="1" as="geometry" />
        </mxCell>
        <mxCell id="hV2kDuYqjvU9eCz-QwMJ-192" value="" style="rounded=0;whiteSpace=wrap;html=1;gradientColor=none;fillStyle=solid;fillColor=#000000;rotation=90;" parent="1" vertex="1">
          <mxGeometry x="1290" y="180" width="80" height="10" as="geometry" />
        </mxCell>
        <mxCell id="hV2kDuYqjvU9eCz-QwMJ-197" style="edgeStyle=orthogonalEdgeStyle;rounded=0;orthogonalLoop=1;jettySize=auto;html=1;entryX=0.25;entryY=1;entryDx=0;entryDy=0;elbow=vertical;curved=1;" parent="1" source="hV2kDuYqjvU9eCz-QwMJ-193" target="hV2kDuYqjvU9eCz-QwMJ-192" edge="1">
          <mxGeometry relative="1" as="geometry">
            <Array as="points">
              <mxPoint x="1270" y="100" />
              <mxPoint x="1270" y="165" />
            </Array>
          </mxGeometry>
        </mxCell>
        <mxCell id="hV2kDuYqjvU9eCz-QwMJ-193" value="1" style="ellipse;whiteSpace=wrap;html=1;aspect=fixed;" parent="1" vertex="1">
          <mxGeometry x="1315" y="80" width="30" height="30" as="geometry" />
        </mxCell>
        <mxCell id="hV2kDuYqjvU9eCz-QwMJ-195" value="t=7+2*ε&amp;nbsp;" style="text;html=1;strokeColor=none;fillColor=none;align=center;verticalAlign=middle;whiteSpace=wrap;rounded=0;" parent="1" vertex="1">
          <mxGeometry x="1300" y="230" width="60" height="30" as="geometry" />
        </mxCell>
        <mxCell id="hV2kDuYqjvU9eCz-QwMJ-196" value="Захоплення 1" style="text;html=1;strokeColor=none;fillColor=none;align=center;verticalAlign=middle;whiteSpace=wrap;rounded=0;" parent="1" vertex="1">
          <mxGeometry x="1300" y="110" width="80" height="30" as="geometry" />
        </mxCell>
        <mxCell id="hV2kDuYqjvU9eCz-QwMJ-198" value="Робот 1 - вільний" style="text;html=1;strokeColor=none;fillColor=none;align=center;verticalAlign=middle;whiteSpace=wrap;rounded=0;" parent="1" vertex="1">
          <mxGeometry x="1320" y="40" width="60" height="30" as="geometry" />
        </mxCell>
        <mxCell id="hV2kDuYqjvU9eCz-QwMJ-204" style="edgeStyle=orthogonalEdgeStyle;rounded=0;orthogonalLoop=1;jettySize=auto;html=1;entryX=0.5;entryY=1;entryDx=0;entryDy=0;elbow=vertical;" parent="1" source="hV2kDuYqjvU9eCz-QwMJ-199" target="hV2kDuYqjvU9eCz-QwMJ-201" edge="1">
          <mxGeometry relative="1" as="geometry" />
        </mxCell>
        <mxCell id="hV2kDuYqjvU9eCz-QwMJ-199" value="" style="ellipse;whiteSpace=wrap;html=1;aspect=fixed;" parent="1" vertex="1">
          <mxGeometry x="1420" y="170" width="30" height="30" as="geometry" />
        </mxCell>
        <mxCell id="hV2kDuYqjvU9eCz-QwMJ-200" value="" style="ellipse;whiteSpace=wrap;html=1;aspect=fixed;" parent="1" vertex="1">
          <mxGeometry x="1580" y="170" width="30" height="30" as="geometry" />
        </mxCell>
        <mxCell id="hV2kDuYqjvU9eCz-QwMJ-203" style="edgeStyle=orthogonalEdgeStyle;rounded=0;orthogonalLoop=1;jettySize=auto;html=1;entryX=0;entryY=0.5;entryDx=0;entryDy=0;elbow=vertical;" parent="1" source="hV2kDuYqjvU9eCz-QwMJ-201" target="hV2kDuYqjvU9eCz-QwMJ-200" edge="1">
          <mxGeometry relative="1" as="geometry" />
        </mxCell>
        <mxCell id="hV2kDuYqjvU9eCz-QwMJ-201" value="" style="rounded=0;whiteSpace=wrap;html=1;gradientColor=none;fillStyle=solid;fillColor=#000000;rotation=90;" parent="1" vertex="1">
          <mxGeometry x="1480" y="180" width="80" height="10" as="geometry" />
        </mxCell>
        <mxCell id="hV2kDuYqjvU9eCz-QwMJ-206" value="t=6" style="text;html=1;strokeColor=none;fillColor=none;align=center;verticalAlign=middle;whiteSpace=wrap;rounded=0;" parent="1" vertex="1">
          <mxGeometry x="1490" y="230" width="60" height="30" as="geometry" />
        </mxCell>
        <mxCell id="hV2kDuYqjvU9eCz-QwMJ-207" value="Переміщення 1" style="text;html=1;strokeColor=none;fillColor=none;align=center;verticalAlign=middle;whiteSpace=wrap;rounded=0;" parent="1" vertex="1">
          <mxGeometry x="1475" y="110" width="90" height="30" as="geometry" />
        </mxCell>
        <mxCell id="hV2kDuYqjvU9eCz-QwMJ-211" style="edgeStyle=orthogonalEdgeStyle;rounded=0;orthogonalLoop=1;jettySize=auto;html=1;entryX=1;entryY=0.5;entryDx=0;entryDy=0;elbow=vertical;exitX=0.059;exitY=-0.098;exitDx=0;exitDy=0;exitPerimeter=0;curved=1;" parent="1" source="hV2kDuYqjvU9eCz-QwMJ-208" target="hV2kDuYqjvU9eCz-QwMJ-193" edge="1">
          <mxGeometry relative="1" as="geometry">
            <mxPoint x="1680" y="150" as="sourcePoint" />
            <Array as="points">
              <mxPoint x="1700" y="150" />
              <mxPoint x="1700" y="95" />
            </Array>
          </mxGeometry>
        </mxCell>
        <mxCell id="hV2kDuYqjvU9eCz-QwMJ-222" style="edgeStyle=orthogonalEdgeStyle;rounded=0;orthogonalLoop=1;jettySize=auto;html=1;entryX=0;entryY=0.5;entryDx=0;entryDy=0;elbow=vertical;" parent="1" source="hV2kDuYqjvU9eCz-QwMJ-208" target="hV2kDuYqjvU9eCz-QwMJ-221" edge="1">
          <mxGeometry relative="1" as="geometry" />
        </mxCell>
        <mxCell id="hV2kDuYqjvU9eCz-QwMJ-208" value="" style="rounded=0;whiteSpace=wrap;html=1;gradientColor=none;fillStyle=solid;fillColor=#000000;rotation=90;" parent="1" vertex="1">
          <mxGeometry x="1630" y="180" width="80" height="10" as="geometry" />
        </mxCell>
        <mxCell id="hV2kDuYqjvU9eCz-QwMJ-209" style="edgeStyle=orthogonalEdgeStyle;rounded=0;orthogonalLoop=1;jettySize=auto;html=1;entryX=0.5;entryY=1;entryDx=0;entryDy=0;elbow=vertical;" parent="1" source="hV2kDuYqjvU9eCz-QwMJ-200" target="hV2kDuYqjvU9eCz-QwMJ-208" edge="1">
          <mxGeometry relative="1" as="geometry" />
        </mxCell>
        <mxCell id="hV2kDuYqjvU9eCz-QwMJ-210" value="t=7+2*ε&amp;nbsp;" style="text;html=1;strokeColor=none;fillColor=none;align=center;verticalAlign=middle;whiteSpace=wrap;rounded=0;" parent="1" vertex="1">
          <mxGeometry x="1640" y="230" width="60" height="30" as="geometry" />
        </mxCell>
        <mxCell id="hV2kDuYqjvU9eCz-QwMJ-214" value="Вивільнення 1" style="text;html=1;strokeColor=none;fillColor=none;align=center;verticalAlign=middle;whiteSpace=wrap;rounded=0;" parent="1" vertex="1">
          <mxGeometry x="1610" y="110" width="90" height="30" as="geometry" />
        </mxCell>
        <mxCell id="hV2kDuYqjvU9eCz-QwMJ-215" value="3" style="ellipse;whiteSpace=wrap;html=1;aspect=fixed;strokeColor=#000000;" parent="1" vertex="1">
          <mxGeometry x="1845" y="72.5" width="30" height="30" as="geometry" />
        </mxCell>
        <mxCell id="hV2kDuYqjvU9eCz-QwMJ-216" value="" style="curved=1;endArrow=classic;html=1;rounded=0;exitX=0.123;exitY=0.786;exitDx=0;exitDy=0;exitPerimeter=0;entryX=1.067;entryY=0.398;entryDx=0;entryDy=0;entryPerimeter=0;shadow=0;" parent="1" source="hV2kDuYqjvU9eCz-QwMJ-226" target="hV2kDuYqjvU9eCz-QwMJ-215" edge="1">
          <mxGeometry width="50" height="50" relative="1" as="geometry">
            <mxPoint x="1863.8149999999996" y="154.83999999999935" as="sourcePoint" />
            <mxPoint x="1919" y="82.5" as="targetPoint" />
            <Array as="points">
              <mxPoint x="1890" y="157.5" />
              <mxPoint x="1910" y="152.5" />
              <mxPoint x="1920" y="122.5" />
              <mxPoint x="1910" y="82.5" />
            </Array>
          </mxGeometry>
        </mxCell>
        <mxCell id="hV2kDuYqjvU9eCz-QwMJ-217" value="Вільні слоти верстата" style="text;html=1;strokeColor=none;fillColor=none;align=center;verticalAlign=middle;whiteSpace=wrap;rounded=0;" parent="1" vertex="1">
          <mxGeometry x="1812.5" y="40" width="95" height="30" as="geometry" />
        </mxCell>
        <mxCell id="hV2kDuYqjvU9eCz-QwMJ-220" value="" style="curved=1;endArrow=classic;html=1;rounded=0;exitX=0.1;exitY=0.852;exitDx=0;exitDy=0;exitPerimeter=0;entryX=0;entryY=0.5;entryDx=0;entryDy=0;" parent="1" source="hV2kDuYqjvU9eCz-QwMJ-226" target="hV2kDuYqjvU9eCz-QwMJ-215" edge="1">
          <mxGeometry width="50" height="50" relative="1" as="geometry">
            <mxPoint x="1848.4699999999998" y="154.75999999999942" as="sourcePoint" />
            <mxPoint x="1815" y="82.5" as="targetPoint" />
            <Array as="points">
              <mxPoint x="1800" y="157.5" />
              <mxPoint x="1800" y="87.5" />
            </Array>
          </mxGeometry>
        </mxCell>
        <mxCell id="hV2kDuYqjvU9eCz-QwMJ-223" style="edgeStyle=orthogonalEdgeStyle;rounded=0;orthogonalLoop=1;jettySize=auto;html=1;entryX=0.5;entryY=1;entryDx=0;entryDy=0;elbow=vertical;" parent="1" source="hV2kDuYqjvU9eCz-QwMJ-221" target="hV2kDuYqjvU9eCz-QwMJ-226" edge="1">
          <mxGeometry relative="1" as="geometry">
            <mxPoint x="1849.9999999999995" y="185" as="targetPoint" />
          </mxGeometry>
        </mxCell>
        <mxCell id="hV2kDuYqjvU9eCz-QwMJ-221" value="" style="ellipse;whiteSpace=wrap;html=1;aspect=fixed;" parent="1" vertex="1">
          <mxGeometry x="1750" y="170" width="30" height="30" as="geometry" />
        </mxCell>
        <mxCell id="hV2kDuYqjvU9eCz-QwMJ-224" value="Черга - 1 верстат" style="text;html=1;strokeColor=none;fillColor=none;align=center;verticalAlign=middle;whiteSpace=wrap;rounded=0;" parent="1" vertex="1">
          <mxGeometry x="1717.5" y="140" width="95" height="30" as="geometry" />
        </mxCell>
        <mxCell id="hV2kDuYqjvU9eCz-QwMJ-228" style="edgeStyle=orthogonalEdgeStyle;rounded=0;orthogonalLoop=1;jettySize=auto;html=1;entryX=0;entryY=0.5;entryDx=0;entryDy=0;elbow=vertical;" parent="1" source="hV2kDuYqjvU9eCz-QwMJ-226" target="hV2kDuYqjvU9eCz-QwMJ-227" edge="1">
          <mxGeometry relative="1" as="geometry" />
        </mxCell>
        <mxCell id="hV2kDuYqjvU9eCz-QwMJ-226" value="" style="rounded=0;whiteSpace=wrap;html=1;gradientColor=none;fillStyle=solid;fillColor=#000000;rotation=90;" parent="1" vertex="1">
          <mxGeometry x="1817" y="180" width="80" height="10" as="geometry" />
        </mxCell>
        <mxCell id="hV2kDuYqjvU9eCz-QwMJ-231" style="edgeStyle=orthogonalEdgeStyle;rounded=0;orthogonalLoop=1;jettySize=auto;html=1;entryX=0.5;entryY=0;entryDx=0;entryDy=0;elbow=vertical;" parent="1" source="hV2kDuYqjvU9eCz-QwMJ-227" target="hV2kDuYqjvU9eCz-QwMJ-230" edge="1">
          <mxGeometry relative="1" as="geometry">
            <Array as="points">
              <mxPoint x="2020" y="185" />
              <mxPoint x="2020" y="490" />
            </Array>
          </mxGeometry>
        </mxCell>
        <mxCell id="hV2kDuYqjvU9eCz-QwMJ-227" value="" style="ellipse;whiteSpace=wrap;html=1;aspect=fixed;" parent="1" vertex="1">
          <mxGeometry x="1934.75" y="170" width="30" height="30" as="geometry" />
        </mxCell>
        <mxCell id="hV2kDuYqjvU9eCz-QwMJ-229" value="Черга до робота 2" style="text;html=1;strokeColor=none;fillColor=none;align=center;verticalAlign=middle;whiteSpace=wrap;rounded=0;" parent="1" vertex="1">
          <mxGeometry x="1908.5" y="130" width="82.5" height="30" as="geometry" />
        </mxCell>
        <mxCell id="hV2kDuYqjvU9eCz-QwMJ-242" style="edgeStyle=orthogonalEdgeStyle;rounded=0;orthogonalLoop=1;jettySize=auto;html=1;entryX=1;entryY=0.5;entryDx=0;entryDy=0;elbow=vertical;" parent="1" source="hV2kDuYqjvU9eCz-QwMJ-230" target="hV2kDuYqjvU9eCz-QwMJ-234" edge="1">
          <mxGeometry relative="1" as="geometry" />
        </mxCell>
        <mxCell id="hV2kDuYqjvU9eCz-QwMJ-230" value="" style="rounded=0;whiteSpace=wrap;html=1;gradientColor=none;fillStyle=solid;fillColor=#000000;rotation=90;" parent="1" vertex="1">
          <mxGeometry x="1817" y="485" width="80" height="10" as="geometry" />
        </mxCell>
        <mxCell id="hV2kDuYqjvU9eCz-QwMJ-232" value="t=7+2*ε&amp;nbsp;" style="text;html=1;strokeColor=none;fillColor=none;align=center;verticalAlign=middle;whiteSpace=wrap;rounded=0;" parent="1" vertex="1">
          <mxGeometry x="1827" y="540" width="60" height="30" as="geometry" />
        </mxCell>
        <mxCell id="hV2kDuYqjvU9eCz-QwMJ-233" value="t=10*(norm(ε))+60" style="text;html=1;strokeColor=none;fillColor=none;align=center;verticalAlign=middle;whiteSpace=wrap;rounded=0;" parent="1" vertex="1">
          <mxGeometry x="1805.5" y="230" width="103" height="30" as="geometry" />
        </mxCell>
        <mxCell id="hV2kDuYqjvU9eCz-QwMJ-243" style="edgeStyle=orthogonalEdgeStyle;rounded=0;orthogonalLoop=1;jettySize=auto;html=1;entryX=0.5;entryY=0;entryDx=0;entryDy=0;elbow=vertical;" parent="1" source="hV2kDuYqjvU9eCz-QwMJ-234" target="hV2kDuYqjvU9eCz-QwMJ-237" edge="1">
          <mxGeometry relative="1" as="geometry" />
        </mxCell>
        <mxCell id="hV2kDuYqjvU9eCz-QwMJ-234" value="" style="ellipse;whiteSpace=wrap;html=1;aspect=fixed;" parent="1" vertex="1">
          <mxGeometry x="1750" y="475" width="30" height="30" as="geometry" />
        </mxCell>
        <mxCell id="hV2kDuYqjvU9eCz-QwMJ-245" style="edgeStyle=orthogonalEdgeStyle;rounded=0;orthogonalLoop=1;jettySize=auto;html=1;entryX=0.5;entryY=0;entryDx=0;entryDy=0;elbow=vertical;" parent="1" source="hV2kDuYqjvU9eCz-QwMJ-235" target="hV2kDuYqjvU9eCz-QwMJ-238" edge="1">
          <mxGeometry relative="1" as="geometry" />
        </mxCell>
        <mxCell id="hV2kDuYqjvU9eCz-QwMJ-235" value="" style="ellipse;whiteSpace=wrap;html=1;aspect=fixed;" parent="1" vertex="1">
          <mxGeometry x="1580" y="475" width="30" height="30" as="geometry" />
        </mxCell>
        <mxCell id="hV2kDuYqjvU9eCz-QwMJ-244" style="edgeStyle=orthogonalEdgeStyle;rounded=0;orthogonalLoop=1;jettySize=auto;html=1;entryX=1;entryY=0.5;entryDx=0;entryDy=0;elbow=vertical;" parent="1" source="hV2kDuYqjvU9eCz-QwMJ-237" target="hV2kDuYqjvU9eCz-QwMJ-235" edge="1">
          <mxGeometry relative="1" as="geometry" />
        </mxCell>
        <mxCell id="hV2kDuYqjvU9eCz-QwMJ-237" value="" style="rounded=0;whiteSpace=wrap;html=1;gradientColor=none;fillStyle=solid;fillColor=#000000;rotation=90;" parent="1" vertex="1">
          <mxGeometry x="1630" y="485" width="80" height="10" as="geometry" />
        </mxCell>
        <mxCell id="hV2kDuYqjvU9eCz-QwMJ-247" style="edgeStyle=orthogonalEdgeStyle;rounded=0;orthogonalLoop=1;jettySize=auto;html=1;entryX=0;entryY=0.5;entryDx=0;entryDy=0;elbow=vertical;exitX=0.118;exitY=0.813;exitDx=0;exitDy=0;exitPerimeter=0;curved=1;" parent="1" source="hV2kDuYqjvU9eCz-QwMJ-238" target="hV2kDuYqjvU9eCz-QwMJ-241" edge="1">
          <mxGeometry relative="1" as="geometry">
            <mxPoint x="1510" y="460" as="sourcePoint" />
            <Array as="points">
              <mxPoint x="1510" y="459" />
              <mxPoint x="1490" y="460" />
              <mxPoint x="1490" y="390" />
            </Array>
          </mxGeometry>
        </mxCell>
        <mxCell id="hV2kDuYqjvU9eCz-QwMJ-255" style="edgeStyle=orthogonalEdgeStyle;rounded=0;orthogonalLoop=1;jettySize=auto;html=1;entryX=1;entryY=0.5;entryDx=0;entryDy=0;elbow=vertical;" parent="1" source="hV2kDuYqjvU9eCz-QwMJ-238" target="hV2kDuYqjvU9eCz-QwMJ-254" edge="1">
          <mxGeometry relative="1" as="geometry" />
        </mxCell>
        <mxCell id="hV2kDuYqjvU9eCz-QwMJ-238" value="" style="rounded=0;whiteSpace=wrap;html=1;gradientColor=none;fillStyle=solid;fillColor=#000000;rotation=90;" parent="1" vertex="1">
          <mxGeometry x="1480" y="485" width="80" height="10" as="geometry" />
        </mxCell>
        <mxCell id="hV2kDuYqjvU9eCz-QwMJ-241" value="1" style="ellipse;whiteSpace=wrap;html=1;aspect=fixed;" parent="1" vertex="1">
          <mxGeometry x="1797" y="375" width="30" height="30" as="geometry" />
        </mxCell>
        <mxCell id="hV2kDuYqjvU9eCz-QwMJ-246" style="edgeStyle=orthogonalEdgeStyle;rounded=0;orthogonalLoop=1;jettySize=auto;html=1;entryX=0.121;entryY=0.066;entryDx=0;entryDy=0;entryPerimeter=0;elbow=vertical;curved=1;" parent="1" source="hV2kDuYqjvU9eCz-QwMJ-241" target="hV2kDuYqjvU9eCz-QwMJ-230" edge="1">
          <mxGeometry relative="1" as="geometry" />
        </mxCell>
        <mxCell id="hV2kDuYqjvU9eCz-QwMJ-248" value="Робот 2 вільний" style="text;html=1;strokeColor=none;fillColor=none;align=center;verticalAlign=middle;whiteSpace=wrap;rounded=0;" parent="1" vertex="1">
          <mxGeometry x="1764.5" y="340" width="95" height="30" as="geometry" />
        </mxCell>
        <mxCell id="hV2kDuYqjvU9eCz-QwMJ-249" value="Захоплення 2" style="text;html=1;strokeColor=none;fillColor=none;align=center;verticalAlign=middle;whiteSpace=wrap;rounded=0;" parent="1" vertex="1">
          <mxGeometry x="1780" y="415" width="95" height="30" as="geometry" />
        </mxCell>
        <mxCell id="hV2kDuYqjvU9eCz-QwMJ-250" value="Переміщення 2" style="text;html=1;strokeColor=none;fillColor=none;align=center;verticalAlign=middle;whiteSpace=wrap;rounded=0;" parent="1" vertex="1">
          <mxGeometry x="1622.5" y="415" width="95" height="30" as="geometry" />
        </mxCell>
        <mxCell id="hV2kDuYqjvU9eCz-QwMJ-251" value="Вивільнення 2" style="text;html=1;strokeColor=none;fillColor=none;align=center;verticalAlign=middle;whiteSpace=wrap;rounded=0;" parent="1" vertex="1">
          <mxGeometry x="1490" y="415" width="95" height="30" as="geometry" />
        </mxCell>
        <mxCell id="hV2kDuYqjvU9eCz-QwMJ-252" value="t=7" style="text;html=1;strokeColor=none;fillColor=none;align=center;verticalAlign=middle;whiteSpace=wrap;rounded=0;" parent="1" vertex="1">
          <mxGeometry x="1640" y="540" width="60" height="30" as="geometry" />
        </mxCell>
        <mxCell id="hV2kDuYqjvU9eCz-QwMJ-253" value="t=7+2*ε&amp;nbsp;" style="text;html=1;strokeColor=none;fillColor=none;align=center;verticalAlign=middle;whiteSpace=wrap;rounded=0;" parent="1" vertex="1">
          <mxGeometry x="1490" y="540" width="60" height="30" as="geometry" />
        </mxCell>
        <mxCell id="hV2kDuYqjvU9eCz-QwMJ-263" style="edgeStyle=orthogonalEdgeStyle;rounded=0;orthogonalLoop=1;jettySize=auto;html=1;entryX=0.5;entryY=0;entryDx=0;entryDy=0;elbow=vertical;" parent="1" source="hV2kDuYqjvU9eCz-QwMJ-254" target="hV2kDuYqjvU9eCz-QwMJ-261" edge="1">
          <mxGeometry relative="1" as="geometry" />
        </mxCell>
        <mxCell id="hV2kDuYqjvU9eCz-QwMJ-254" value="" style="ellipse;whiteSpace=wrap;html=1;aspect=fixed;" parent="1" vertex="1">
          <mxGeometry x="1390" y="475" width="30" height="30" as="geometry" />
        </mxCell>
        <mxCell id="hV2kDuYqjvU9eCz-QwMJ-256" value="Черга 2 верстата" style="text;html=1;strokeColor=none;fillColor=none;align=center;verticalAlign=middle;whiteSpace=wrap;rounded=0;" parent="1" vertex="1">
          <mxGeometry x="1357.5" y="435" width="95" height="30" as="geometry" />
        </mxCell>
        <mxCell id="hV2kDuYqjvU9eCz-QwMJ-257" value="3" style="ellipse;whiteSpace=wrap;html=1;aspect=fixed;strokeColor=#000000;" parent="1" vertex="1">
          <mxGeometry x="1295" y="377.5" width="30" height="30" as="geometry" />
        </mxCell>
        <mxCell id="hV2kDuYqjvU9eCz-QwMJ-258" value="" style="curved=1;endArrow=classic;html=1;rounded=0;exitX=0.123;exitY=0.786;exitDx=0;exitDy=0;exitPerimeter=0;entryX=1.067;entryY=0.398;entryDx=0;entryDy=0;entryPerimeter=0;shadow=0;" parent="1" source="hV2kDuYqjvU9eCz-QwMJ-261" target="hV2kDuYqjvU9eCz-QwMJ-257" edge="1">
          <mxGeometry width="50" height="50" relative="1" as="geometry">
            <mxPoint x="1313.8149999999996" y="459.83999999999935" as="sourcePoint" />
            <mxPoint x="1369" y="387.5" as="targetPoint" />
            <Array as="points">
              <mxPoint x="1340" y="462.5" />
              <mxPoint x="1360" y="457.5" />
              <mxPoint x="1370" y="427.5" />
              <mxPoint x="1360" y="387.5" />
            </Array>
          </mxGeometry>
        </mxCell>
        <mxCell id="hV2kDuYqjvU9eCz-QwMJ-259" value="Вільні слоти верстата" style="text;html=1;strokeColor=none;fillColor=none;align=center;verticalAlign=middle;whiteSpace=wrap;rounded=0;" parent="1" vertex="1">
          <mxGeometry x="1262.5" y="345" width="95" height="30" as="geometry" />
        </mxCell>
        <mxCell id="hV2kDuYqjvU9eCz-QwMJ-260" value="" style="curved=1;endArrow=classic;html=1;rounded=0;exitX=0.1;exitY=0.852;exitDx=0;exitDy=0;exitPerimeter=0;entryX=0;entryY=0.5;entryDx=0;entryDy=0;" parent="1" source="hV2kDuYqjvU9eCz-QwMJ-261" target="hV2kDuYqjvU9eCz-QwMJ-257" edge="1">
          <mxGeometry width="50" height="50" relative="1" as="geometry">
            <mxPoint x="1298.4699999999998" y="459.7599999999994" as="sourcePoint" />
            <mxPoint x="1265" y="387.5" as="targetPoint" />
            <Array as="points">
              <mxPoint x="1250" y="462.5" />
              <mxPoint x="1250" y="392.5" />
            </Array>
          </mxGeometry>
        </mxCell>
        <mxCell id="hV2kDuYqjvU9eCz-QwMJ-265" style="edgeStyle=orthogonalEdgeStyle;rounded=0;orthogonalLoop=1;jettySize=auto;html=1;entryX=1;entryY=0.5;entryDx=0;entryDy=0;elbow=vertical;" parent="1" source="hV2kDuYqjvU9eCz-QwMJ-261" target="hV2kDuYqjvU9eCz-QwMJ-264" edge="1">
          <mxGeometry relative="1" as="geometry" />
        </mxCell>
        <mxCell id="hV2kDuYqjvU9eCz-QwMJ-261" value="" style="rounded=0;whiteSpace=wrap;html=1;gradientColor=none;fillStyle=solid;fillColor=#000000;rotation=90;" parent="1" vertex="1">
          <mxGeometry x="1267" y="485" width="80" height="10" as="geometry" />
        </mxCell>
        <mxCell id="hV2kDuYqjvU9eCz-QwMJ-262" value="t=-100lnε" style="text;html=1;strokeColor=none;fillColor=none;align=center;verticalAlign=middle;whiteSpace=wrap;rounded=0;" parent="1" vertex="1">
          <mxGeometry x="1255.5" y="535" width="103" height="30" as="geometry" />
        </mxCell>
        <mxCell id="hV2kDuYqjvU9eCz-QwMJ-287" style="edgeStyle=orthogonalEdgeStyle;rounded=0;orthogonalLoop=1;jettySize=auto;html=1;entryX=0.5;entryY=1;entryDx=0;entryDy=0;elbow=vertical;" parent="1" source="hV2kDuYqjvU9eCz-QwMJ-264" target="hV2kDuYqjvU9eCz-QwMJ-269" edge="1">
          <mxGeometry relative="1" as="geometry">
            <Array as="points">
              <mxPoint x="1155" y="720" />
            </Array>
          </mxGeometry>
        </mxCell>
        <mxCell id="hV2kDuYqjvU9eCz-QwMJ-264" value="" style="ellipse;whiteSpace=wrap;html=1;aspect=fixed;" parent="1" vertex="1">
          <mxGeometry x="1140" y="475" width="30" height="30" as="geometry" />
        </mxCell>
        <mxCell id="hV2kDuYqjvU9eCz-QwMJ-267" value="Черга до робота 3" style="text;html=1;strokeColor=none;fillColor=none;align=center;verticalAlign=middle;whiteSpace=wrap;rounded=0;" parent="1" vertex="1">
          <mxGeometry x="1107.5" y="435" width="95" height="30" as="geometry" />
        </mxCell>
        <mxCell id="hV2kDuYqjvU9eCz-QwMJ-268" style="edgeStyle=orthogonalEdgeStyle;rounded=0;orthogonalLoop=1;jettySize=auto;html=1;entryX=0;entryY=0.5;entryDx=0;entryDy=0;elbow=vertical;" parent="1" source="hV2kDuYqjvU9eCz-QwMJ-269" target="hV2kDuYqjvU9eCz-QwMJ-275" edge="1">
          <mxGeometry relative="1" as="geometry" />
        </mxCell>
        <mxCell id="hV2kDuYqjvU9eCz-QwMJ-269" value="" style="rounded=0;whiteSpace=wrap;html=1;gradientColor=none;fillStyle=solid;fillColor=#000000;rotation=90;" parent="1" vertex="1">
          <mxGeometry x="1287" y="715" width="80" height="10" as="geometry" />
        </mxCell>
        <mxCell id="hV2kDuYqjvU9eCz-QwMJ-270" value="1" style="ellipse;whiteSpace=wrap;html=1;aspect=fixed;" parent="1" vertex="1">
          <mxGeometry x="1312" y="615" width="30" height="30" as="geometry" />
        </mxCell>
        <mxCell id="hV2kDuYqjvU9eCz-QwMJ-271" value="t=7+2*ε&amp;nbsp;" style="text;html=1;strokeColor=none;fillColor=none;align=center;verticalAlign=middle;whiteSpace=wrap;rounded=0;" parent="1" vertex="1">
          <mxGeometry x="1297" y="765" width="60" height="30" as="geometry" />
        </mxCell>
        <mxCell id="hV2kDuYqjvU9eCz-QwMJ-272" value="Захоплення 3" style="text;html=1;strokeColor=none;fillColor=none;align=center;verticalAlign=middle;whiteSpace=wrap;rounded=0;" parent="1" vertex="1">
          <mxGeometry x="1297" y="645" width="80" height="30" as="geometry" />
        </mxCell>
        <mxCell id="hV2kDuYqjvU9eCz-QwMJ-273" value="Робот 3 - вільний" style="text;html=1;strokeColor=none;fillColor=none;align=center;verticalAlign=middle;whiteSpace=wrap;rounded=0;" parent="1" vertex="1">
          <mxGeometry x="1250" y="590" width="60" height="30" as="geometry" />
        </mxCell>
        <mxCell id="hV2kDuYqjvU9eCz-QwMJ-274" style="edgeStyle=orthogonalEdgeStyle;rounded=0;orthogonalLoop=1;jettySize=auto;html=1;entryX=0.5;entryY=1;entryDx=0;entryDy=0;elbow=vertical;" parent="1" source="hV2kDuYqjvU9eCz-QwMJ-275" target="hV2kDuYqjvU9eCz-QwMJ-278" edge="1">
          <mxGeometry relative="1" as="geometry" />
        </mxCell>
        <mxCell id="hV2kDuYqjvU9eCz-QwMJ-275" value="" style="ellipse;whiteSpace=wrap;html=1;aspect=fixed;" parent="1" vertex="1">
          <mxGeometry x="1417" y="705" width="30" height="30" as="geometry" />
        </mxCell>
        <mxCell id="hV2kDuYqjvU9eCz-QwMJ-276" value="" style="ellipse;whiteSpace=wrap;html=1;aspect=fixed;" parent="1" vertex="1">
          <mxGeometry x="1577" y="705" width="30" height="30" as="geometry" />
        </mxCell>
        <mxCell id="hV2kDuYqjvU9eCz-QwMJ-277" style="edgeStyle=orthogonalEdgeStyle;rounded=0;orthogonalLoop=1;jettySize=auto;html=1;entryX=0;entryY=0.5;entryDx=0;entryDy=0;elbow=vertical;" parent="1" source="hV2kDuYqjvU9eCz-QwMJ-278" target="hV2kDuYqjvU9eCz-QwMJ-276" edge="1">
          <mxGeometry relative="1" as="geometry" />
        </mxCell>
        <mxCell id="hV2kDuYqjvU9eCz-QwMJ-278" value="" style="rounded=0;whiteSpace=wrap;html=1;gradientColor=none;fillStyle=solid;fillColor=#000000;rotation=90;" parent="1" vertex="1">
          <mxGeometry x="1477" y="715" width="80" height="10" as="geometry" />
        </mxCell>
        <mxCell id="hV2kDuYqjvU9eCz-QwMJ-279" value="t=5" style="text;html=1;strokeColor=none;fillColor=none;align=center;verticalAlign=middle;whiteSpace=wrap;rounded=0;" parent="1" vertex="1">
          <mxGeometry x="1487" y="765" width="60" height="30" as="geometry" />
        </mxCell>
        <mxCell id="hV2kDuYqjvU9eCz-QwMJ-280" value="Переміщення 3" style="text;html=1;strokeColor=none;fillColor=none;align=center;verticalAlign=middle;whiteSpace=wrap;rounded=0;" parent="1" vertex="1">
          <mxGeometry x="1472" y="645" width="88" height="30" as="geometry" />
        </mxCell>
        <mxCell id="hV2kDuYqjvU9eCz-QwMJ-281" style="edgeStyle=orthogonalEdgeStyle;rounded=0;orthogonalLoop=1;jettySize=auto;html=1;entryX=1;entryY=0.5;entryDx=0;entryDy=0;elbow=vertical;exitX=0.059;exitY=-0.098;exitDx=0;exitDy=0;exitPerimeter=0;curved=1;" parent="1" source="hV2kDuYqjvU9eCz-QwMJ-282" target="hV2kDuYqjvU9eCz-QwMJ-270" edge="1">
          <mxGeometry relative="1" as="geometry">
            <mxPoint x="1677" y="685" as="sourcePoint" />
            <Array as="points">
              <mxPoint x="1697" y="685" />
              <mxPoint x="1697" y="630" />
            </Array>
          </mxGeometry>
        </mxCell>
        <mxCell id="hV2kDuYqjvU9eCz-QwMJ-289" style="edgeStyle=orthogonalEdgeStyle;rounded=0;orthogonalLoop=1;jettySize=auto;html=1;entryX=0;entryY=0.5;entryDx=0;entryDy=0;elbow=vertical;" parent="1" source="hV2kDuYqjvU9eCz-QwMJ-282" target="hV2kDuYqjvU9eCz-QwMJ-288" edge="1">
          <mxGeometry relative="1" as="geometry" />
        </mxCell>
        <mxCell id="hV2kDuYqjvU9eCz-QwMJ-282" value="" style="rounded=0;whiteSpace=wrap;html=1;gradientColor=none;fillStyle=solid;fillColor=#000000;rotation=90;" parent="1" vertex="1">
          <mxGeometry x="1627" y="715" width="80" height="10" as="geometry" />
        </mxCell>
        <mxCell id="hV2kDuYqjvU9eCz-QwMJ-283" style="edgeStyle=orthogonalEdgeStyle;rounded=0;orthogonalLoop=1;jettySize=auto;html=1;entryX=0.5;entryY=1;entryDx=0;entryDy=0;elbow=vertical;" parent="1" source="hV2kDuYqjvU9eCz-QwMJ-276" target="hV2kDuYqjvU9eCz-QwMJ-282" edge="1">
          <mxGeometry relative="1" as="geometry" />
        </mxCell>
        <mxCell id="hV2kDuYqjvU9eCz-QwMJ-284" value="t=7+2*ε&amp;nbsp;" style="text;html=1;strokeColor=none;fillColor=none;align=center;verticalAlign=middle;whiteSpace=wrap;rounded=0;" parent="1" vertex="1">
          <mxGeometry x="1637" y="765" width="60" height="30" as="geometry" />
        </mxCell>
        <mxCell id="hV2kDuYqjvU9eCz-QwMJ-285" value="Вивільнення 3" style="text;html=1;strokeColor=none;fillColor=none;align=center;verticalAlign=middle;whiteSpace=wrap;rounded=0;" parent="1" vertex="1">
          <mxGeometry x="1607" y="645" width="90" height="30" as="geometry" />
        </mxCell>
        <mxCell id="hV2kDuYqjvU9eCz-QwMJ-286" style="edgeStyle=orthogonalEdgeStyle;rounded=0;orthogonalLoop=1;jettySize=auto;html=1;entryX=0.25;entryY=1;entryDx=0;entryDy=0;elbow=vertical;curved=1;" parent="1" source="hV2kDuYqjvU9eCz-QwMJ-270" target="hV2kDuYqjvU9eCz-QwMJ-269" edge="1">
          <mxGeometry relative="1" as="geometry">
            <Array as="points">
              <mxPoint x="1267" y="635" />
              <mxPoint x="1267" y="700" />
            </Array>
          </mxGeometry>
        </mxCell>
        <mxCell id="hV2kDuYqjvU9eCz-QwMJ-288" value="" style="ellipse;whiteSpace=wrap;html=1;aspect=fixed;" parent="1" vertex="1">
          <mxGeometry x="1829.5" y="705" width="30" height="30" as="geometry" />
        </mxCell>
        <mxCell id="hV2kDuYqjvU9eCz-QwMJ-290" value="Склад відпрацьованих" style="text;html=1;strokeColor=none;fillColor=none;align=center;verticalAlign=middle;whiteSpace=wrap;rounded=0;" parent="1" vertex="1">
          <mxGeometry x="1799.5" y="660" width="90" height="30" as="geometry" />
        </mxCell>
        <mxCell id="hV2kDuYqjvU9eCz-QwMJ-291" value="&lt;font size=&quot;1&quot; style=&quot;&quot;&gt;&lt;b style=&quot;font-size: 48px;&quot;&gt;Task3&lt;br&gt;&lt;/b&gt;&lt;/font&gt;" style="text;html=1;strokeColor=none;fillColor=none;align=center;verticalAlign=middle;whiteSpace=wrap;rounded=0;" parent="1" vertex="1">
          <mxGeometry x="2341" y="955" width="140" height="70" as="geometry" />
        </mxCell>
        <mxCell id="hV2kDuYqjvU9eCz-QwMJ-292" value="" style="ellipse;whiteSpace=wrap;html=1;aspect=fixed;" parent="1" vertex="1">
          <mxGeometry x="2370" y="1237.5" width="60" height="60" as="geometry" />
        </mxCell>
        <mxCell id="hV2kDuYqjvU9eCz-QwMJ-294" value="Зароблено" style="text;html=1;strokeColor=none;fillColor=none;align=center;verticalAlign=middle;whiteSpace=wrap;rounded=0;" parent="1" vertex="1">
          <mxGeometry x="2370" y="1307.5" width="60" height="30" as="geometry" />
        </mxCell>
        <mxCell id="hV2kDuYqjvU9eCz-QwMJ-299" style="edgeStyle=orthogonalEdgeStyle;rounded=0;orthogonalLoop=1;jettySize=auto;html=1;entryX=0;entryY=0;entryDx=0;entryDy=0;elbow=vertical;curved=1;" parent="1" source="hV2kDuYqjvU9eCz-QwMJ-295" target="hV2kDuYqjvU9eCz-QwMJ-292" edge="1">
          <mxGeometry relative="1" as="geometry">
            <Array as="points">
              <mxPoint x="2270" y="1172.5" />
              <mxPoint x="2270" y="1246.5" />
            </Array>
          </mxGeometry>
        </mxCell>
        <mxCell id="hV2kDuYqjvU9eCz-QwMJ-313" value="/" style="edgeLabel;html=1;align=center;verticalAlign=middle;resizable=0;points=[];fontSize=24;" parent="hV2kDuYqjvU9eCz-QwMJ-299" vertex="1" connectable="0">
          <mxGeometry x="0.4099" y="7" relative="1" as="geometry">
            <mxPoint as="offset" />
          </mxGeometry>
        </mxCell>
        <mxCell id="hV2kDuYqjvU9eCz-QwMJ-310" style="edgeStyle=orthogonalEdgeStyle;rounded=0;orthogonalLoop=1;jettySize=auto;html=1;entryX=0;entryY=0.5;entryDx=0;entryDy=0;elbow=vertical;curved=1;" parent="1" source="hV2kDuYqjvU9eCz-QwMJ-295" target="hV2kDuYqjvU9eCz-QwMJ-308" edge="1">
          <mxGeometry relative="1" as="geometry" />
        </mxCell>
        <mxCell id="hV2kDuYqjvU9eCz-QwMJ-295" value="" style="rounded=0;whiteSpace=wrap;html=1;gradientColor=none;fillStyle=solid;fillColor=#000000;rotation=90;" parent="1" vertex="1">
          <mxGeometry x="2160" y="1167.5" width="80" height="10" as="geometry" />
        </mxCell>
        <mxCell id="hV2kDuYqjvU9eCz-QwMJ-300" style="edgeStyle=orthogonalEdgeStyle;rounded=0;orthogonalLoop=1;jettySize=auto;html=1;entryX=0;entryY=1;entryDx=0;entryDy=0;elbow=vertical;curved=1;" parent="1" source="hV2kDuYqjvU9eCz-QwMJ-296" target="hV2kDuYqjvU9eCz-QwMJ-292" edge="1">
          <mxGeometry relative="1" as="geometry">
            <Array as="points">
              <mxPoint x="2270" y="1377.5" />
              <mxPoint x="2270" y="1288.5" />
            </Array>
          </mxGeometry>
        </mxCell>
        <mxCell id="hV2kDuYqjvU9eCz-QwMJ-314" value="/" style="edgeLabel;html=1;align=center;verticalAlign=middle;resizable=0;points=[];fontSize=24;" parent="hV2kDuYqjvU9eCz-QwMJ-300" vertex="1" connectable="0">
          <mxGeometry x="0.4243" y="-9" relative="1" as="geometry">
            <mxPoint as="offset" />
          </mxGeometry>
        </mxCell>
        <mxCell id="hV2kDuYqjvU9eCz-QwMJ-335" style="edgeStyle=orthogonalEdgeStyle;rounded=0;orthogonalLoop=1;jettySize=auto;html=1;entryX=0;entryY=0.5;entryDx=0;entryDy=0;elbow=vertical;curved=1;" parent="1" source="hV2kDuYqjvU9eCz-QwMJ-296" target="hV2kDuYqjvU9eCz-QwMJ-334" edge="1">
          <mxGeometry relative="1" as="geometry" />
        </mxCell>
        <mxCell id="hV2kDuYqjvU9eCz-QwMJ-296" value="" style="rounded=0;whiteSpace=wrap;html=1;gradientColor=none;fillStyle=solid;fillColor=#000000;rotation=90;" parent="1" vertex="1">
          <mxGeometry x="2160" y="1372.5" width="80" height="10" as="geometry" />
        </mxCell>
        <mxCell id="hV2kDuYqjvU9eCz-QwMJ-305" style="edgeStyle=orthogonalEdgeStyle;rounded=0;orthogonalLoop=1;jettySize=auto;html=1;entryX=1;entryY=0;entryDx=0;entryDy=0;elbow=vertical;curved=1;" parent="1" source="hV2kDuYqjvU9eCz-QwMJ-301" target="hV2kDuYqjvU9eCz-QwMJ-292" edge="1">
          <mxGeometry relative="1" as="geometry">
            <Array as="points">
              <mxPoint x="2530" y="1170.5" />
              <mxPoint x="2530" y="1246.5" />
            </Array>
          </mxGeometry>
        </mxCell>
        <mxCell id="hV2kDuYqjvU9eCz-QwMJ-315" value="/" style="edgeLabel;html=1;align=center;verticalAlign=middle;resizable=0;points=[];fontSize=24;" parent="hV2kDuYqjvU9eCz-QwMJ-305" vertex="1" connectable="0">
          <mxGeometry x="0.3205" y="-11" relative="1" as="geometry">
            <mxPoint as="offset" />
          </mxGeometry>
        </mxCell>
        <mxCell id="hV2kDuYqjvU9eCz-QwMJ-309" style="edgeStyle=orthogonalEdgeStyle;rounded=0;orthogonalLoop=1;jettySize=auto;html=1;entryX=1;entryY=0.5;entryDx=0;entryDy=0;elbow=vertical;curved=1;" parent="1" source="hV2kDuYqjvU9eCz-QwMJ-301" target="hV2kDuYqjvU9eCz-QwMJ-307" edge="1">
          <mxGeometry relative="1" as="geometry" />
        </mxCell>
        <mxCell id="hV2kDuYqjvU9eCz-QwMJ-301" value="" style="rounded=0;whiteSpace=wrap;html=1;gradientColor=none;fillStyle=solid;fillColor=#000000;rotation=90;" parent="1" vertex="1">
          <mxGeometry x="2570" y="1165" width="80" height="10" as="geometry" />
        </mxCell>
        <mxCell id="hV2kDuYqjvU9eCz-QwMJ-306" style="edgeStyle=orthogonalEdgeStyle;rounded=0;orthogonalLoop=1;jettySize=auto;html=1;entryX=1;entryY=1;entryDx=0;entryDy=0;elbow=vertical;curved=1;" parent="1" source="hV2kDuYqjvU9eCz-QwMJ-302" target="hV2kDuYqjvU9eCz-QwMJ-292" edge="1">
          <mxGeometry relative="1" as="geometry">
            <Array as="points">
              <mxPoint x="2530" y="1375.5" />
              <mxPoint x="2530" y="1288.5" />
            </Array>
          </mxGeometry>
        </mxCell>
        <mxCell id="hV2kDuYqjvU9eCz-QwMJ-316" value="/" style="edgeLabel;html=1;align=center;verticalAlign=middle;resizable=0;points=[];fontSize=24;" parent="hV2kDuYqjvU9eCz-QwMJ-306" vertex="1" connectable="0">
          <mxGeometry x="0.3458" y="13" relative="1" as="geometry">
            <mxPoint as="offset" />
          </mxGeometry>
        </mxCell>
        <mxCell id="hV2kDuYqjvU9eCz-QwMJ-336" style="edgeStyle=orthogonalEdgeStyle;rounded=0;orthogonalLoop=1;jettySize=auto;html=1;entryX=1;entryY=0.5;entryDx=0;entryDy=0;elbow=vertical;curved=1;" parent="1" source="hV2kDuYqjvU9eCz-QwMJ-302" target="hV2kDuYqjvU9eCz-QwMJ-333" edge="1">
          <mxGeometry relative="1" as="geometry" />
        </mxCell>
        <mxCell id="hV2kDuYqjvU9eCz-QwMJ-302" value="" style="rounded=0;whiteSpace=wrap;html=1;gradientColor=none;fillStyle=solid;fillColor=#000000;rotation=90;" parent="1" vertex="1">
          <mxGeometry x="2570" y="1370" width="80" height="10" as="geometry" />
        </mxCell>
        <mxCell id="hV2kDuYqjvU9eCz-QwMJ-344" style="edgeStyle=orthogonalEdgeStyle;rounded=0;orthogonalLoop=1;jettySize=auto;html=1;entryX=0.25;entryY=1;entryDx=0;entryDy=0;elbow=vertical;" parent="1" source="hV2kDuYqjvU9eCz-QwMJ-307" target="hV2kDuYqjvU9eCz-QwMJ-339" edge="1">
          <mxGeometry relative="1" as="geometry">
            <Array as="points">
              <mxPoint x="2040" y="1045" />
              <mxPoint x="2040" y="1153" />
            </Array>
          </mxGeometry>
        </mxCell>
        <mxCell id="hV2kDuYqjvU9eCz-QwMJ-307" value="" style="ellipse;whiteSpace=wrap;html=1;aspect=fixed;" parent="1" vertex="1">
          <mxGeometry x="2072.5" y="1030" width="30" height="30" as="geometry" />
        </mxCell>
        <mxCell id="hV2kDuYqjvU9eCz-QwMJ-350" style="edgeStyle=orthogonalEdgeStyle;rounded=0;orthogonalLoop=1;jettySize=auto;html=1;entryX=0.25;entryY=0;entryDx=0;entryDy=0;elbow=vertical;" parent="1" source="hV2kDuYqjvU9eCz-QwMJ-308" target="hV2kDuYqjvU9eCz-QwMJ-347" edge="1">
          <mxGeometry relative="1" as="geometry" />
        </mxCell>
        <mxCell id="hV2kDuYqjvU9eCz-QwMJ-308" value="" style="ellipse;whiteSpace=wrap;html=1;aspect=fixed;" parent="1" vertex="1">
          <mxGeometry x="2727.5" y="1030" width="30" height="30" as="geometry" />
        </mxCell>
        <mxCell id="hV2kDuYqjvU9eCz-QwMJ-311" value="Автобус А вільний&amp;nbsp;&lt;br&gt;пункт 1" style="text;html=1;strokeColor=none;fillColor=none;align=center;verticalAlign=middle;whiteSpace=wrap;rounded=0;" parent="1" vertex="1">
          <mxGeometry x="2025" y="990" width="125" height="30" as="geometry" />
        </mxCell>
        <mxCell id="hV2kDuYqjvU9eCz-QwMJ-312" value="Автобус А вільний&amp;nbsp;&lt;br&gt;пункт 2" style="text;html=1;strokeColor=none;fillColor=none;align=center;verticalAlign=middle;whiteSpace=wrap;rounded=0;" parent="1" vertex="1">
          <mxGeometry x="2680" y="990" width="125" height="30" as="geometry" />
        </mxCell>
        <mxCell id="hV2kDuYqjvU9eCz-QwMJ-317" value="20" style="text;html=1;strokeColor=none;fillColor=none;align=center;verticalAlign=middle;whiteSpace=wrap;rounded=0;" parent="1" vertex="1">
          <mxGeometry x="2299" y="1207" width="20" height="23" as="geometry" />
        </mxCell>
        <mxCell id="hV2kDuYqjvU9eCz-QwMJ-318" value="20" style="text;html=1;strokeColor=none;fillColor=none;align=center;verticalAlign=middle;whiteSpace=wrap;rounded=0;" parent="1" vertex="1">
          <mxGeometry x="2296" y="1268" width="20" height="23" as="geometry" />
        </mxCell>
        <mxCell id="hV2kDuYqjvU9eCz-QwMJ-319" value="20" style="text;html=1;strokeColor=none;fillColor=none;align=center;verticalAlign=middle;whiteSpace=wrap;rounded=0;" parent="1" vertex="1">
          <mxGeometry x="2500" y="1207" width="20" height="23" as="geometry" />
        </mxCell>
        <mxCell id="hV2kDuYqjvU9eCz-QwMJ-320" value="20" style="text;html=1;strokeColor=none;fillColor=none;align=center;verticalAlign=middle;whiteSpace=wrap;rounded=0;" parent="1" vertex="1">
          <mxGeometry x="2500" y="1268" width="20" height="23" as="geometry" />
        </mxCell>
        <mxCell id="hV2kDuYqjvU9eCz-QwMJ-323" style="edgeStyle=orthogonalEdgeStyle;rounded=0;orthogonalLoop=1;jettySize=auto;html=1;entryX=0.5;entryY=1;entryDx=0;entryDy=0;elbow=vertical;" parent="1" source="hV2kDuYqjvU9eCz-QwMJ-321" target="hV2kDuYqjvU9eCz-QwMJ-295" edge="1">
          <mxGeometry relative="1" as="geometry" />
        </mxCell>
        <mxCell id="hV2kDuYqjvU9eCz-QwMJ-321" value="" style="ellipse;whiteSpace=wrap;html=1;aspect=fixed;" parent="1" vertex="1">
          <mxGeometry x="2122.5" y="1157.5" width="30" height="30" as="geometry" />
        </mxCell>
        <mxCell id="hV2kDuYqjvU9eCz-QwMJ-324" style="edgeStyle=orthogonalEdgeStyle;rounded=0;orthogonalLoop=1;jettySize=auto;html=1;entryX=0.5;entryY=1;entryDx=0;entryDy=0;elbow=vertical;" parent="1" source="hV2kDuYqjvU9eCz-QwMJ-322" target="hV2kDuYqjvU9eCz-QwMJ-296" edge="1">
          <mxGeometry relative="1" as="geometry" />
        </mxCell>
        <mxCell id="hV2kDuYqjvU9eCz-QwMJ-322" value="" style="ellipse;whiteSpace=wrap;html=1;aspect=fixed;" parent="1" vertex="1">
          <mxGeometry x="2122.5" y="1362.5" width="30" height="30" as="geometry" />
        </mxCell>
        <mxCell id="hV2kDuYqjvU9eCz-QwMJ-327" style="edgeStyle=orthogonalEdgeStyle;rounded=0;orthogonalLoop=1;jettySize=auto;html=1;entryX=0.5;entryY=0;entryDx=0;entryDy=0;elbow=vertical;" parent="1" source="hV2kDuYqjvU9eCz-QwMJ-325" target="hV2kDuYqjvU9eCz-QwMJ-301" edge="1">
          <mxGeometry relative="1" as="geometry" />
        </mxCell>
        <mxCell id="hV2kDuYqjvU9eCz-QwMJ-325" value="" style="ellipse;whiteSpace=wrap;html=1;aspect=fixed;" parent="1" vertex="1">
          <mxGeometry x="2660" y="1155" width="30" height="30" as="geometry" />
        </mxCell>
        <mxCell id="hV2kDuYqjvU9eCz-QwMJ-328" style="edgeStyle=orthogonalEdgeStyle;rounded=0;orthogonalLoop=1;jettySize=auto;html=1;entryX=0.5;entryY=0;entryDx=0;entryDy=0;elbow=vertical;" parent="1" source="hV2kDuYqjvU9eCz-QwMJ-326" target="hV2kDuYqjvU9eCz-QwMJ-302" edge="1">
          <mxGeometry relative="1" as="geometry" />
        </mxCell>
        <mxCell id="hV2kDuYqjvU9eCz-QwMJ-326" value="" style="ellipse;whiteSpace=wrap;html=1;aspect=fixed;" parent="1" vertex="1">
          <mxGeometry x="2660" y="1360" width="30" height="30" as="geometry" />
        </mxCell>
        <mxCell id="hV2kDuYqjvU9eCz-QwMJ-329" value="t=19+12*ε&amp;nbsp;" style="text;html=1;strokeColor=none;fillColor=none;align=center;verticalAlign=middle;whiteSpace=wrap;rounded=0;" parent="1" vertex="1">
          <mxGeometry x="2170" y="1210" width="60" height="30" as="geometry" />
        </mxCell>
        <mxCell id="hV2kDuYqjvU9eCz-QwMJ-330" value="t=29+12*ε&amp;nbsp;" style="text;html=1;strokeColor=none;fillColor=none;align=center;verticalAlign=middle;whiteSpace=wrap;rounded=0;" parent="1" vertex="1">
          <mxGeometry x="2170" y="1422.5" width="60" height="30" as="geometry" />
        </mxCell>
        <mxCell id="hV2kDuYqjvU9eCz-QwMJ-331" value="t=19+12*ε&amp;nbsp;" style="text;html=1;strokeColor=none;fillColor=none;align=center;verticalAlign=middle;whiteSpace=wrap;rounded=0;" parent="1" vertex="1">
          <mxGeometry x="2580" y="1220" width="60" height="30" as="geometry" />
        </mxCell>
        <mxCell id="hV2kDuYqjvU9eCz-QwMJ-332" value="t=29+12*ε&amp;nbsp;" style="text;html=1;strokeColor=none;fillColor=none;align=center;verticalAlign=middle;whiteSpace=wrap;rounded=0;" parent="1" vertex="1">
          <mxGeometry x="2580" y="1422.5" width="60" height="30" as="geometry" />
        </mxCell>
        <mxCell id="hV2kDuYqjvU9eCz-QwMJ-345" style="edgeStyle=orthogonalEdgeStyle;rounded=0;orthogonalLoop=1;jettySize=auto;html=1;entryX=0.75;entryY=1;entryDx=0;entryDy=0;elbow=vertical;" parent="1" source="hV2kDuYqjvU9eCz-QwMJ-333" target="hV2kDuYqjvU9eCz-QwMJ-340" edge="1">
          <mxGeometry relative="1" as="geometry" />
        </mxCell>
        <mxCell id="hV2kDuYqjvU9eCz-QwMJ-333" value="" style="ellipse;whiteSpace=wrap;html=1;aspect=fixed;" parent="1" vertex="1">
          <mxGeometry x="2072.5" y="1490" width="30" height="30" as="geometry" />
        </mxCell>
        <mxCell id="hV2kDuYqjvU9eCz-QwMJ-334" value="" style="ellipse;whiteSpace=wrap;html=1;aspect=fixed;" parent="1" vertex="1">
          <mxGeometry x="2727.5" y="1490" width="30" height="30" as="geometry" />
        </mxCell>
        <mxCell id="hV2kDuYqjvU9eCz-QwMJ-337" value="Автобус В вільний&amp;nbsp;&lt;br&gt;пункт 2" style="text;html=1;strokeColor=none;fillColor=none;align=center;verticalAlign=middle;whiteSpace=wrap;rounded=0;" parent="1" vertex="1">
          <mxGeometry x="2680" y="1530" width="125" height="30" as="geometry" />
        </mxCell>
        <mxCell id="hV2kDuYqjvU9eCz-QwMJ-338" value="Автобус В вільний&amp;nbsp;&lt;br&gt;пункт 2" style="text;html=1;strokeColor=none;fillColor=none;align=center;verticalAlign=middle;whiteSpace=wrap;rounded=0;" parent="1" vertex="1">
          <mxGeometry x="2025" y="1530" width="125" height="30" as="geometry" />
        </mxCell>
        <mxCell id="hV2kDuYqjvU9eCz-QwMJ-341" style="edgeStyle=orthogonalEdgeStyle;rounded=0;orthogonalLoop=1;jettySize=auto;html=1;entryX=0;entryY=0.5;entryDx=0;entryDy=0;elbow=vertical;" parent="1" source="hV2kDuYqjvU9eCz-QwMJ-339" target="hV2kDuYqjvU9eCz-QwMJ-321" edge="1">
          <mxGeometry relative="1" as="geometry" />
        </mxCell>
        <mxCell id="hV2kDuYqjvU9eCz-QwMJ-339" value="" style="rounded=0;whiteSpace=wrap;html=1;gradientColor=none;fillStyle=solid;fillColor=#000000;rotation=90;" parent="1" vertex="1">
          <mxGeometry x="2028.75" y="1163.75" width="80" height="17.5" as="geometry" />
        </mxCell>
        <mxCell id="hV2kDuYqjvU9eCz-QwMJ-343" style="edgeStyle=orthogonalEdgeStyle;rounded=0;orthogonalLoop=1;jettySize=auto;html=1;entryX=0;entryY=0.5;entryDx=0;entryDy=0;elbow=vertical;" parent="1" source="hV2kDuYqjvU9eCz-QwMJ-340" target="hV2kDuYqjvU9eCz-QwMJ-322" edge="1">
          <mxGeometry relative="1" as="geometry" />
        </mxCell>
        <mxCell id="hV2kDuYqjvU9eCz-QwMJ-340" value="" style="rounded=0;whiteSpace=wrap;html=1;gradientColor=none;fillStyle=solid;fillColor=#000000;rotation=90;" parent="1" vertex="1">
          <mxGeometry x="2025" y="1372.5" width="80" height="10" as="geometry" />
        </mxCell>
        <mxCell id="hV2kDuYqjvU9eCz-QwMJ-349" style="edgeStyle=orthogonalEdgeStyle;rounded=0;orthogonalLoop=1;jettySize=auto;html=1;entryX=1;entryY=0.5;entryDx=0;entryDy=0;elbow=vertical;" parent="1" source="hV2kDuYqjvU9eCz-QwMJ-346" target="hV2kDuYqjvU9eCz-QwMJ-326" edge="1">
          <mxGeometry relative="1" as="geometry" />
        </mxCell>
        <mxCell id="hV2kDuYqjvU9eCz-QwMJ-346" value="" style="rounded=0;whiteSpace=wrap;html=1;gradientColor=none;fillStyle=solid;fillColor=#000000;rotation=90;" parent="1" vertex="1">
          <mxGeometry x="2730" y="1370" width="80" height="10" as="geometry" />
        </mxCell>
        <mxCell id="hV2kDuYqjvU9eCz-QwMJ-348" style="edgeStyle=orthogonalEdgeStyle;rounded=0;orthogonalLoop=1;jettySize=auto;html=1;entryX=1;entryY=0.5;entryDx=0;entryDy=0;elbow=vertical;" parent="1" source="hV2kDuYqjvU9eCz-QwMJ-347" target="hV2kDuYqjvU9eCz-QwMJ-325" edge="1">
          <mxGeometry relative="1" as="geometry" />
        </mxCell>
        <mxCell id="hV2kDuYqjvU9eCz-QwMJ-347" value="" style="rounded=0;whiteSpace=wrap;html=1;gradientColor=none;fillStyle=solid;fillColor=#000000;rotation=90;" parent="1" vertex="1">
          <mxGeometry x="2727.5" y="1162.5" width="80" height="15" as="geometry" />
        </mxCell>
        <mxCell id="hV2kDuYqjvU9eCz-QwMJ-351" style="edgeStyle=orthogonalEdgeStyle;rounded=0;orthogonalLoop=1;jettySize=auto;html=1;entryX=0.834;entryY=0.055;entryDx=0;entryDy=0;entryPerimeter=0;elbow=vertical;" parent="1" source="hV2kDuYqjvU9eCz-QwMJ-334" target="hV2kDuYqjvU9eCz-QwMJ-346" edge="1">
          <mxGeometry relative="1" as="geometry" />
        </mxCell>
        <mxCell id="hV2kDuYqjvU9eCz-QwMJ-352" value="t=4+2*ε&amp;nbsp;" style="text;html=1;strokeColor=none;fillColor=none;align=center;verticalAlign=middle;whiteSpace=wrap;rounded=0;" parent="1" vertex="1">
          <mxGeometry x="2740" y="1210" width="60" height="30" as="geometry" />
        </mxCell>
        <mxCell id="hV2kDuYqjvU9eCz-QwMJ-353" value="t=4+2*ε&amp;nbsp;" style="text;html=1;strokeColor=none;fillColor=none;align=center;verticalAlign=middle;whiteSpace=wrap;rounded=0;" parent="1" vertex="1">
          <mxGeometry x="2740" y="1307.5" width="60" height="30" as="geometry" />
        </mxCell>
        <mxCell id="hV2kDuYqjvU9eCz-QwMJ-354" value="t=4+2*ε&amp;nbsp;" style="text;html=1;strokeColor=none;fillColor=none;align=center;verticalAlign=middle;whiteSpace=wrap;rounded=0;" parent="1" vertex="1">
          <mxGeometry x="2035" y="1217.5" width="60" height="30" as="geometry" />
        </mxCell>
        <mxCell id="hV2kDuYqjvU9eCz-QwMJ-355" value="t=4+2*ε&amp;nbsp;" style="text;html=1;strokeColor=none;fillColor=none;align=center;verticalAlign=middle;whiteSpace=wrap;rounded=0;" parent="1" vertex="1">
          <mxGeometry x="2035" y="1307.5" width="60" height="30" as="geometry" />
        </mxCell>
        <mxCell id="hV2kDuYqjvU9eCz-QwMJ-356" style="edgeStyle=orthogonalEdgeStyle;rounded=0;orthogonalLoop=1;jettySize=auto;html=1;entryX=0.5;entryY=0;entryDx=0;entryDy=0;" parent="1" source="hV2kDuYqjvU9eCz-QwMJ-358" target="hV2kDuYqjvU9eCz-QwMJ-359" edge="1">
          <mxGeometry relative="1" as="geometry" />
        </mxCell>
        <mxCell id="hV2kDuYqjvU9eCz-QwMJ-357" style="edgeStyle=orthogonalEdgeStyle;rounded=0;orthogonalLoop=1;jettySize=auto;html=1;entryX=1;entryY=0.5;entryDx=0;entryDy=0;" parent="1" edge="1">
          <mxGeometry relative="1" as="geometry">
            <mxPoint x="1732" y="1262.5" as="sourcePoint" />
            <mxPoint x="1657" y="1262.5" as="targetPoint" />
          </mxGeometry>
        </mxCell>
        <mxCell id="hV2kDuYqjvU9eCz-QwMJ-358" value="1" style="ellipse;whiteSpace=wrap;html=1;aspect=fixed;" parent="1" vertex="1">
          <mxGeometry x="1627" y="1252.5" width="30" height="30" as="geometry" />
        </mxCell>
        <mxCell id="hV2kDuYqjvU9eCz-QwMJ-361" style="edgeStyle=orthogonalEdgeStyle;rounded=0;orthogonalLoop=1;jettySize=auto;html=1;entryX=0;entryY=0.5;entryDx=0;entryDy=0;elbow=vertical;" parent="1" source="hV2kDuYqjvU9eCz-QwMJ-359" target="hV2kDuYqjvU9eCz-QwMJ-360" edge="1">
          <mxGeometry relative="1" as="geometry" />
        </mxCell>
        <mxCell id="hV2kDuYqjvU9eCz-QwMJ-359" value="" style="rounded=0;whiteSpace=wrap;html=1;gradientColor=none;fillStyle=solid;fillColor=#000000;rotation=-90;" parent="1" vertex="1">
          <mxGeometry x="1697" y="1262.5" width="80" height="10" as="geometry" />
        </mxCell>
        <mxCell id="hV2kDuYqjvU9eCz-QwMJ-364" style="edgeStyle=orthogonalEdgeStyle;rounded=0;orthogonalLoop=1;jettySize=auto;html=1;entryX=0.5;entryY=0;entryDx=0;entryDy=0;elbow=vertical;" parent="1" source="hV2kDuYqjvU9eCz-QwMJ-360" target="hV2kDuYqjvU9eCz-QwMJ-363" edge="1">
          <mxGeometry relative="1" as="geometry" />
        </mxCell>
        <mxCell id="hV2kDuYqjvU9eCz-QwMJ-367" style="edgeStyle=orthogonalEdgeStyle;rounded=0;orthogonalLoop=1;jettySize=auto;html=1;entryX=0.5;entryY=0;entryDx=0;entryDy=0;elbow=vertical;" parent="1" source="hV2kDuYqjvU9eCz-QwMJ-360" target="hV2kDuYqjvU9eCz-QwMJ-366" edge="1">
          <mxGeometry relative="1" as="geometry">
            <Array as="points">
              <mxPoint x="1783" y="1490" />
            </Array>
          </mxGeometry>
        </mxCell>
        <mxCell id="hV2kDuYqjvU9eCz-QwMJ-360" value="" style="ellipse;whiteSpace=wrap;html=1;aspect=fixed;" parent="1" vertex="1">
          <mxGeometry x="1768.25" y="1252.5" width="30" height="30" as="geometry" />
        </mxCell>
        <mxCell id="hV2kDuYqjvU9eCz-QwMJ-371" style="edgeStyle=orthogonalEdgeStyle;rounded=0;orthogonalLoop=1;jettySize=auto;html=1;entryX=0;entryY=0.5;entryDx=0;entryDy=0;elbow=vertical;" parent="1" source="hV2kDuYqjvU9eCz-QwMJ-363" target="hV2kDuYqjvU9eCz-QwMJ-368" edge="1">
          <mxGeometry relative="1" as="geometry" />
        </mxCell>
        <mxCell id="hV2kDuYqjvU9eCz-QwMJ-363" value="" style="rounded=0;whiteSpace=wrap;html=1;gradientColor=none;fillStyle=solid;fillColor=#000000;rotation=-90;" parent="1" vertex="1">
          <mxGeometry x="1795" y="1262.5" width="80" height="10" as="geometry" />
        </mxCell>
        <mxCell id="hV2kDuYqjvU9eCz-QwMJ-365" value="t=0.3+0.4*ε&amp;nbsp;" style="text;html=1;strokeColor=none;fillColor=none;align=center;verticalAlign=middle;whiteSpace=wrap;rounded=0;" parent="1" vertex="1">
          <mxGeometry x="1708.25" y="1320" width="60" height="30" as="geometry" />
        </mxCell>
        <mxCell id="hV2kDuYqjvU9eCz-QwMJ-382" style="edgeStyle=orthogonalEdgeStyle;rounded=0;orthogonalLoop=1;jettySize=auto;html=1;entryX=0;entryY=0.5;entryDx=0;entryDy=0;elbow=vertical;" parent="1" source="hV2kDuYqjvU9eCz-QwMJ-366" target="hV2kDuYqjvU9eCz-QwMJ-380" edge="1">
          <mxGeometry relative="1" as="geometry">
            <Array as="points">
              <mxPoint x="1940" y="1490" />
              <mxPoint x="1940" y="1610" />
            </Array>
          </mxGeometry>
        </mxCell>
        <mxCell id="hV2kDuYqjvU9eCz-QwMJ-383" value="/" style="edgeLabel;html=1;align=center;verticalAlign=middle;resizable=0;points=[];fontSize=24;" parent="hV2kDuYqjvU9eCz-QwMJ-382" vertex="1" connectable="0">
          <mxGeometry x="-0.0896" y="-1" relative="1" as="geometry">
            <mxPoint as="offset" />
          </mxGeometry>
        </mxCell>
        <mxCell id="hV2kDuYqjvU9eCz-QwMJ-366" value="" style="rounded=0;whiteSpace=wrap;html=1;gradientColor=none;fillStyle=solid;fillColor=#000000;rotation=-90;" parent="1" vertex="1">
          <mxGeometry x="1795" y="1480" width="80" height="20" as="geometry" />
        </mxCell>
        <mxCell id="hV2kDuYqjvU9eCz-QwMJ-372" style="edgeStyle=orthogonalEdgeStyle;rounded=0;orthogonalLoop=1;jettySize=auto;html=1;entryX=0.75;entryY=1;entryDx=0;entryDy=0;elbow=vertical;dashed=1;" parent="1" source="hV2kDuYqjvU9eCz-QwMJ-368" target="hV2kDuYqjvU9eCz-QwMJ-366" edge="1">
          <mxGeometry relative="1" as="geometry">
            <Array as="points">
              <mxPoint x="1935" y="1470" />
            </Array>
          </mxGeometry>
        </mxCell>
        <mxCell id="hV2kDuYqjvU9eCz-QwMJ-373" style="edgeStyle=orthogonalEdgeStyle;rounded=0;orthogonalLoop=1;jettySize=auto;html=1;entryX=0.5;entryY=1;entryDx=0;entryDy=0;elbow=vertical;" parent="1" source="hV2kDuYqjvU9eCz-QwMJ-368" target="hV2kDuYqjvU9eCz-QwMJ-339" edge="1">
          <mxGeometry relative="1" as="geometry" />
        </mxCell>
        <mxCell id="hV2kDuYqjvU9eCz-QwMJ-377" value="/" style="edgeLabel;html=1;align=center;verticalAlign=middle;resizable=0;points=[];fontSize=24;" parent="hV2kDuYqjvU9eCz-QwMJ-373" vertex="1" connectable="0">
          <mxGeometry x="0.6585" y="1" relative="1" as="geometry">
            <mxPoint as="offset" />
          </mxGeometry>
        </mxCell>
        <mxCell id="hV2kDuYqjvU9eCz-QwMJ-374" style="edgeStyle=orthogonalEdgeStyle;rounded=0;orthogonalLoop=1;jettySize=auto;html=1;entryX=0.5;entryY=1;entryDx=0;entryDy=0;elbow=vertical;" parent="1" source="hV2kDuYqjvU9eCz-QwMJ-368" target="hV2kDuYqjvU9eCz-QwMJ-340" edge="1">
          <mxGeometry relative="1" as="geometry" />
        </mxCell>
        <mxCell id="hV2kDuYqjvU9eCz-QwMJ-375" value="/" style="edgeLabel;html=1;align=center;verticalAlign=middle;resizable=0;points=[];fontSize=24;" parent="hV2kDuYqjvU9eCz-QwMJ-374" vertex="1" connectable="0">
          <mxGeometry x="0.6423" relative="1" as="geometry">
            <mxPoint as="offset" />
          </mxGeometry>
        </mxCell>
        <mxCell id="hV2kDuYqjvU9eCz-QwMJ-368" value="" style="ellipse;whiteSpace=wrap;html=1;aspect=fixed;" parent="1" vertex="1">
          <mxGeometry x="1920" y="1252.5" width="30" height="30" as="geometry" />
        </mxCell>
        <mxCell id="hV2kDuYqjvU9eCz-QwMJ-370" value="Черга в Пункт 1" style="text;html=1;strokeColor=none;fillColor=none;align=center;verticalAlign=middle;whiteSpace=wrap;rounded=0;" parent="1" vertex="1">
          <mxGeometry x="1872.5" y="1217.5" width="125" height="30" as="geometry" />
        </mxCell>
        <mxCell id="hV2kDuYqjvU9eCz-QwMJ-378" value="n" style="text;html=1;strokeColor=none;fillColor=none;align=center;verticalAlign=middle;whiteSpace=wrap;rounded=0;" parent="1" vertex="1">
          <mxGeometry x="1990" y="1139" width="25" height="30" as="geometry" />
        </mxCell>
        <mxCell id="hV2kDuYqjvU9eCz-QwMJ-379" value="n" style="text;html=1;strokeColor=none;fillColor=none;align=center;verticalAlign=middle;whiteSpace=wrap;rounded=0;" parent="1" vertex="1">
          <mxGeometry x="1990" y="1372.5" width="25" height="30" as="geometry" />
        </mxCell>
        <mxCell id="hV2kDuYqjvU9eCz-QwMJ-380" value="" style="ellipse;whiteSpace=wrap;html=1;aspect=fixed;" parent="1" vertex="1">
          <mxGeometry x="2370" y="1580" width="60" height="60" as="geometry" />
        </mxCell>
        <mxCell id="hV2kDuYqjvU9eCz-QwMJ-381" value="Втрачено грошей" style="text;html=1;strokeColor=none;fillColor=none;align=center;verticalAlign=middle;whiteSpace=wrap;rounded=0;" parent="1" vertex="1">
          <mxGeometry x="2337.5" y="1545" width="125" height="30" as="geometry" />
        </mxCell>
        <mxCell id="hV2kDuYqjvU9eCz-QwMJ-384" value="20" style="text;html=1;strokeColor=none;fillColor=none;align=center;verticalAlign=middle;whiteSpace=wrap;rounded=0;" parent="1" vertex="1">
          <mxGeometry x="2009" y="1582" width="23.75" height="20" as="geometry" />
        </mxCell>
        <mxCell id="hV2kDuYqjvU9eCz-QwMJ-420" style="edgeStyle=orthogonalEdgeStyle;rounded=0;orthogonalLoop=1;jettySize=auto;html=1;entryX=0.5;entryY=1;entryDx=0;entryDy=0;elbow=vertical;" parent="1" edge="1">
          <mxGeometry relative="1" as="geometry">
            <mxPoint x="3239.9999999999995" y="1262.08" as="sourcePoint" />
            <mxPoint x="3144.9999999999995" y="1262.08" as="targetPoint" />
          </mxGeometry>
        </mxCell>
        <mxCell id="hV2kDuYqjvU9eCz-QwMJ-387" value="1" style="ellipse;whiteSpace=wrap;html=1;aspect=fixed;" parent="1" vertex="1">
          <mxGeometry x="3240" y="1252.5" width="30" height="30" as="geometry" />
        </mxCell>
        <mxCell id="hV2kDuYqjvU9eCz-QwMJ-408" style="edgeStyle=orthogonalEdgeStyle;rounded=0;orthogonalLoop=1;jettySize=auto;html=1;entryX=1;entryY=0.5;entryDx=0;entryDy=0;elbow=vertical;" parent="1" source="hV2kDuYqjvU9eCz-QwMJ-389" target="hV2kDuYqjvU9eCz-QwMJ-398" edge="1">
          <mxGeometry relative="1" as="geometry" />
        </mxCell>
        <mxCell id="hV2kDuYqjvU9eCz-QwMJ-389" value="" style="rounded=0;whiteSpace=wrap;html=1;gradientColor=none;fillStyle=solid;fillColor=#000000;rotation=-90;" parent="1" vertex="1">
          <mxGeometry x="2950" y="1262.5" width="80" height="10" as="geometry" />
        </mxCell>
        <mxCell id="hV2kDuYqjvU9eCz-QwMJ-409" style="edgeStyle=orthogonalEdgeStyle;rounded=0;orthogonalLoop=1;jettySize=auto;html=1;entryX=0.5;entryY=1;entryDx=0;entryDy=0;elbow=vertical;" parent="1" source="hV2kDuYqjvU9eCz-QwMJ-392" target="hV2kDuYqjvU9eCz-QwMJ-389" edge="1">
          <mxGeometry relative="1" as="geometry" />
        </mxCell>
        <mxCell id="hV2kDuYqjvU9eCz-QwMJ-413" style="edgeStyle=orthogonalEdgeStyle;rounded=0;orthogonalLoop=1;jettySize=auto;html=1;entryX=0.5;entryY=1;entryDx=0;entryDy=0;elbow=vertical;" parent="1" source="hV2kDuYqjvU9eCz-QwMJ-392" target="hV2kDuYqjvU9eCz-QwMJ-396" edge="1">
          <mxGeometry relative="1" as="geometry">
            <Array as="points">
              <mxPoint x="3070" y="1413" />
            </Array>
          </mxGeometry>
        </mxCell>
        <mxCell id="hV2kDuYqjvU9eCz-QwMJ-392" value="" style="ellipse;whiteSpace=wrap;html=1;aspect=fixed;" parent="1" vertex="1">
          <mxGeometry x="3050" y="1252.5" width="30" height="30" as="geometry" />
        </mxCell>
        <mxCell id="hV2kDuYqjvU9eCz-QwMJ-421" style="edgeStyle=orthogonalEdgeStyle;rounded=0;orthogonalLoop=1;jettySize=auto;html=1;entryX=0;entryY=0.5;entryDx=0;entryDy=0;elbow=vertical;" parent="1" edge="1">
          <mxGeometry relative="1" as="geometry">
            <mxPoint x="3144.9999999999995" y="1272.08" as="sourcePoint" />
            <mxPoint x="3239.999999999892" y="1272.08" as="targetPoint" />
          </mxGeometry>
        </mxCell>
        <mxCell id="hV2kDuYqjvU9eCz-QwMJ-394" value="" style="rounded=0;whiteSpace=wrap;html=1;gradientColor=none;fillStyle=solid;fillColor=#000000;rotation=-90;" parent="1" vertex="1">
          <mxGeometry x="3100" y="1262.5" width="80" height="10" as="geometry" />
        </mxCell>
        <mxCell id="hV2kDuYqjvU9eCz-QwMJ-395" value="t=0.3+0.4*ε&amp;nbsp;" style="text;html=1;strokeColor=none;fillColor=none;align=center;verticalAlign=middle;whiteSpace=wrap;rounded=0;" parent="1" vertex="1">
          <mxGeometry x="3110" y="1307.5" width="60" height="30" as="geometry" />
        </mxCell>
        <mxCell id="hV2kDuYqjvU9eCz-QwMJ-417" style="edgeStyle=orthogonalEdgeStyle;rounded=0;orthogonalLoop=1;jettySize=auto;html=1;entryX=1;entryY=0.5;entryDx=0;entryDy=0;elbow=vertical;" parent="1" source="hV2kDuYqjvU9eCz-QwMJ-396" target="hV2kDuYqjvU9eCz-QwMJ-380" edge="1">
          <mxGeometry relative="1" as="geometry">
            <Array as="points">
              <mxPoint x="2900" y="1413" />
              <mxPoint x="2900" y="1610" />
            </Array>
          </mxGeometry>
        </mxCell>
        <mxCell id="hV2kDuYqjvU9eCz-QwMJ-418" value="&lt;font style=&quot;font-size: 24px;&quot;&gt;/&lt;/font&gt;" style="edgeLabel;html=1;align=center;verticalAlign=middle;resizable=0;points=[];" parent="hV2kDuYqjvU9eCz-QwMJ-417" vertex="1" connectable="0">
          <mxGeometry x="0.0031" y="-1" relative="1" as="geometry">
            <mxPoint as="offset" />
          </mxGeometry>
        </mxCell>
        <mxCell id="hV2kDuYqjvU9eCz-QwMJ-396" value="" style="rounded=0;whiteSpace=wrap;html=1;gradientColor=none;fillStyle=solid;fillColor=#000000;rotation=-90;" parent="1" vertex="1">
          <mxGeometry x="2950" y="1402.5" width="80" height="20" as="geometry" />
        </mxCell>
        <mxCell id="hV2kDuYqjvU9eCz-QwMJ-400" style="edgeStyle=orthogonalEdgeStyle;rounded=0;orthogonalLoop=1;jettySize=auto;html=1;entryX=0.5;entryY=0;entryDx=0;entryDy=0;elbow=vertical;" parent="1" source="hV2kDuYqjvU9eCz-QwMJ-398" target="hV2kDuYqjvU9eCz-QwMJ-347" edge="1">
          <mxGeometry relative="1" as="geometry" />
        </mxCell>
        <mxCell id="hV2kDuYqjvU9eCz-QwMJ-404" value="/" style="edgeLabel;html=1;align=center;verticalAlign=middle;resizable=0;points=[];fontSize=24;" parent="hV2kDuYqjvU9eCz-QwMJ-400" vertex="1" connectable="0">
          <mxGeometry x="0.6999" y="-1" relative="1" as="geometry">
            <mxPoint as="offset" />
          </mxGeometry>
        </mxCell>
        <mxCell id="hV2kDuYqjvU9eCz-QwMJ-401" style="edgeStyle=orthogonalEdgeStyle;rounded=0;orthogonalLoop=1;jettySize=auto;html=1;entryX=0.5;entryY=0;entryDx=0;entryDy=0;elbow=vertical;" parent="1" source="hV2kDuYqjvU9eCz-QwMJ-398" target="hV2kDuYqjvU9eCz-QwMJ-346" edge="1">
          <mxGeometry relative="1" as="geometry" />
        </mxCell>
        <mxCell id="hV2kDuYqjvU9eCz-QwMJ-403" value="&lt;font style=&quot;font-size: 24px;&quot;&gt;/&lt;/font&gt;" style="edgeLabel;html=1;align=center;verticalAlign=middle;resizable=0;points=[];" parent="hV2kDuYqjvU9eCz-QwMJ-401" vertex="1" connectable="0">
          <mxGeometry x="0.6195" y="1" relative="1" as="geometry">
            <mxPoint x="-7" y="-1" as="offset" />
          </mxGeometry>
        </mxCell>
        <mxCell id="hV2kDuYqjvU9eCz-QwMJ-414" style="edgeStyle=orthogonalEdgeStyle;rounded=0;orthogonalLoop=1;jettySize=auto;html=1;entryX=0.75;entryY=0;entryDx=0;entryDy=0;elbow=vertical;dashed=1;" parent="1" source="hV2kDuYqjvU9eCz-QwMJ-398" target="hV2kDuYqjvU9eCz-QwMJ-396" edge="1">
          <mxGeometry relative="1" as="geometry">
            <Array as="points">
              <mxPoint x="2905" y="1393" />
            </Array>
          </mxGeometry>
        </mxCell>
        <mxCell id="hV2kDuYqjvU9eCz-QwMJ-415" value="&lt;font style=&quot;font-size: 24px;&quot;&gt;/&lt;/font&gt;" style="edgeLabel;html=1;align=center;verticalAlign=middle;resizable=0;points=[];" parent="hV2kDuYqjvU9eCz-QwMJ-414" vertex="1" connectable="0">
          <mxGeometry x="0.5974" relative="1" as="geometry">
            <mxPoint as="offset" />
          </mxGeometry>
        </mxCell>
        <mxCell id="hV2kDuYqjvU9eCz-QwMJ-398" value="" style="ellipse;whiteSpace=wrap;html=1;aspect=fixed;" parent="1" vertex="1">
          <mxGeometry x="2890" y="1252.5" width="30" height="30" as="geometry" />
        </mxCell>
        <mxCell id="hV2kDuYqjvU9eCz-QwMJ-405" value="n" style="text;html=1;strokeColor=none;fillColor=none;align=center;verticalAlign=middle;whiteSpace=wrap;rounded=0;" parent="1" vertex="1">
          <mxGeometry x="2805" y="1140" width="15" height="20" as="geometry" />
        </mxCell>
        <mxCell id="hV2kDuYqjvU9eCz-QwMJ-406" value="n" style="text;html=1;strokeColor=none;fillColor=none;align=center;verticalAlign=middle;whiteSpace=wrap;rounded=0;" parent="1" vertex="1">
          <mxGeometry x="2805" y="1382.5" width="20" height="20" as="geometry" />
        </mxCell>
        <mxCell id="hV2kDuYqjvU9eCz-QwMJ-407" value="Черга в Пункт 2" style="text;html=1;strokeColor=none;fillColor=none;align=center;verticalAlign=middle;whiteSpace=wrap;rounded=0;" parent="1" vertex="1">
          <mxGeometry x="2842.5" y="1212.5" width="125" height="30" as="geometry" />
        </mxCell>
        <mxCell id="hV2kDuYqjvU9eCz-QwMJ-411" style="edgeStyle=orthogonalEdgeStyle;rounded=0;orthogonalLoop=1;jettySize=auto;html=1;entryX=1.107;entryY=0.517;entryDx=0;entryDy=0;entryPerimeter=0;elbow=vertical;" parent="1" source="hV2kDuYqjvU9eCz-QwMJ-394" target="hV2kDuYqjvU9eCz-QwMJ-392" edge="1">
          <mxGeometry relative="1" as="geometry" />
        </mxCell>
        <mxCell id="hV2kDuYqjvU9eCz-QwMJ-416" value="30" style="text;html=1;strokeColor=none;fillColor=none;align=center;verticalAlign=middle;whiteSpace=wrap;rounded=0;" parent="1" vertex="1">
          <mxGeometry x="2936" y="1366" width="20" height="20" as="geometry" />
        </mxCell>
        <mxCell id="hV2kDuYqjvU9eCz-QwMJ-419" value="20" style="text;html=1;strokeColor=none;fillColor=none;align=center;verticalAlign=middle;whiteSpace=wrap;rounded=0;" parent="1" vertex="1">
          <mxGeometry x="2794" y="1579" width="23.75" height="20" as="geometry" />
        </mxCell>
        <mxCell id="hV2kDuYqjvU9eCz-QwMJ-422" value="&lt;font size=&quot;1&quot; style=&quot;&quot;&gt;&lt;b style=&quot;font-size: 48px;&quot;&gt;Task2-2&lt;br&gt;&lt;/b&gt;&lt;/font&gt;" style="text;html=1;strokeColor=none;fillColor=none;align=center;verticalAlign=middle;whiteSpace=wrap;rounded=0;" parent="1" vertex="1">
          <mxGeometry x="2740" y="10" width="210" height="70" as="geometry" />
        </mxCell>
        <mxCell id="hV2kDuYqjvU9eCz-QwMJ-425" style="edgeStyle=orthogonalEdgeStyle;rounded=0;orthogonalLoop=1;jettySize=auto;html=1;entryX=0.5;entryY=1;entryDx=0;entryDy=0;elbow=vertical;" parent="1" source="hV2kDuYqjvU9eCz-QwMJ-423" target="hV2kDuYqjvU9eCz-QwMJ-424" edge="1">
          <mxGeometry relative="1" as="geometry" />
        </mxCell>
        <mxCell id="hV2kDuYqjvU9eCz-QwMJ-447" style="edgeStyle=orthogonalEdgeStyle;rounded=0;orthogonalLoop=1;jettySize=auto;html=1;entryX=0.25;entryY=1;entryDx=0;entryDy=0;elbow=vertical;curved=1;dashed=1;" parent="1" source="hV2kDuYqjvU9eCz-QwMJ-423" target="hV2kDuYqjvU9eCz-QwMJ-444" edge="1">
          <mxGeometry relative="1" as="geometry">
            <Array as="points">
              <mxPoint x="2660" y="210" />
              <mxPoint x="2660" y="280" />
              <mxPoint x="2811" y="280" />
              <mxPoint x="2811" y="385" />
            </Array>
          </mxGeometry>
        </mxCell>
        <mxCell id="hV2kDuYqjvU9eCz-QwMJ-491" style="rounded=0;orthogonalLoop=1;jettySize=auto;html=1;entryX=0.25;entryY=1;entryDx=0;entryDy=0;elbow=vertical;edgeStyle=orthogonalEdgeStyle;curved=1;dashed=1;exitX=0.5;exitY=1;exitDx=0;exitDy=0;" parent="1" source="hV2kDuYqjvU9eCz-QwMJ-423" target="hV2kDuYqjvU9eCz-QwMJ-486" edge="1">
          <mxGeometry relative="1" as="geometry">
            <Array as="points">
              <mxPoint x="2710" y="210" />
              <mxPoint x="2710" y="525" />
            </Array>
          </mxGeometry>
        </mxCell>
        <mxCell id="hV2kDuYqjvU9eCz-QwMJ-423" value="" style="ellipse;whiteSpace=wrap;html=1;aspect=fixed;" parent="1" vertex="1">
          <mxGeometry x="2670" y="180" width="30" height="30" as="geometry" />
        </mxCell>
        <mxCell id="hV2kDuYqjvU9eCz-QwMJ-431" style="edgeStyle=orthogonalEdgeStyle;rounded=0;orthogonalLoop=1;jettySize=auto;html=1;entryX=0;entryY=0.5;entryDx=0;entryDy=0;elbow=vertical;" parent="1" source="hV2kDuYqjvU9eCz-QwMJ-424" target="hV2kDuYqjvU9eCz-QwMJ-430" edge="1">
          <mxGeometry relative="1" as="geometry" />
        </mxCell>
        <mxCell id="hV2kDuYqjvU9eCz-QwMJ-424" value="" style="rounded=0;whiteSpace=wrap;html=1;gradientColor=none;fillStyle=solid;fillColor=#000000;rotation=90;" parent="1" vertex="1">
          <mxGeometry x="2750" y="185" width="80" height="20" as="geometry" />
        </mxCell>
        <mxCell id="hV2kDuYqjvU9eCz-QwMJ-550" style="edgeStyle=orthogonalEdgeStyle;rounded=0;orthogonalLoop=1;jettySize=auto;html=1;elbow=vertical;" parent="1" source="hV2kDuYqjvU9eCz-QwMJ-426" edge="1">
          <mxGeometry relative="1" as="geometry">
            <mxPoint x="2780" y="230" as="targetPoint" />
            <Array as="points">
              <mxPoint x="2690" y="230" />
              <mxPoint x="2780" y="230" />
            </Array>
          </mxGeometry>
        </mxCell>
        <mxCell id="hV2kDuYqjvU9eCz-QwMJ-426" value="1" style="ellipse;whiteSpace=wrap;html=1;aspect=fixed;" parent="1" vertex="1">
          <mxGeometry x="2670" y="390" width="30" height="30" as="geometry" />
        </mxCell>
        <mxCell id="hV2kDuYqjvU9eCz-QwMJ-428" value="t=7+2*ε&amp;nbsp;" style="text;html=1;strokeColor=none;fillColor=none;align=center;verticalAlign=middle;whiteSpace=wrap;rounded=0;" parent="1" vertex="1">
          <mxGeometry x="2757.75" y="230" width="60" height="30" as="geometry" />
        </mxCell>
        <mxCell id="hV2kDuYqjvU9eCz-QwMJ-429" value="Захоплення 1" style="text;html=1;strokeColor=none;fillColor=none;align=center;verticalAlign=middle;whiteSpace=wrap;rounded=0;" parent="1" vertex="1">
          <mxGeometry x="2750" y="120" width="82.25" height="30" as="geometry" />
        </mxCell>
        <mxCell id="hV2kDuYqjvU9eCz-QwMJ-433" style="edgeStyle=orthogonalEdgeStyle;rounded=0;orthogonalLoop=1;jettySize=auto;html=1;entryX=0.5;entryY=1;entryDx=0;entryDy=0;elbow=vertical;" parent="1" source="hV2kDuYqjvU9eCz-QwMJ-430" target="hV2kDuYqjvU9eCz-QwMJ-432" edge="1">
          <mxGeometry relative="1" as="geometry" />
        </mxCell>
        <mxCell id="hV2kDuYqjvU9eCz-QwMJ-430" value="" style="ellipse;whiteSpace=wrap;html=1;aspect=fixed;" parent="1" vertex="1">
          <mxGeometry x="2842.5" y="180" width="30" height="30" as="geometry" />
        </mxCell>
        <mxCell id="hV2kDuYqjvU9eCz-QwMJ-449" style="edgeStyle=orthogonalEdgeStyle;rounded=0;orthogonalLoop=1;jettySize=auto;html=1;entryX=0;entryY=0.5;entryDx=0;entryDy=0;elbow=vertical;" parent="1" source="hV2kDuYqjvU9eCz-QwMJ-432" target="hV2kDuYqjvU9eCz-QwMJ-448" edge="1">
          <mxGeometry relative="1" as="geometry" />
        </mxCell>
        <mxCell id="hV2kDuYqjvU9eCz-QwMJ-432" value="" style="rounded=0;whiteSpace=wrap;html=1;gradientColor=none;fillStyle=solid;fillColor=#000000;rotation=90;" parent="1" vertex="1">
          <mxGeometry x="2887.5" y="190" width="80" height="10" as="geometry" />
        </mxCell>
        <mxCell id="hV2kDuYqjvU9eCz-QwMJ-434" value="Переміщення 1" style="text;html=1;strokeColor=none;fillColor=none;align=center;verticalAlign=middle;whiteSpace=wrap;rounded=0;" parent="1" vertex="1">
          <mxGeometry x="2880.69" y="120" width="93.62" height="30" as="geometry" />
        </mxCell>
        <mxCell id="hV2kDuYqjvU9eCz-QwMJ-435" value="t=6" style="text;html=1;strokeColor=none;fillColor=none;align=center;verticalAlign=middle;whiteSpace=wrap;rounded=0;" parent="1" vertex="1">
          <mxGeometry x="2897.5" y="235" width="60" height="30" as="geometry" />
        </mxCell>
        <mxCell id="hV2kDuYqjvU9eCz-QwMJ-437" style="edgeStyle=orthogonalEdgeStyle;rounded=0;orthogonalLoop=1;jettySize=auto;html=1;entryX=0;entryY=0.5;entryDx=0;entryDy=0;elbow=vertical;" parent="1" source="hV2kDuYqjvU9eCz-QwMJ-436" target="hV2kDuYqjvU9eCz-QwMJ-423" edge="1">
          <mxGeometry relative="1" as="geometry" />
        </mxCell>
        <mxCell id="hV2kDuYqjvU9eCz-QwMJ-441" style="rounded=0;orthogonalLoop=1;jettySize=auto;html=1;entryX=1;entryY=0.5;entryDx=0;entryDy=0;elbow=vertical;" parent="1" edge="1">
          <mxGeometry relative="1" as="geometry">
            <mxPoint x="2615" y="199.62000000000006" as="sourcePoint" />
            <mxPoint x="2560" y="199.62000000000006" as="targetPoint" />
          </mxGeometry>
        </mxCell>
        <mxCell id="hV2kDuYqjvU9eCz-QwMJ-436" value="" style="rounded=0;whiteSpace=wrap;html=1;gradientColor=none;fillStyle=solid;fillColor=#000000;rotation=90;" parent="1" vertex="1">
          <mxGeometry x="2580" y="190" width="80" height="10" as="geometry" />
        </mxCell>
        <mxCell id="hV2kDuYqjvU9eCz-QwMJ-439" style="rounded=0;orthogonalLoop=1;jettySize=auto;html=1;entryX=0.5;entryY=1;entryDx=0;entryDy=0;elbow=vertical;" parent="1" edge="1">
          <mxGeometry relative="1" as="geometry">
            <mxPoint x="2560" y="190.00000000000006" as="sourcePoint" />
            <mxPoint x="2615" y="190.00000000000006" as="targetPoint" />
          </mxGeometry>
        </mxCell>
        <mxCell id="hV2kDuYqjvU9eCz-QwMJ-438" value="1" style="ellipse;whiteSpace=wrap;html=1;aspect=fixed;" parent="1" vertex="1">
          <mxGeometry x="2530" y="180" width="30" height="30" as="geometry" />
        </mxCell>
        <mxCell id="hV2kDuYqjvU9eCz-QwMJ-442" value="t=-40ln*ε&amp;nbsp;" style="text;html=1;strokeColor=none;fillColor=none;align=center;verticalAlign=middle;whiteSpace=wrap;rounded=0;" parent="1" vertex="1">
          <mxGeometry x="2590" y="235" width="60" height="30" as="geometry" />
        </mxCell>
        <mxCell id="hV2kDuYqjvU9eCz-QwMJ-443" value="Пункт прибуття" style="text;html=1;strokeColor=none;fillColor=none;align=center;verticalAlign=middle;whiteSpace=wrap;rounded=0;" parent="1" vertex="1">
          <mxGeometry x="2643.88" y="140" width="82.25" height="30" as="geometry" />
        </mxCell>
        <mxCell id="hV2kDuYqjvU9eCz-QwMJ-446" style="edgeStyle=orthogonalEdgeStyle;rounded=0;orthogonalLoop=1;jettySize=auto;html=1;entryX=1;entryY=0.5;entryDx=0;entryDy=0;elbow=vertical;" parent="1" source="hV2kDuYqjvU9eCz-QwMJ-444" target="hV2kDuYqjvU9eCz-QwMJ-426" edge="1">
          <mxGeometry relative="1" as="geometry" />
        </mxCell>
        <mxCell id="hV2kDuYqjvU9eCz-QwMJ-444" value="" style="rounded=0;whiteSpace=wrap;html=1;gradientColor=none;fillStyle=solid;fillColor=#000000;rotation=90;" parent="1" vertex="1">
          <mxGeometry x="2887.5" y="400" width="80" height="10" as="geometry" />
        </mxCell>
        <mxCell id="hV2kDuYqjvU9eCz-QwMJ-445" value="t=6" style="text;html=1;strokeColor=none;fillColor=none;align=center;verticalAlign=middle;whiteSpace=wrap;rounded=0;" parent="1" vertex="1">
          <mxGeometry x="2897.5" y="445" width="60" height="30" as="geometry" />
        </mxCell>
        <mxCell id="hV2kDuYqjvU9eCz-QwMJ-451" style="edgeStyle=orthogonalEdgeStyle;rounded=0;orthogonalLoop=1;jettySize=auto;html=1;entryX=0.5;entryY=1;entryDx=0;entryDy=0;elbow=vertical;" parent="1" source="hV2kDuYqjvU9eCz-QwMJ-448" target="hV2kDuYqjvU9eCz-QwMJ-450" edge="1">
          <mxGeometry relative="1" as="geometry" />
        </mxCell>
        <mxCell id="hV2kDuYqjvU9eCz-QwMJ-448" value="" style="ellipse;whiteSpace=wrap;html=1;aspect=fixed;" parent="1" vertex="1">
          <mxGeometry x="2980" y="180" width="30" height="30" as="geometry" />
        </mxCell>
        <mxCell id="hV2kDuYqjvU9eCz-QwMJ-455" style="edgeStyle=orthogonalEdgeStyle;rounded=0;orthogonalLoop=1;jettySize=auto;html=1;entryX=0;entryY=0.5;entryDx=0;entryDy=0;elbow=vertical;" parent="1" source="hV2kDuYqjvU9eCz-QwMJ-450" target="hV2kDuYqjvU9eCz-QwMJ-454" edge="1">
          <mxGeometry relative="1" as="geometry" />
        </mxCell>
        <mxCell id="hV2kDuYqjvU9eCz-QwMJ-459" style="edgeStyle=orthogonalEdgeStyle;rounded=0;orthogonalLoop=1;jettySize=auto;html=1;entryX=0;entryY=0;entryDx=0;entryDy=0;elbow=vertical;" parent="1" source="hV2kDuYqjvU9eCz-QwMJ-450" target="hV2kDuYqjvU9eCz-QwMJ-457" edge="1">
          <mxGeometry relative="1" as="geometry">
            <Array as="points">
              <mxPoint x="3110" y="195" />
              <mxPoint x="3110" y="382" />
            </Array>
          </mxGeometry>
        </mxCell>
        <mxCell id="hV2kDuYqjvU9eCz-QwMJ-450" value="" style="rounded=0;whiteSpace=wrap;html=1;gradientColor=none;fillStyle=solid;fillColor=#000000;rotation=90;" parent="1" vertex="1">
          <mxGeometry x="3020" y="190" width="80" height="10" as="geometry" />
        </mxCell>
        <mxCell id="hV2kDuYqjvU9eCz-QwMJ-452" value="Вивільнення 1" style="text;html=1;strokeColor=none;fillColor=none;align=center;verticalAlign=middle;whiteSpace=wrap;rounded=0;" parent="1" vertex="1">
          <mxGeometry x="3013.19" y="120" width="93.62" height="30" as="geometry" />
        </mxCell>
        <mxCell id="hV2kDuYqjvU9eCz-QwMJ-453" value="t=7+2*ε&amp;nbsp;" style="text;html=1;strokeColor=none;fillColor=none;align=center;verticalAlign=middle;whiteSpace=wrap;rounded=0;" parent="1" vertex="1">
          <mxGeometry x="3030" y="230" width="60" height="30" as="geometry" />
        </mxCell>
        <mxCell id="hV2kDuYqjvU9eCz-QwMJ-466" style="edgeStyle=orthogonalEdgeStyle;rounded=0;orthogonalLoop=1;jettySize=auto;html=1;entryX=0.5;entryY=1;entryDx=0;entryDy=0;elbow=vertical;" parent="1" source="hV2kDuYqjvU9eCz-QwMJ-454" target="hV2kDuYqjvU9eCz-QwMJ-465" edge="1">
          <mxGeometry relative="1" as="geometry" />
        </mxCell>
        <mxCell id="hV2kDuYqjvU9eCz-QwMJ-454" value="" style="ellipse;whiteSpace=wrap;html=1;aspect=fixed;" parent="1" vertex="1">
          <mxGeometry x="3140" y="180" width="30" height="30" as="geometry" />
        </mxCell>
        <mxCell id="hV2kDuYqjvU9eCz-QwMJ-456" value="Черга 1 верстата" style="text;html=1;strokeColor=none;fillColor=none;align=center;verticalAlign=middle;whiteSpace=wrap;rounded=0;" parent="1" vertex="1">
          <mxGeometry x="3108.19" y="140" width="93.62" height="30" as="geometry" />
        </mxCell>
        <mxCell id="hV2kDuYqjvU9eCz-QwMJ-474" style="edgeStyle=orthogonalEdgeStyle;rounded=0;orthogonalLoop=1;jettySize=auto;html=1;entryX=0.75;entryY=1;entryDx=0;entryDy=0;elbow=vertical;" parent="1" source="hV2kDuYqjvU9eCz-QwMJ-457" target="hV2kDuYqjvU9eCz-QwMJ-471" edge="1">
          <mxGeometry relative="1" as="geometry" />
        </mxCell>
        <mxCell id="hV2kDuYqjvU9eCz-QwMJ-483" style="edgeStyle=orthogonalEdgeStyle;rounded=0;orthogonalLoop=1;jettySize=auto;html=1;entryX=0.5;entryY=0;entryDx=0;entryDy=0;elbow=vertical;" parent="1" source="hV2kDuYqjvU9eCz-QwMJ-457" target="hV2kDuYqjvU9eCz-QwMJ-444" edge="1">
          <mxGeometry relative="1" as="geometry" />
        </mxCell>
        <mxCell id="hV2kDuYqjvU9eCz-QwMJ-457" value="1" style="ellipse;whiteSpace=wrap;html=1;aspect=fixed;" parent="1" vertex="1">
          <mxGeometry x="3201.81" y="390" width="30" height="30" as="geometry" />
        </mxCell>
        <mxCell id="hV2kDuYqjvU9eCz-QwMJ-458" value="Позиція 2" style="text;html=1;strokeColor=none;fillColor=none;align=center;verticalAlign=middle;whiteSpace=wrap;rounded=0;" parent="1" vertex="1">
          <mxGeometry x="3160.9" y="345" width="111.81" height="30" as="geometry" />
        </mxCell>
        <mxCell id="hV2kDuYqjvU9eCz-QwMJ-461" value="Вільні слоти верстата" style="text;html=1;strokeColor=none;fillColor=none;align=center;verticalAlign=middle;whiteSpace=wrap;rounded=0;" parent="1" vertex="1">
          <mxGeometry x="3182.5" y="42.5" width="95" height="30" as="geometry" />
        </mxCell>
        <mxCell id="hV2kDuYqjvU9eCz-QwMJ-462" value="3" style="ellipse;whiteSpace=wrap;html=1;aspect=fixed;strokeColor=#000000;" parent="1" vertex="1">
          <mxGeometry x="3215" y="77.5" width="30" height="30" as="geometry" />
        </mxCell>
        <mxCell id="hV2kDuYqjvU9eCz-QwMJ-463" value="" style="curved=1;endArrow=classic;html=1;rounded=0;exitX=0.123;exitY=0.786;exitDx=0;exitDy=0;exitPerimeter=0;entryX=1.067;entryY=0.398;entryDx=0;entryDy=0;entryPerimeter=0;shadow=0;" parent="1" source="hV2kDuYqjvU9eCz-QwMJ-465" target="hV2kDuYqjvU9eCz-QwMJ-462" edge="1">
          <mxGeometry width="50" height="50" relative="1" as="geometry">
            <mxPoint x="3233.8149999999996" y="159.83999999999935" as="sourcePoint" />
            <mxPoint x="3289" y="87.5" as="targetPoint" />
            <Array as="points">
              <mxPoint x="3260" y="162.5" />
              <mxPoint x="3280" y="157.5" />
              <mxPoint x="3290" y="127.5" />
              <mxPoint x="3280" y="87.5" />
            </Array>
          </mxGeometry>
        </mxCell>
        <mxCell id="hV2kDuYqjvU9eCz-QwMJ-464" value="" style="curved=1;endArrow=classic;html=1;rounded=0;exitX=0.1;exitY=0.852;exitDx=0;exitDy=0;exitPerimeter=0;entryX=0;entryY=0.5;entryDx=0;entryDy=0;" parent="1" source="hV2kDuYqjvU9eCz-QwMJ-465" target="hV2kDuYqjvU9eCz-QwMJ-462" edge="1">
          <mxGeometry width="50" height="50" relative="1" as="geometry">
            <mxPoint x="3218.47" y="159.75999999999942" as="sourcePoint" />
            <mxPoint x="3185" y="87.5" as="targetPoint" />
            <Array as="points">
              <mxPoint x="3170" y="162.5" />
              <mxPoint x="3170" y="92.5" />
            </Array>
          </mxGeometry>
        </mxCell>
        <mxCell id="hV2kDuYqjvU9eCz-QwMJ-468" style="edgeStyle=orthogonalEdgeStyle;rounded=0;orthogonalLoop=1;jettySize=auto;html=1;entryX=0;entryY=0.5;entryDx=0;entryDy=0;elbow=vertical;" parent="1" source="hV2kDuYqjvU9eCz-QwMJ-465" target="hV2kDuYqjvU9eCz-QwMJ-467" edge="1">
          <mxGeometry relative="1" as="geometry" />
        </mxCell>
        <mxCell id="hV2kDuYqjvU9eCz-QwMJ-465" value="" style="rounded=0;whiteSpace=wrap;html=1;gradientColor=none;fillStyle=solid;fillColor=#000000;rotation=90;" parent="1" vertex="1">
          <mxGeometry x="3190" y="190" width="80" height="10" as="geometry" />
        </mxCell>
        <mxCell id="hV2kDuYqjvU9eCz-QwMJ-473" style="edgeStyle=orthogonalEdgeStyle;rounded=0;orthogonalLoop=1;jettySize=auto;html=1;entryX=0.5;entryY=1;entryDx=0;entryDy=0;elbow=vertical;" parent="1" source="hV2kDuYqjvU9eCz-QwMJ-467" target="hV2kDuYqjvU9eCz-QwMJ-471" edge="1">
          <mxGeometry relative="1" as="geometry" />
        </mxCell>
        <mxCell id="hV2kDuYqjvU9eCz-QwMJ-490" style="rounded=0;orthogonalLoop=1;jettySize=auto;html=1;entryX=0.25;entryY=1;entryDx=0;entryDy=0;elbow=vertical;dashed=1;edgeStyle=orthogonalEdgeStyle;curved=1;" parent="1" source="hV2kDuYqjvU9eCz-QwMJ-467" target="hV2kDuYqjvU9eCz-QwMJ-482" edge="1">
          <mxGeometry relative="1" as="geometry">
            <Array as="points">
              <mxPoint x="3310" y="395" />
            </Array>
          </mxGeometry>
        </mxCell>
        <mxCell id="hV2kDuYqjvU9eCz-QwMJ-467" value="" style="ellipse;whiteSpace=wrap;html=1;aspect=fixed;" parent="1" vertex="1">
          <mxGeometry x="3290" y="180" width="30" height="30" as="geometry" />
        </mxCell>
        <mxCell id="hV2kDuYqjvU9eCz-QwMJ-469" value="Черга до робота 2" style="text;html=1;strokeColor=none;fillColor=none;align=center;verticalAlign=middle;whiteSpace=wrap;rounded=0;" parent="1" vertex="1">
          <mxGeometry x="3239.09" y="140" width="131.81" height="30" as="geometry" />
        </mxCell>
        <mxCell id="hV2kDuYqjvU9eCz-QwMJ-470" value="t=10*(norm(ε))+60" style="text;html=1;strokeColor=none;fillColor=none;align=center;verticalAlign=middle;whiteSpace=wrap;rounded=0;" parent="1" vertex="1">
          <mxGeometry x="3182.5" y="235" width="103" height="30" as="geometry" />
        </mxCell>
        <mxCell id="hV2kDuYqjvU9eCz-QwMJ-477" style="edgeStyle=orthogonalEdgeStyle;rounded=0;orthogonalLoop=1;jettySize=auto;html=1;entryX=0;entryY=0.5;entryDx=0;entryDy=0;elbow=vertical;" parent="1" source="hV2kDuYqjvU9eCz-QwMJ-471" target="hV2kDuYqjvU9eCz-QwMJ-476" edge="1">
          <mxGeometry relative="1" as="geometry" />
        </mxCell>
        <mxCell id="hV2kDuYqjvU9eCz-QwMJ-471" value="" style="rounded=0;whiteSpace=wrap;html=1;gradientColor=none;fillStyle=solid;fillColor=#000000;rotation=90;" parent="1" vertex="1">
          <mxGeometry x="3440" y="185" width="80" height="20" as="geometry" />
        </mxCell>
        <mxCell id="hV2kDuYqjvU9eCz-QwMJ-472" value="Захоплення 2" style="text;html=1;strokeColor=none;fillColor=none;align=center;verticalAlign=middle;whiteSpace=wrap;rounded=0;" parent="1" vertex="1">
          <mxGeometry x="3438.88" y="120" width="82.25" height="30" as="geometry" />
        </mxCell>
        <mxCell id="hV2kDuYqjvU9eCz-QwMJ-475" value="t=7+2*ε&amp;nbsp;" style="text;html=1;strokeColor=none;fillColor=none;align=center;verticalAlign=middle;whiteSpace=wrap;rounded=0;" parent="1" vertex="1">
          <mxGeometry x="3450.01" y="240" width="60" height="30" as="geometry" />
        </mxCell>
        <mxCell id="hV2kDuYqjvU9eCz-QwMJ-481" style="edgeStyle=orthogonalEdgeStyle;rounded=0;orthogonalLoop=1;jettySize=auto;html=1;entryX=0.5;entryY=1;entryDx=0;entryDy=0;elbow=vertical;" parent="1" source="hV2kDuYqjvU9eCz-QwMJ-476" target="hV2kDuYqjvU9eCz-QwMJ-478" edge="1">
          <mxGeometry relative="1" as="geometry" />
        </mxCell>
        <mxCell id="hV2kDuYqjvU9eCz-QwMJ-476" value="" style="ellipse;whiteSpace=wrap;html=1;aspect=fixed;" parent="1" vertex="1">
          <mxGeometry x="3540" y="180" width="30" height="30" as="geometry" />
        </mxCell>
        <mxCell id="hV2kDuYqjvU9eCz-QwMJ-493" style="edgeStyle=orthogonalEdgeStyle;rounded=0;orthogonalLoop=1;jettySize=auto;html=1;entryX=0;entryY=0.5;entryDx=0;entryDy=0;elbow=vertical;" parent="1" source="hV2kDuYqjvU9eCz-QwMJ-478" target="hV2kDuYqjvU9eCz-QwMJ-492" edge="1">
          <mxGeometry relative="1" as="geometry" />
        </mxCell>
        <mxCell id="hV2kDuYqjvU9eCz-QwMJ-478" value="" style="rounded=0;whiteSpace=wrap;html=1;gradientColor=none;fillStyle=solid;fillColor=#000000;rotation=90;" parent="1" vertex="1">
          <mxGeometry x="3586.81" y="190" width="80" height="10" as="geometry" />
        </mxCell>
        <mxCell id="hV2kDuYqjvU9eCz-QwMJ-479" value="Переміщення 2" style="text;html=1;strokeColor=none;fillColor=none;align=center;verticalAlign=middle;whiteSpace=wrap;rounded=0;" parent="1" vertex="1">
          <mxGeometry x="3580" y="120" width="93.62" height="30" as="geometry" />
        </mxCell>
        <mxCell id="hV2kDuYqjvU9eCz-QwMJ-480" value="t=7" style="text;html=1;strokeColor=none;fillColor=none;align=center;verticalAlign=middle;whiteSpace=wrap;rounded=0;" parent="1" vertex="1">
          <mxGeometry x="3596.81" y="240" width="60" height="30" as="geometry" />
        </mxCell>
        <mxCell id="hV2kDuYqjvU9eCz-QwMJ-485" style="edgeStyle=orthogonalEdgeStyle;rounded=0;orthogonalLoop=1;jettySize=auto;html=1;entryX=1;entryY=1;entryDx=0;entryDy=0;elbow=vertical;" parent="1" source="hV2kDuYqjvU9eCz-QwMJ-482" target="hV2kDuYqjvU9eCz-QwMJ-457" edge="1">
          <mxGeometry relative="1" as="geometry" />
        </mxCell>
        <mxCell id="hV2kDuYqjvU9eCz-QwMJ-482" value="" style="rounded=0;whiteSpace=wrap;html=1;gradientColor=none;fillStyle=solid;fillColor=#000000;rotation=90;" parent="1" vertex="1">
          <mxGeometry x="3580" y="410" width="80" height="10" as="geometry" />
        </mxCell>
        <mxCell id="hV2kDuYqjvU9eCz-QwMJ-487" style="edgeStyle=orthogonalEdgeStyle;rounded=0;orthogonalLoop=1;jettySize=auto;html=1;entryX=0.5;entryY=1;entryDx=0;entryDy=0;elbow=vertical;" parent="1" source="hV2kDuYqjvU9eCz-QwMJ-486" target="hV2kDuYqjvU9eCz-QwMJ-457" edge="1">
          <mxGeometry relative="1" as="geometry" />
        </mxCell>
        <mxCell id="hV2kDuYqjvU9eCz-QwMJ-486" value="" style="rounded=0;whiteSpace=wrap;html=1;gradientColor=none;fillStyle=solid;fillColor=#000000;rotation=90;" parent="1" vertex="1">
          <mxGeometry x="3580" y="540" width="80" height="10" as="geometry" />
        </mxCell>
        <mxCell id="hV2kDuYqjvU9eCz-QwMJ-488" value="t=7" style="text;html=1;strokeColor=none;fillColor=none;align=center;verticalAlign=middle;whiteSpace=wrap;rounded=0;" parent="1" vertex="1">
          <mxGeometry x="3590" y="455" width="60" height="30" as="geometry" />
        </mxCell>
        <mxCell id="hV2kDuYqjvU9eCz-QwMJ-489" value="t=7" style="text;html=1;strokeColor=none;fillColor=none;align=center;verticalAlign=middle;whiteSpace=wrap;rounded=0;" parent="1" vertex="1">
          <mxGeometry x="3590" y="585" width="60" height="30" as="geometry" />
        </mxCell>
        <mxCell id="hV2kDuYqjvU9eCz-QwMJ-495" style="edgeStyle=orthogonalEdgeStyle;rounded=0;orthogonalLoop=1;jettySize=auto;html=1;entryX=0.5;entryY=1;entryDx=0;entryDy=0;elbow=vertical;" parent="1" source="hV2kDuYqjvU9eCz-QwMJ-492" target="hV2kDuYqjvU9eCz-QwMJ-494" edge="1">
          <mxGeometry relative="1" as="geometry" />
        </mxCell>
        <mxCell id="hV2kDuYqjvU9eCz-QwMJ-492" value="" style="ellipse;whiteSpace=wrap;html=1;aspect=fixed;" parent="1" vertex="1">
          <mxGeometry x="3691" y="180" width="30" height="30" as="geometry" />
        </mxCell>
        <mxCell id="hV2kDuYqjvU9eCz-QwMJ-500" style="edgeStyle=orthogonalEdgeStyle;rounded=0;orthogonalLoop=1;jettySize=auto;html=1;entryX=0;entryY=0.5;entryDx=0;entryDy=0;elbow=vertical;" parent="1" source="hV2kDuYqjvU9eCz-QwMJ-494" target="hV2kDuYqjvU9eCz-QwMJ-498" edge="1">
          <mxGeometry relative="1" as="geometry" />
        </mxCell>
        <mxCell id="hV2kDuYqjvU9eCz-QwMJ-517" style="edgeStyle=orthogonalEdgeStyle;rounded=0;orthogonalLoop=1;jettySize=auto;html=1;entryX=0;entryY=0;entryDx=0;entryDy=0;elbow=vertical;" parent="1" source="hV2kDuYqjvU9eCz-QwMJ-494" target="hV2kDuYqjvU9eCz-QwMJ-502" edge="1">
          <mxGeometry relative="1" as="geometry">
            <Array as="points">
              <mxPoint x="3830" y="195" />
              <mxPoint x="3830" y="404" />
            </Array>
          </mxGeometry>
        </mxCell>
        <mxCell id="hV2kDuYqjvU9eCz-QwMJ-494" value="" style="rounded=0;whiteSpace=wrap;html=1;gradientColor=none;fillStyle=solid;fillColor=#000000;rotation=90;" parent="1" vertex="1">
          <mxGeometry x="3730" y="190" width="80" height="10" as="geometry" />
        </mxCell>
        <mxCell id="hV2kDuYqjvU9eCz-QwMJ-496" value="Вивільнення 2" style="text;html=1;strokeColor=none;fillColor=none;align=center;verticalAlign=middle;whiteSpace=wrap;rounded=0;" parent="1" vertex="1">
          <mxGeometry x="3723.19" y="120" width="93.62" height="30" as="geometry" />
        </mxCell>
        <mxCell id="hV2kDuYqjvU9eCz-QwMJ-497" value="t=7+2*ε&amp;nbsp;" style="text;html=1;strokeColor=none;fillColor=none;align=center;verticalAlign=middle;whiteSpace=wrap;rounded=0;" parent="1" vertex="1">
          <mxGeometry x="3740" y="235" width="60" height="30" as="geometry" />
        </mxCell>
        <mxCell id="hV2kDuYqjvU9eCz-QwMJ-513" style="edgeStyle=orthogonalEdgeStyle;rounded=0;orthogonalLoop=1;jettySize=auto;html=1;entryX=0.5;entryY=1;entryDx=0;entryDy=0;elbow=vertical;" parent="1" source="hV2kDuYqjvU9eCz-QwMJ-498" target="hV2kDuYqjvU9eCz-QwMJ-507" edge="1">
          <mxGeometry relative="1" as="geometry" />
        </mxCell>
        <mxCell id="hV2kDuYqjvU9eCz-QwMJ-498" value="" style="ellipse;whiteSpace=wrap;html=1;aspect=fixed;" parent="1" vertex="1">
          <mxGeometry x="3870" y="180" width="30" height="30" as="geometry" />
        </mxCell>
        <mxCell id="hV2kDuYqjvU9eCz-QwMJ-499" value="Черга 2 верстата" style="text;html=1;strokeColor=none;fillColor=none;align=center;verticalAlign=middle;whiteSpace=wrap;rounded=0;" parent="1" vertex="1">
          <mxGeometry x="3838.19" y="140" width="93.62" height="30" as="geometry" />
        </mxCell>
        <mxCell id="hV2kDuYqjvU9eCz-QwMJ-504" style="edgeStyle=orthogonalEdgeStyle;rounded=0;orthogonalLoop=1;jettySize=auto;html=1;entryX=0.5;entryY=0;entryDx=0;entryDy=0;elbow=vertical;" parent="1" source="hV2kDuYqjvU9eCz-QwMJ-502" target="hV2kDuYqjvU9eCz-QwMJ-482" edge="1">
          <mxGeometry relative="1" as="geometry" />
        </mxCell>
        <mxCell id="hV2kDuYqjvU9eCz-QwMJ-505" style="edgeStyle=orthogonalEdgeStyle;rounded=0;orthogonalLoop=1;jettySize=auto;html=1;entryX=0.5;entryY=0;entryDx=0;entryDy=0;elbow=vertical;" parent="1" source="hV2kDuYqjvU9eCz-QwMJ-502" target="hV2kDuYqjvU9eCz-QwMJ-486" edge="1">
          <mxGeometry relative="1" as="geometry" />
        </mxCell>
        <mxCell id="hV2kDuYqjvU9eCz-QwMJ-522" style="edgeStyle=orthogonalEdgeStyle;rounded=0;orthogonalLoop=1;jettySize=auto;html=1;entryX=0.75;entryY=1;entryDx=0;entryDy=0;elbow=vertical;" parent="1" source="hV2kDuYqjvU9eCz-QwMJ-502" target="hV2kDuYqjvU9eCz-QwMJ-518" edge="1">
          <mxGeometry relative="1" as="geometry" />
        </mxCell>
        <mxCell id="hV2kDuYqjvU9eCz-QwMJ-502" value="1" style="ellipse;whiteSpace=wrap;html=1;aspect=fixed;" parent="1" vertex="1">
          <mxGeometry x="3980.01" y="400" width="30" height="30" as="geometry" />
        </mxCell>
        <mxCell id="hV2kDuYqjvU9eCz-QwMJ-503" value="Позиція 3" style="text;html=1;strokeColor=none;fillColor=none;align=center;verticalAlign=middle;whiteSpace=wrap;rounded=0;" parent="1" vertex="1">
          <mxGeometry x="3939.1000000000004" y="445" width="111.81" height="30" as="geometry" />
        </mxCell>
        <mxCell id="hV2kDuYqjvU9eCz-QwMJ-516" style="edgeStyle=orthogonalEdgeStyle;rounded=0;orthogonalLoop=1;jettySize=auto;html=1;entryX=0;entryY=0.5;entryDx=0;entryDy=0;elbow=vertical;" parent="1" source="hV2kDuYqjvU9eCz-QwMJ-507" target="hV2kDuYqjvU9eCz-QwMJ-514" edge="1">
          <mxGeometry relative="1" as="geometry" />
        </mxCell>
        <mxCell id="hV2kDuYqjvU9eCz-QwMJ-507" value="" style="rounded=0;whiteSpace=wrap;html=1;gradientColor=none;fillStyle=solid;fillColor=#000000;rotation=90;" parent="1" vertex="1">
          <mxGeometry x="3955.01" y="190" width="80" height="10" as="geometry" />
        </mxCell>
        <mxCell id="hV2kDuYqjvU9eCz-QwMJ-508" value="" style="curved=1;endArrow=classic;html=1;rounded=0;exitX=0.123;exitY=0.786;exitDx=0;exitDy=0;exitPerimeter=0;entryX=1.067;entryY=0.398;entryDx=0;entryDy=0;entryPerimeter=0;shadow=0;" parent="1" source="hV2kDuYqjvU9eCz-QwMJ-507" target="hV2kDuYqjvU9eCz-QwMJ-510" edge="1">
          <mxGeometry width="50" height="50" relative="1" as="geometry">
            <mxPoint x="3998.825" y="159.83999999999935" as="sourcePoint" />
            <mxPoint x="4054.01" y="87.5" as="targetPoint" />
            <Array as="points">
              <mxPoint x="4025.01" y="162.5" />
              <mxPoint x="4045.01" y="157.5" />
              <mxPoint x="4055.01" y="127.5" />
              <mxPoint x="4045.01" y="87.5" />
            </Array>
          </mxGeometry>
        </mxCell>
        <mxCell id="hV2kDuYqjvU9eCz-QwMJ-509" value="" style="curved=1;endArrow=classic;html=1;rounded=0;exitX=0.1;exitY=0.852;exitDx=0;exitDy=0;exitPerimeter=0;entryX=0;entryY=0.5;entryDx=0;entryDy=0;" parent="1" source="hV2kDuYqjvU9eCz-QwMJ-507" target="hV2kDuYqjvU9eCz-QwMJ-510" edge="1">
          <mxGeometry width="50" height="50" relative="1" as="geometry">
            <mxPoint x="3983.4799999999996" y="159.75999999999942" as="sourcePoint" />
            <mxPoint x="3950.01" y="87.5" as="targetPoint" />
            <Array as="points">
              <mxPoint x="3935.01" y="162.5" />
              <mxPoint x="3935.01" y="92.5" />
            </Array>
          </mxGeometry>
        </mxCell>
        <mxCell id="hV2kDuYqjvU9eCz-QwMJ-510" value="3" style="ellipse;whiteSpace=wrap;html=1;aspect=fixed;strokeColor=#000000;" parent="1" vertex="1">
          <mxGeometry x="3980.01" y="77.5" width="30" height="30" as="geometry" />
        </mxCell>
        <mxCell id="hV2kDuYqjvU9eCz-QwMJ-511" value="Вільні слоти верстата" style="text;html=1;strokeColor=none;fillColor=none;align=center;verticalAlign=middle;whiteSpace=wrap;rounded=0;" parent="1" vertex="1">
          <mxGeometry x="3947.51" y="42.5" width="95" height="30" as="geometry" />
        </mxCell>
        <mxCell id="hV2kDuYqjvU9eCz-QwMJ-512" value="t=-100nε" style="text;html=1;strokeColor=none;fillColor=none;align=center;verticalAlign=middle;whiteSpace=wrap;rounded=0;" parent="1" vertex="1">
          <mxGeometry x="3947.51" y="235" width="103" height="30" as="geometry" />
        </mxCell>
        <mxCell id="hV2kDuYqjvU9eCz-QwMJ-521" style="edgeStyle=orthogonalEdgeStyle;rounded=0;orthogonalLoop=1;jettySize=auto;html=1;entryX=0.5;entryY=1;entryDx=0;entryDy=0;elbow=vertical;" parent="1" source="hV2kDuYqjvU9eCz-QwMJ-514" target="hV2kDuYqjvU9eCz-QwMJ-518" edge="1">
          <mxGeometry relative="1" as="geometry" />
        </mxCell>
        <mxCell id="hV2kDuYqjvU9eCz-QwMJ-514" value="" style="ellipse;whiteSpace=wrap;html=1;aspect=fixed;" parent="1" vertex="1">
          <mxGeometry x="4070" y="180" width="30" height="30" as="geometry" />
        </mxCell>
        <mxCell id="hV2kDuYqjvU9eCz-QwMJ-515" value="Черга до робота 3" style="text;html=1;strokeColor=none;fillColor=none;align=center;verticalAlign=middle;whiteSpace=wrap;rounded=0;" parent="1" vertex="1">
          <mxGeometry x="4019.09" y="140" width="131.81" height="30" as="geometry" />
        </mxCell>
        <mxCell id="hV2kDuYqjvU9eCz-QwMJ-527" style="edgeStyle=orthogonalEdgeStyle;rounded=0;orthogonalLoop=1;jettySize=auto;html=1;entryX=0;entryY=0.5;entryDx=0;entryDy=0;elbow=vertical;" parent="1" source="hV2kDuYqjvU9eCz-QwMJ-518" target="hV2kDuYqjvU9eCz-QwMJ-524" edge="1">
          <mxGeometry relative="1" as="geometry" />
        </mxCell>
        <mxCell id="hV2kDuYqjvU9eCz-QwMJ-518" value="" style="rounded=0;whiteSpace=wrap;html=1;gradientColor=none;fillStyle=solid;fillColor=#000000;rotation=90;" parent="1" vertex="1">
          <mxGeometry x="4180" y="185" width="80" height="20" as="geometry" />
        </mxCell>
        <mxCell id="hV2kDuYqjvU9eCz-QwMJ-520" value="Захоплення 3" style="text;html=1;strokeColor=none;fillColor=none;align=center;verticalAlign=middle;whiteSpace=wrap;rounded=0;" parent="1" vertex="1">
          <mxGeometry x="4173.1900000000005" y="120" width="93.62" height="30" as="geometry" />
        </mxCell>
        <mxCell id="hV2kDuYqjvU9eCz-QwMJ-523" value="t=7+2*ε&amp;nbsp;" style="text;html=1;strokeColor=none;fillColor=none;align=center;verticalAlign=middle;whiteSpace=wrap;rounded=0;" parent="1" vertex="1">
          <mxGeometry x="4190" y="235" width="60" height="30" as="geometry" />
        </mxCell>
        <mxCell id="hV2kDuYqjvU9eCz-QwMJ-528" style="edgeStyle=orthogonalEdgeStyle;rounded=0;orthogonalLoop=1;jettySize=auto;html=1;entryX=0.5;entryY=1;entryDx=0;entryDy=0;elbow=vertical;" parent="1" source="hV2kDuYqjvU9eCz-QwMJ-524" target="hV2kDuYqjvU9eCz-QwMJ-525" edge="1">
          <mxGeometry relative="1" as="geometry" />
        </mxCell>
        <mxCell id="hV2kDuYqjvU9eCz-QwMJ-524" value="" style="ellipse;whiteSpace=wrap;html=1;aspect=fixed;" parent="1" vertex="1">
          <mxGeometry x="4280" y="180" width="30" height="30" as="geometry" />
        </mxCell>
        <mxCell id="hV2kDuYqjvU9eCz-QwMJ-533" style="edgeStyle=orthogonalEdgeStyle;rounded=0;orthogonalLoop=1;jettySize=auto;html=1;entryX=0;entryY=0.5;entryDx=0;entryDy=0;elbow=vertical;" parent="1" source="hV2kDuYqjvU9eCz-QwMJ-525" target="hV2kDuYqjvU9eCz-QwMJ-530" edge="1">
          <mxGeometry relative="1" as="geometry" />
        </mxCell>
        <mxCell id="hV2kDuYqjvU9eCz-QwMJ-525" value="" style="rounded=0;whiteSpace=wrap;html=1;gradientColor=none;fillStyle=solid;fillColor=#000000;rotation=90;" parent="1" vertex="1">
          <mxGeometry x="4330" y="190" width="80" height="10" as="geometry" />
        </mxCell>
        <mxCell id="hV2kDuYqjvU9eCz-QwMJ-526" value="Переміщення 3" style="text;html=1;strokeColor=none;fillColor=none;align=center;verticalAlign=middle;whiteSpace=wrap;rounded=0;" parent="1" vertex="1">
          <mxGeometry x="4323.1900000000005" y="120" width="93.62" height="30" as="geometry" />
        </mxCell>
        <mxCell id="hV2kDuYqjvU9eCz-QwMJ-529" value="t=5" style="text;html=1;strokeColor=none;fillColor=none;align=center;verticalAlign=middle;whiteSpace=wrap;rounded=0;" parent="1" vertex="1">
          <mxGeometry x="4340" y="235" width="60" height="30" as="geometry" />
        </mxCell>
        <mxCell id="hV2kDuYqjvU9eCz-QwMJ-530" value="" style="ellipse;whiteSpace=wrap;html=1;aspect=fixed;" parent="1" vertex="1">
          <mxGeometry x="4430" y="180" width="30" height="30" as="geometry" />
        </mxCell>
        <mxCell id="hV2kDuYqjvU9eCz-QwMJ-531" style="edgeStyle=orthogonalEdgeStyle;rounded=0;orthogonalLoop=1;jettySize=auto;html=1;entryX=0.5;entryY=1;entryDx=0;entryDy=0;elbow=vertical;" parent="1" source="hV2kDuYqjvU9eCz-QwMJ-530" target="hV2kDuYqjvU9eCz-QwMJ-532" edge="1">
          <mxGeometry relative="1" as="geometry" />
        </mxCell>
        <mxCell id="hV2kDuYqjvU9eCz-QwMJ-537" style="edgeStyle=orthogonalEdgeStyle;rounded=0;orthogonalLoop=1;jettySize=auto;html=1;entryX=0;entryY=0.5;entryDx=0;entryDy=0;elbow=vertical;" parent="1" source="hV2kDuYqjvU9eCz-QwMJ-532" target="hV2kDuYqjvU9eCz-QwMJ-536" edge="1">
          <mxGeometry relative="1" as="geometry" />
        </mxCell>
        <mxCell id="hV2kDuYqjvU9eCz-QwMJ-542" style="edgeStyle=orthogonalEdgeStyle;rounded=0;orthogonalLoop=1;jettySize=auto;html=1;exitX=0.75;exitY=0;exitDx=0;exitDy=0;entryX=0.5;entryY=0;entryDx=0;entryDy=0;elbow=vertical;" parent="1" source="hV2kDuYqjvU9eCz-QwMJ-532" target="hV2kDuYqjvU9eCz-QwMJ-539" edge="1">
          <mxGeometry relative="1" as="geometry" />
        </mxCell>
        <mxCell id="hV2kDuYqjvU9eCz-QwMJ-532" value="" style="rounded=0;whiteSpace=wrap;html=1;gradientColor=none;fillStyle=solid;fillColor=#000000;rotation=90;" parent="1" vertex="1">
          <mxGeometry x="4480" y="190" width="80" height="10" as="geometry" />
        </mxCell>
        <mxCell id="hV2kDuYqjvU9eCz-QwMJ-534" value="Вивільнення 3" style="text;html=1;strokeColor=none;fillColor=none;align=center;verticalAlign=middle;whiteSpace=wrap;rounded=0;" parent="1" vertex="1">
          <mxGeometry x="4473.1900000000005" y="120" width="93.62" height="30" as="geometry" />
        </mxCell>
        <mxCell id="hV2kDuYqjvU9eCz-QwMJ-535" value="t=7+2*ε&amp;nbsp;" style="text;html=1;strokeColor=none;fillColor=none;align=center;verticalAlign=middle;whiteSpace=wrap;rounded=0;" parent="1" vertex="1">
          <mxGeometry x="4490" y="240" width="60" height="30" as="geometry" />
        </mxCell>
        <mxCell id="hV2kDuYqjvU9eCz-QwMJ-536" value="" style="ellipse;whiteSpace=wrap;html=1;aspect=fixed;" parent="1" vertex="1">
          <mxGeometry x="4620" y="180" width="30" height="30" as="geometry" />
        </mxCell>
        <mxCell id="hV2kDuYqjvU9eCz-QwMJ-538" value="Склад оброблених" style="text;html=1;strokeColor=none;fillColor=none;align=center;verticalAlign=middle;whiteSpace=wrap;rounded=0;" parent="1" vertex="1">
          <mxGeometry x="4588.1900000000005" y="140" width="93.62" height="30" as="geometry" />
        </mxCell>
        <mxCell id="hV2kDuYqjvU9eCz-QwMJ-544" style="edgeStyle=orthogonalEdgeStyle;rounded=0;orthogonalLoop=1;jettySize=auto;html=1;entryX=0.5;entryY=0;entryDx=0;entryDy=0;elbow=vertical;" parent="1" source="hV2kDuYqjvU9eCz-QwMJ-539" target="hV2kDuYqjvU9eCz-QwMJ-543" edge="1">
          <mxGeometry relative="1" as="geometry" />
        </mxCell>
        <mxCell id="hV2kDuYqjvU9eCz-QwMJ-539" value="" style="ellipse;whiteSpace=wrap;html=1;aspect=fixed;" parent="1" vertex="1">
          <mxGeometry x="4620" y="410" width="30" height="30" as="geometry" />
        </mxCell>
        <mxCell id="hV2kDuYqjvU9eCz-QwMJ-540" value="Позиція 4" style="text;html=1;strokeColor=none;fillColor=none;align=center;verticalAlign=middle;whiteSpace=wrap;rounded=0;" parent="1" vertex="1">
          <mxGeometry x="4588.19" y="445" width="100" height="30" as="geometry" />
        </mxCell>
        <mxCell id="hV2kDuYqjvU9eCz-QwMJ-549" style="edgeStyle=orthogonalEdgeStyle;rounded=0;orthogonalLoop=1;jettySize=auto;html=1;entryX=1;entryY=1;entryDx=0;entryDy=0;elbow=vertical;" parent="1" source="hV2kDuYqjvU9eCz-QwMJ-543" target="hV2kDuYqjvU9eCz-QwMJ-502" edge="1">
          <mxGeometry relative="1" as="geometry" />
        </mxCell>
        <mxCell id="hV2kDuYqjvU9eCz-QwMJ-543" value="" style="rounded=0;whiteSpace=wrap;html=1;gradientColor=none;fillStyle=solid;fillColor=#000000;rotation=90;" parent="1" vertex="1">
          <mxGeometry x="4330" y="420" width="80" height="10" as="geometry" />
        </mxCell>
        <mxCell id="hV2kDuYqjvU9eCz-QwMJ-547" value="t=5" style="text;html=1;strokeColor=none;fillColor=none;align=center;verticalAlign=middle;whiteSpace=wrap;rounded=0;" parent="1" vertex="1">
          <mxGeometry x="4340" y="455" width="60" height="30" as="geometry" />
        </mxCell>
        <mxCell id="mX_f6bW8goCtRAaglK5D-3" value="&lt;font style=&quot;font-size: 8px;&quot;&gt;4 позиции откуда готовилось нападение&lt;/font&gt;" style="text;html=1;strokeColor=none;fillColor=none;align=center;verticalAlign=middle;whiteSpace=wrap;rounded=0;" vertex="1" parent="1">
          <mxGeometry x="2634" y="645" width="166" height="25" as="geometry" />
        </mxCell>
        <mxCell id="mX_f6bW8goCtRAaglK5D-4" value="Позиція 1" style="text;html=1;strokeColor=none;fillColor=none;align=center;verticalAlign=middle;whiteSpace=wrap;rounded=0;" vertex="1" parent="1">
          <mxGeometry x="2634" y="425" width="111.81" height="30" as="geometry" />
        </mxCell>
        <mxCell id="mX_f6bW8goCtRAaglK5D-5" value="кожні 4 тижня" style="text;html=1;strokeColor=none;fillColor=none;align=center;verticalAlign=middle;whiteSpace=wrap;rounded=0;" vertex="1" parent="1">
          <mxGeometry x="1230" y="1427.5" width="60" height="20" as="geometry" />
        </mxCell>
        <mxCell id="mX_f6bW8goCtRAaglK5D-6" value="&lt;font style=&quot;font-size: 24px;&quot;&gt;/&lt;/font&gt;" style="edgeLabel;html=1;align=center;verticalAlign=middle;resizable=0;points=[];" vertex="1" connectable="0" parent="1">
          <mxGeometry x="1896.9977777777779" y="1470" as="geometry" />
        </mxCell>
        <mxCell id="mX_f6bW8goCtRAaglK5D-7" value="30" style="text;html=1;strokeColor=none;fillColor=none;align=center;verticalAlign=middle;whiteSpace=wrap;rounded=0;" vertex="1" parent="1">
          <mxGeometry x="1888.5" y="1440" width="20" height="20" as="geometry" />
        </mxCell>
      </root>
    </mxGraphModel>
  </diagram>
</mxfile>
